<mxfile host="app.diagrams.net" modified="2024-03-31T07:20:16.402Z" agent="Mozilla/5.0 (Windows NT 10.0; Win64; x64) AppleWebKit/537.36 (KHTML, like Gecko) Chrome/124.0.0.0 Safari/537.36 Edg/124.0.0.0" etag="_qj_gKaT3bOL3bJOAMQJ" version="24.2.1" type="device">
  <diagram name="Page-1" id="w3pUF6BHDOXK4n3ZT2Oe">
    <mxGraphModel dx="1002" dy="535" grid="1" gridSize="10" guides="1" tooltips="1" connect="1" arrows="1" fold="1" page="1" pageScale="1" pageWidth="850" pageHeight="1100" math="0" shadow="0">
      <root>
        <mxCell id="0" />
        <mxCell id="1" parent="0" />
        <mxCell id="W-q-6n3VgXVyglavIU9t-3" style="edgeStyle=orthogonalEdgeStyle;rounded=0;orthogonalLoop=1;jettySize=auto;html=1;" parent="1" source="W-q-6n3VgXVyglavIU9t-1" edge="1">
          <mxGeometry relative="1" as="geometry">
            <mxPoint x="290" y="110" as="targetPoint" />
          </mxGeometry>
        </mxCell>
        <mxCell id="W-q-6n3VgXVyglavIU9t-1" value="" style="rounded=1;whiteSpace=wrap;html=1;fillColor=#e1d5e7;strokeColor=#9673a6;" parent="1" vertex="1">
          <mxGeometry x="50" y="80" width="120" height="60" as="geometry" />
        </mxCell>
        <mxCell id="W-q-6n3VgXVyglavIU9t-2" value="Input Video Sequence" style="text;html=1;align=center;verticalAlign=middle;whiteSpace=wrap;rounded=0;" parent="1" vertex="1">
          <mxGeometry x="70" y="95" width="60" height="30" as="geometry" />
        </mxCell>
        <mxCell id="W-q-6n3VgXVyglavIU9t-4" value="Decomposition" style="text;html=1;align=center;verticalAlign=middle;whiteSpace=wrap;rounded=0;" parent="1" vertex="1">
          <mxGeometry x="210" y="80" width="60" height="30" as="geometry" />
        </mxCell>
        <mxCell id="W-q-6n3VgXVyglavIU9t-10" style="edgeStyle=orthogonalEdgeStyle;rounded=0;orthogonalLoop=1;jettySize=auto;html=1;" parent="1" source="W-q-6n3VgXVyglavIU9t-7" edge="1">
          <mxGeometry relative="1" as="geometry">
            <mxPoint x="460" y="110" as="targetPoint" />
          </mxGeometry>
        </mxCell>
        <mxCell id="W-q-6n3VgXVyglavIU9t-7" value="" style="shape=image;verticalLabelPosition=bottom;labelBackgroundColor=default;verticalAlign=top;aspect=fixed;imageAspect=0;image=data:image/png,iVBORw0KGgoAAAANSUhEUgAAALAAAACjCAYAAAAq9ZRrAAAAAXNSR0IArs4c6QAAAARnQU1BAACxjwv8YQUAAAAJcEhZcwAADsMAAA7DAcdvqGQAAKUhSURBVHhe7f1prGVZlt+HrXfffXe+bx5jjozIsXKorqkndnW7RTYpUwLMqSmDMGxTkATYhr64CYgSKJqwLXOUBMESIMMEWjQMG/rgDzRFumnLNkmT3c3urh6rcoiMzJiHN493eKN/v3XuzXiZlUNEZBRZWcp9337n3HPP2WcP/732f+299t4jJ7j40n3pvqCuNDh+6b50X0j3JYC/dF9o9yWAv3RfaPclgL90X2j3JYC/dF9o9yWAv3RfaPclgL90X2j3JYC/dF9o9yWAv3RfaPclgL90X2j3JYC/dF9o9yWAv3RfaPcja8zz7rVrcff27fi05I1Qf4tfR/DHMUp1blbHol4pR5wcxMjxcYyVy1EeK8fIyEmMlLhvZIQ/6/1IPnt8zPW8bBj8xn+u8L9wJ/x+TDhFPHzGzwhhjuIr+Vy1XIl6tRoHR4c+EeXyKO/yHTx7wrM8f3xyVIROMMdHXMcfHnL98Iiwuex9J4f5Lv64n2vEs1QaTZ8uw8Dx7+joGO+zpHuU9HG5Uq8WvlKNEplxRNjHx0dxcHAQvW6Pdx7l+08IZ5Bov+IzVN55kmF2uLfTOyA95qq/6b2z+Kbz29O68uhoXLl6Nc6dO/ejC+C//Bf/Yvydv/23s/B1pxMpaEZGRgMI0QaNZqEL2KlWJV69cjam6ycxur8ddTA0PTEetUaF5w+iNMZzZN7IaIVQyhTYSOwfHgAAqoIgATDggQIugLO/fxCd3W6UuM/C7nNvUAmq9VrUW62oNmqxML8QFxbPxkG3H4cAsF6rRBVv21gqAco4yuuHh32ABEAPiEmXa73j2O8eR7+zH3t73djvd3jHQRzx7pMTAEkcS1SMkVI1Ae2z5dIBhV8ivqPR7/dib3c3K0qr1Yw+cW1OtWNyaTbm5ueiTfwEZB8wbm1uxsrycmysr0dvb5c0UhEI45DfD6gI5qHvOiGs/sF+3Lr7IL733p1Y3jiI/eNK7APkIA38OhAZAN8K8JSujFD5i//BfxD/s//F//xHF8B/4d/9d+O//M//8w8BeJhQs67E/5GRsRgFyMfHhzFWOolLZ6bjlUuLUdrfjGZpP6YadQqygaTkmdHjKFVG4pDwjk9GEyTAPI5HlGACVuCMJFiODpW6FH5vH8m1HxUCUO4eUvD1ZgPfzMKemp6Ki5cuAkil2wFgns+4jJZLvLOU50dcP/IDAPq9PkKUeB+V4rB/DJgASI/rgL/b3eMe4lgCvCUrgNJ9jHPiOUJlI2KV0lGGXaIS9QCwUlUpe8g79vY6UZ9oxuLFpVhaXCJu01Gr1QB6P3Z3dhLEDx88jK2N1eh1OoDXykV6qbQjpbGssDFKOsnc+wD99996L67f3ojuYRkAcx/xH0EIDEuhaMWezgng//X/9n8T/8u/8Bes5z+a7uNqpVAeAjl/p+6eABIzdgIpO0cBHu/vQR0OaEYrSR2GzX/J5pIArO6HNPWHSFPBZbN6eHiY0lafzW2vFzsUeo/CF4S9PhISCTpWGUtKMkJAs1MTKd0f3L4TG5srxG0/tvc2kGg94mZ4hLG9HRtrG7Gxsh7b6xuxR5j7AM/3jlDhEHoxVh2JsfpoNMebWSEmp6ajNd6KRrNGy1HNigDiqYCIwVHSQaMzVi1HDarQbDezVdnY4h1ba7G2shyby6uxu8G7AGx/b49HTqA3UJxalfAnYmZmKuq0HApQqmkhUc0PJO8xcQ7iNsHvS7MzMVknveTlGOmxuhcEaugenX0e9yMLYJ1ZdNp/tNEqGNxRVMmFiUY5GmWKpL8XVSjBmDw0qUZxp5xxf7+fHO+Y84J2FGAWtPv7+9ks97qAdXBfeu8DbFUAUIH3ykNbSPYKEmv57l0owG5eryTvJmwqwxagXbu/HOv3V2L93kps3F+LldsPY/X2g1i9u8xzD+LhvXuxvbGZwCGqUaWyVcdqeCgIEn9Uvo7US947glQnnSOcj9FaNAUvNKbGOys8rC9z/2GvGzsrq7G9uhY7SNHO1hbx20PKdzNt5le1XonxyXaMU2FqVMhR84g0jhDvUVqYMoCvEd7cZCtmxmvRLCP5iUfZSmReJvDxCo9T/mndj7QEPu11qjJ6E022818ScBINADtRRYoB4DEyexRaMMa1oWJmBksJDgGk4NwHNJ7LEVXSCgksgPspdeWbHxSO7wCgBnXAcw2APAZ92FpfA/2H8G6k5VgVAFAp+oext74DiDZj68Fm7DzYis27gPnmcqy89zCW8Ws3aMbvrcXeynZ0NneQlpvR26HVAKsjB1QWCSfaUwlqUEbSjwGcCgqoFAkGFFXzgN9GiMsolW8M8NXhs3UqVIWM2kfKbzx4ELtrawlopevx4T4tkAqYtOE4pXe73Up61W7Wo8X3GmmEaQHiY6TtEemqxZmZiZhqjkUNLm8cbMUSwPrM/Uefp3U/0hL401yRaQI4yPyRGKe5q8IROSBByBZBK0iRKkrblKYUfL9PU6lU5fHU0rnP3xLYgFhp7O+FJ3zCUsk7PAK8TQoaCdbt7kaJcGcmJ3hXGSAJHHjs+l7sre7G2p31uPP27bj53Zvx8NqDWLm+Elu3t6LzkN8f7sYuvrvWjcPt/TjpELcONGYPqb8LZenAk+HEaGUxgi8JVOjLKJVlzPTAe/vbO3nPyL4AtgKPRgvJra9SuQ7huFKIXXyPFkLgVpDw0hGpK28kXUUrZc9NhX+mw2NZoCIE6tx7Zm4qlqbHo11DyRtW6MSq4uPDn6d1/50FsM6MA1sxgRbeqlFAcLVGBUkiqlPaAFIKWMkpr+1QsEpZgelHyXs4oA96ebHA9bynwsW5yp3Km1KrgQK37/Pcl4Ag/JJA7x5EZ13grsaNN9+Pd377rbjz1p3YvLMZ3ZVO7K/vR+yivHR5Yo+6swdIoJuBP+6C/i5x7SL1URgF8HEHpbDT5TueeI/Y/B9wMxydyMUx10rEW2nchG5MN1ox227HDFJ1AnrThPOekLadzQ1aivVU2uy9aPCbPRY1WhEVQZJmL0CCqEIlqOKl3AliuP84lXURzjzdrvM89yuAuUcFzt4P80ZftHRP536EAVww3NSUOdqTo/fc6yZcb8GMo8woJUEf34vm3ptsLo9OACjN6F6vQ8sMh6S5P6K5t4fhACD2B+A9QBqfHPNOXnJMU24n3Rga0yFSzoJrA5B9QH2AVGw22jS9bSpKBXDsx+7WXuys7cSt927Db5dp9iuxMLMQ55bOx8Wzl+LFKy/Flcsv4F+MS+euxPmlC7EwuxQTzQma/xr3I+F4tzRklMo1Rprt6JOTDnmpVEEFa0SKRLoQoAAOPoxCNw4wp9oNfCsmW22kJwDl+SMrLuDVHwF4cga+XCb+zajXG+SFXX5VePFYVAhHqaxyqWSu2Z9u2K1qjEMzUq8gY8cI2XDsWgTnheddQzekXo/rfmQBrFywKCm+ONBT6/fJQMo5nXysRO7VUWYsCAcFTgAC7FAxgR+JA8DbP+lH/xhui0Sq1sejNFqHMpSgF1AHQGvPA9BNqaxyd3JIlTmhKeXD43YAoOwAJ3476B1AV5BijXGUtiaSuQSdOIr1tc24ffsuYR3G3OJivPSVV+KVN16Lr3z1tXj1Gz8Wr3/raxy/Hi+8/lo8/9prceXll+Pi5efizJmzsbS0FLMzM1SIVjEAAZdVuinlyqNlKpEKGud6m3I01lG8PW38HGMVmn++q5A1AeM4rUQbQNeoyLYOKnHSiZ31jehCPUaObLUAKO9qeS882Jal2qhEBV9r1PjeRFqjJALiGu+cHEeq07LVyPdR8mGMQkDdULdNCV6AuCgYBYxt3+NC+EdaAuuz84ZTvZfMmDwl42z2skcAiVGiwK35yV2VAtxjD4Md81s7u0iYBqAoQyHsOpNWULhI0+xn5uZ8VhHPOfBJSavEbdaRPuVq9tW2ANns7FwWuPcfANg9pNvGxkYC7vJzz8VrAPTq889zfjnOX74UZy6ejzPnz8Uifumc/myc4Xjmwvn8Pr+0GNMzszE1OR0T4xPRQDLa71xB+tcc4aNyNpGoHitjY0VXHt5zRwPHqFz1Wi2VsvHxNq1Rm3giYbnmPRX7dgFdd28v+4N3tqA1HA+hQgm8QXPlKOUYgK2S3qxIgNxuyDZhzcxMx9REm8pbBrR2vRXAG4LPEJ7W/QgDuOCpiSg9gEm+xumwN0KuN9Gqc26zxzUKwV6F7DJLbutAgkPMstWIHYAs6I4SwPb/GjbZr1hHmlrQvodAOD9M3iclsatLzjs3PZP9qcc+i+Tu7u7BMTdTUj7//NW4dPFizMwCxumpGJ+ejPbkeDTHW1GDd1YbABPvcQyQlKtVjo7oAbqpqWhNTESTCjLeHo/pCQAjoNsTgBFKQOWrjwlIWhtoiy3O0CfYq0jLGmFXCZdrZYELyBWHJ9Amu8rGqGDwpDikIvb3UATxvb1uHPXtpXCE8DBbGSX9GGn2mVHPVe6gFq0mca1RebLly+x8Ju5HdiTur/yHfzn+q1/+O4VEtSQQF4J2jNTa3VMlI+cm27E0Oxn10kFM1EvwtCMy10YMEJMtxyh1J3CAEpI3s0lqQIGr2B3aVUUBlcqF5N5H4lpPbLJ9nVK4iXLUhFs60DA+UQBLBniAFO+jcG1tbEUXZasNQM+dPR+TEwARwCnBBJr32jKUkZKHDhH7sXJAtI+oIA5oGEvTOEJ8TvrF9YwISlRxnwMuAA8g9ss8C3pGCVNw5RGvFMuKSxNiF6Gc3yHyDsrfgaOBhGe6jYf1NVszTrTTUJG169CWyvzwnjHi73X9HkrlysZOvH93JUfnbi1vEvYI+Ws28U7jijumPPxu62f8Tfcn4fz0SNyPLIC/81u/FdeuXSuAN3BmiCC2wJQQjZpGNKgVKDYOJiiJM1t5pqARxceCyS4xFTwLjnPvKbimUpuCpNDNcu8VDB6rFOYo9GSsAhdFqmk0Y+nn6B0SS9BLHdTus+m36fUdKaWMqXFWMeL93Fegp6hgfojE4Ogl/snj/d3rw/u8PqBFh1RiPxm+4eZ7uI1z0+Cgi0ZDmf4BoAW+yqrPm369aePhIkMJfnif0ShckQ/eYgvWo9W6d+9+/NX/8N+Pd27ci96BQ/J48rp4SvASFPcXAKaMeDij9jHuhw7A77/3Xvzf/uv/evDtkRsmQMObYySQjFYJqcXY9EQTRcPc68HTRlIJUVkaJXFDN8xsCy1BQ6EmCLmmFJUfm8uCxoyW0yqALTytseR1Gp3UaKpH5YyAcYomeiQBfJxGN/I8paCFnFZafuN3vTCRchzsU1DQDc8PUfx8VwJj0Gess1tKKZfxtUQ4Gld/dyjarry8h/dZMSagDG3iUoNKKE2Nu118GujoM2zjQxKNiUFqf0GikvFo07G724nVta3Y3dsHSFzjPuOcr+d/SmY+yHLOHpWHJaHzv14QFncM3fDO4vrLr7wS/+of+6Pxp376tfjd770bnX3yBUX4gDz0Y/yGAB6G47s/yf3QAfhX/v7fj1/81//1PD8dmcygrOkoEscULujSIOX8wmQ8fx5liKb/uLtO81+OaZpqFQZtGHzEVCn9lHomUYOVEwcVSLygPEBaFYYuFtUIhdiJDryOKpCFq2HMKGBpoNy00iKtjrI0E7PwSrulVIBa400Nsch8m+jC7sECOYDfClR58d4OfLEDp+6fxJ68kSbVd/v7sE9Z0A5NKFPuEL8RlKcyldJBkr297ej2usmpleZVuPvi0hK041zMyqvhxRrmbG1uxPLD5bQc047iAOBrBHTIO44I85gKcUIlOSbSgngNCvPm27fi/VvLgIr4nGQHG/lB+sj7Mt8EZ99S4X71B53t0CCm6SmFDO/jnHn/p//sL8Yv//Ivx//oj3w9fve778TGDsJCAKfEL0CelYAwhuX/uAD+tPv+hbnkqQNvU+bR5iw9BSiHU7o5ll9FIZhE8XJo9OgATZiCUZMeTW5acLgDuJcS0cGHHgXvKFkCSiCrnCGtlMgCSGBsUPDr6+vw0T3AggTb2+H3QySdFQcJyPXxViuNWjqdXTgcEou4KPW63S7gAZRI130UGgcw9omXxjgdnuv1OzShnegfdgB5D6gDWv6XbDUatTS8aaOh15to74RfrhTau++uUPkcorVnYHK8nf2rDoLYA9BBym7vbsce4R9QOTXQ0TyzNUl40xNRJY9GqLDmSeZfQgMaINDkx6SrWavFwux0tBpj5C0Vmns1lSwBeArh+8pkaJv8cX547yd5kd5u12MSvUPrPctt+PHvkSvi+bjuhwLAH3XDJHyQFDLO0R17dScb1RivIRv6e1Tb/ezuKZWrOcIj4AvwFkrLsJlWmTAcbV5T4QDQ+l3Aqo3r9tY29xbP9QHemACCHvQBt5Xm6uXLgKkUa0g3Ad7hepdwDNceCQG8vbkXG6tbsbmyFTtItt7eHrRhP4FYb1agIWjjKIqVGpwYr+G4oK2jnVegRCdUyNExJDHvFsQa99SpmI1qLdqk0dFCR7k62iqsrabf3d0p0rCzGTs98oMbau1mtGYmYnx2Kuq0SkmDSIP2HUQoDknfCZVghHMrx/z0eCzNT0XVdxO++ZwGOgNUCfwsg8/pDK1RpXLVrYgFVbL5orpA7ZT8BRSTuiBoBiX/me6HEsC600kwkqMjR5TPcVqN1UYdYQK8lVI0AYF80R4tmyF57gFSxFGzPuDtC0y+C2YlUWG3oBF4B4mJJOsgQdG2beoot7S2EkiHgK8OyM4sLgLI9Xjv7beju73FM72MkFKnA0i3Nrdia207NtGutwDw3joSHL8Dt9xYXo31lVVoBBUEqWzz32ghJZGOabjOd7vuSoC3AUgLpqohEUAnTVUkrn2njprZsDtvwsGFQ1oWjYE2Vldii7jtEn6v2wHQ27FDCyFdKlPJJ2cmoT2TmUdWiDS8Ny/xGvoYZhvpuzg7Sb6qQ/BeQJ36Ir8Vn4Kjn3bDXx59Hs9VSlTkMdKPwpqKKQ+e0MoIYpVUcZt9y4P7H8f9UALYSMnBzOgiMdTP44Nok8Hj1ZGonACG4z4ZIrBVbCrJweSt8qgj7u9TiHqphMDuHsBFAaygPQDAafpIc58ZCSgcUUuliXtVmOy3nZmajAOk7b07d5AcDre2o1Wrx8kBVGF3L9YfrsbanQexcW81NjV5vLEcy9cfxIPr9+LB+/dj7TaS8sFabD4AZFs7sU+lOUby29tRVSGjxEaJsza3WnFpSOPwrtxzjJLULLHwDkogwRPUhe8jeVfu3Y3le/dC2wZpAUFSsWxJoEhKXXk6UrjerMIbS9EYWI35TmpylKjQFQTDJL8vIoXBOABSGbV7rlBIPw6cXnsEXiu+lfDjbRvytyEkTSunVeLQoHXRKs9Ke+ruPH/0/bPdDyWAP+pMph3gbW1Ra3BDMrgBeus0tWag01r4SwAXfZhFP6ZgPCI39gChElkp3EXZ2YE/Ct6kF3izzYxXZdH6rMo7JqfGOT+EGqAkIsFmUeQc+CgDNC25+gCys7YZe6vbsXHnYSy/ezc2b62k6ePaewD6xmZs34Wj3t+J/gZSfg0lEcl8sINK1NnPMBD9+MJq7IRzDWzGSEiVWljiKNitQErcY+5J4MuLqWhNqAl8J7buP4iHt29Fd2MThbZLPmldh7Q1X5D6irQm9KPhAIiSnWfrPGsYpqWMkjfeHItL5xdjHuohoLL/OKv9AL6fgShbr9N895P6BcxrQRwII8tOWwkrXs43zEc+eONjuy8EgM0/a24zR3JQNg77ZDyZMVBG7FWwHhejZwPFCkk7zEc13ZSyXJMueMzOfbmyfJDnVSzk0PLPyckJnjqBG28mh53mu0bbJwKeCtDd3Ik9KMLyrXtx/fffjve/+27ce/dWrKPN7z7Yiv5aLw42qUA7SLEOIXVo/g/gtUeCjoLcQ9FEGh8NrMX0gk8Qpyd+grbfgeZw/RAgy8XlxNoqqFBOt8djAn5cJ+4HO/Dv+w+hMKtxBODHSK+SW6DaE1OYhDpSVihpdgPawikBqzRzldFjmnUox3gzmlIorutSun4WenHeJ2hP+49zo6BU6UsWkwk9KpmG7oJQmlI84/8nAfEPDYCNtMk47aUDRf6RcNq3JlLEX6yx9onaXKaGrdRF2ni/wFUZs6vF3+wdMHBHv7pKNCUzUsBMFtQa5BSjUVATpJLgsBN9V8MVAmxAGXKIA2Wtu9OJ1bsP4t77N+Pd774Td67fir2NnTROGa+18G2ANR1zE3Mxw1FrsRbX02LsmFAOaUkOoA7gGswgAYuRwTLvkULIb0uAjFoF2PCATYVG6lAbGyOsWlqLzYyPpx+v1qNWKiO5D6NLq9Ihzg710tQAUFqoGoqixjUNOXctFVNnYYxJX0ijRvuC1VkcXp9EoZxqUynQARQYSQUy/x+5IcBOl1cC+COfj3MFfSgo0Aj0rkT6VC4FYfL/fBdnH3nnp7kfGgDLuJzyR/ZHnwRQzh8AGFxFg2ZcGwCN+o4AxCEFZ9/mCE+OoNAd4/fJFLuN7EUQkJoyHu3TGPbtciuoxj6SzP7HQ0AiZ3SMP3s+kXxNJJxg6e7s8swBgGkiyeqEX45e5wjNfydW4Lrr99fjoHMQs1ML8cLVF+OVr7wer331a/H6178WX/361+ONb3w1Xvva6/Hiqy/H5RevxtkL52NmGkA3mtFGiamNACL8qJ6YJkWS4yKdNBo3vTQIqeApoRyokRs3kKZt4jhJRZ4eANmuMMdzaJ9jX4lt7weVeISKIKevANoGPLhl74QeCe50omYVcFec5gRHrjQItxpzKJiz0InJmra9KFUjRS+BzbtFkY6T0+C13Lwo2E/7j3PHzo8jQdpcV1Bcy/J0BVJ6Qx2A11Nf9Bjuh0oCmxly1qQEHM0HI1iF2KmAeJcDDyN2xpO5Bf0nG1PxOIrt7W1+5yr3KHmdwXvsCBhgPATI4NbRVkAOoFMFhm8i2ezysvvIJrff6fLMURrCjAMSTQdz2BeuuocE3u8dpM3Cyy+8HK+/+lq8/MpX4vmXXornX345Xnj11Xj+Ky/Hcy9cjYtXn4vzz12Os5cvxdlLF2Ph7JmYnZ2nmZ6K8cY4TXYLqQqAymrmVaTSGL6c8dEKzNE2vQMzFSUkvg5lELBNWgXphFZj2lHYw6CdrlZ1B7QyTv7UhrfbxUOZNKgfoRIYVh1pnH3P4yikPOsgiBVeyqEEngHkky2NfwrLXZcIMJf1Hzi+WD5Db0F99PN9juw+opJpwqphj0ZUKY2pZHad5Q3FXxHmY7ofKgBnXuS3orkxcqSRxGp7Wi1sFvhhTEllwpGW0q0cb0eh8aiOYL+sLbDT3J2flrOFlcTQgJMjnjm2UPjwe86mBbCTExN51M3NzMYsElPA+AK7y3a27Krqwo8n4/KlyzkdfhFQLpxZShvemYWFmJ6fjcnZ2RifmY/W5Hw0J2aj3tJSjGtI68mZpZiZOxvTM5yPT8JnoQH4CfjseKNNC9CIxmg1mmWktNZjSsihl+8C3rrmmXzX7lcJ69T37FcVRGYiaTx0gGV3L/u3t6jUuw6o2PMCh9fbAp0gYUdRSis1jiUAPlJYz+XkUCqVxkSjOTX/2UFEqjaGEjpOxdGO2FZHKliU/tO5HxoAi9xMBv/scy/h5foVEjhep2CRMmXayirNj9Ky4L80mxRIl+bf4VtnCQxNHVXItBgTuIcHBbBPDkkuwB6Bs5aQLC4SomTNUTYkjuaWkzTLU4BUO177jF3YQ7+9tZUV5szSmVg6gzQFsDNzszExPRXtae6faEcF6TZK81yqNgBHM0bhv2P18TgGCCeAslxvR60FL0YKT05OxzwSeX5uIeam52JxlgrA9QlnayCdWw09SpUWbfhG3VkQzTzWkMBVAC3Pd2i8Ch2wlZDPO9NBADYqVADim8ondCm7DpHOu0jmrZ3t2O7uAuRCIo7RwlWUhukNb9ACaFoJzXkmjvKtlsgb8h8Yx4kUkMvH9n9q68JV+z1yaPkJ8PxDAWDjm3E2LcWB2oqCwcUKtVa+Bi0z2TJgkZhDvRqX27dr95jPF0sukSgyxHZI6SugS7nwRjm57PEhvzmjYkAtbMCkCkcUcovmdAZgOaXG6/KNQwpekDdrjTi3eDbOnVWCzsTk1GTa6QraMfj5CNr7SKPKscp36AEStklYramZmACcUwB1Yno2Wvg211r83piYpCkvbHYF6XgLSYwXvE0pBl7Q6qsAcgyvza52vWn4Q7OvlVtzYICujcI+FKizuYWHTlF5q+RFlbQ7LC1N8T7tLkzv3m4Hv2MTFu3s3Wiml0pVULS0PdGUx/+6T+K2j+UIotfpxQj5bktXCBmoXCrU3oCE4aZh+T+u+6EAsNZgTkOxIOR1haJBhiKBZuBqk+12NJAKdvG4hpjSR5tTBzBGNdIGXBWknUY/ZZrhCgU/hhSsIfGa7cmUeJVaGxBTeKMAroyELCHV4aKTgGkcMLXgvDMzcwkWw1YqODzt8lEafp87fzEuX7mC5F0ElFNRBaQqlSU0/SPuO6KFIHKAmGvEvwwQxuCaY3DK2tR41JHSNUE/OR41ziuclwjjmLQcAsJjJF7ZuWbEt0l86wC7DrAbSOw6oK7hPa81J1DKlPhT6etapHFfmzRolK5xUAegOEK4sbwWGw/WY3ttK3o73Tjo7qcuUDqBfgwqdZm8KKuoImn97myR8XGN26UkPSTwcRqpD3ttPqmL7LMccjV2d6A1KMiHVB6t6JyWpLJqN1oKLO4TvDn9/jHdD4U12ptvvhl/57/65ayJmQC8DZfrGDiXagogVEdJJJprdsEoGRC12eR4txKXptCO8lG5Id65aSZNaaw5pr85702XHed4u+bs53VakcO8aTZps2zzhpSwWXY5J4XDNEB32k0FKWjT7QhejrlmCeh5LxJOXmrvgteK/mmct6aA4ZsDFEg8ubcKl6N+R0j5Iec3/fLzI8LW+Dy/86/Q1DkSxnCq/yE0Sm9feNqAQKM6KG5ydY2XNEbPwRmeG4asQpf6KxUzewyMOsfhXLoDrq9v7cSv/MqvxD/99X8eOweRlmO5nIA8DKex+ZO4P/OLvxi//Hd+Of7tb71BfnagWdXYIQ/urW/HvY2d2NuHypH6nNU9SGcmujj7Pve5zCkdBPjud7+bNrwf6/K9/AMgzpR18l4DCeZqMFUQeSLvIv1lMswZwVplpcGJRU3GCLbCGS2BRlgfxPBRgoy1TRv5/cH34n7DKAYmbF6dRaz2rbKQ0eKePOfuIRCcjJnNmRTEcDn6XWlmuN6bhc1J3p/XrUTG2g9v5lzOnFIK70M28ypdLRcvQdoawOEhwD1wQMUF+QAvwDM8/ghEVlik2WLJJFGZekjN7T2oAfRgn0qYt6YvgFRUk6L5zWfS+e3JndTojTdej//r3/7P4v/wX/wn8WCjH92DMroGdIz8Op0fj+sSwAioP/+1r+TigGUU8h5lsLbXj43uYWzvH/OOQ9LXKSok77Dyf1IaPheA79y5E3/jP/qP4h/8N//N4MqHnYA6RikgflGBsLeQpc/NzcXZOThflRp2tEPTMRotJJmzVtWCXZ9LaTqSUqBKAmhUSMiI03lAO6ERMgF6neiSjwkwsjTlSxYf302z9EKzRDX19oQKk3PF4KrZc+G0cOdpCXIlNvwWENnl1oeT7ZORCOro9lHeOO/Bkf1NM0PfX0i6wrrNAlRqKU0tWM8FsD0WjgYaGaecT0E3Lpw/H2fOXaLpb5Mu101bj+Xl+7Gxvho7286zowJZaY56JMTeANJLorgcx6NIq95x3Hq4Hjdu30M6Er78nfjYiypshyqQxa2MHMiwp3JOKP3Lf+WvxDvf+Sfxf/zf/8fx/v2NfP8RBesbtGX2nea1Fafwn+6GAP4fv/4KAN4BwJXok8QtKmbnuBRbvcPYpaXb2d0thABpt4//BwLgd95+O/69X/ql+Ad/7+8NrnzYCeAjhKid8FUAPAugvnr5csy0kYInuzSV3Rhv1wAwIKsCpgpgosU1W04AQa76CFCVcILMJlmpateXksqClgocIjUPkVg2iUCapJZy2DSlHVKvAZ+cnpuNms2+Ngz8pj2vxiycivhsvgWoSqCrPPb6hwneLsjpc9zd1VqNJo83HAFw7ysSSaFRsezKs0I54qe0tRLtUkDGN3sIAKIVam52Ns4C4AX4swvydTqbsbb2MFZXV2JtZT00dLe3ZP+gQxj7OUJmhdg3rXDV/ajG8lY33r7+fty7txLbSK19UqwZovCRQxaeuBC9BHAC4MmdAP4bf+tvxvr7b8f/6b/8L+L28nqs7exE10pDQTmfrZD8vtkqVFScT3NDAP+5l18Mp+lX2mNxUB6JDZTj7f5xrHcOYsfeHqWHaCRAZ4d8UtU4DeCiDXqWjgi4FsIoCa5TEBNo5jUUguODLi0khTPm/DB0fDitVk9HxzSLB3t5PKAADw47nPcJpuBbyfVSa9XGQQuywqos+SOSTn9E8yOPs48RmpwczW4gk6+xt157XzVe4Z4jcgA3p8bnEXACRDmjXUtO5OSNSAHiUSq0cAcCNPLRusvF7Vz9UbbjyJkr1TiY0J5oxcTEONdGSYer83TTxHFreyu1/YPuHr5DHI+zH3RqaiKmUOgcUChG4KzAxAMJLx9EFBTcGALdalRiwdUn2/XQCs+JqQLWYtb5vzh7Ns68k2hZ6V3PzRbVsvi+ipEvfrw3209ve+rwtd12xt9y3YcX2x1qWKb3I2/4VPfMAezLh7N+27VKTI+7KssRnFfNcxSJNJZ54Hqxem1XDw6RQPDCg0O7xPpcpwaQKQV4VaSKZZ30Gupok5vTdki0HFI7BQFsxti0awOgcqYy46wIZ0fIPX2uC5dUG97a2o1tmmO/200mPVBK50yIBNNJHhtp3GJfafGbsyJs4j1qcqnXxkCbA6nJBCCenNBou5QzOx4+vB+rKw9jA7+1tpZrKuwD4hPSbZ9ru92MienxXOq0mspklfBVJKUGVEqOdh+2ANLZhZlYmJnKddw0iCkpKbKiF0X+bEFMtUXgHB70eA/5S3moQAo631IolYV/bEc4Sb14SvgWepDlZloLMFpRhgC2Mg/9x7lbt27lM0/kDNyXqIh9rOe3BDCJLNO812kqTpCqoyXXAytqmGBJxQmf3JVoyGmHkRWUSjDNHR1FK5Zvgj8TXkEjCmAbRkpc48SxjOR1BoMa/x7cUo6r9Zq2tceCd2c3NtfWY2t1E0BtpBH6npZl2zvR4f7ebjfNFrUjUMq1kXrpoSQTrsRYr5HpZjaA5ujwawNgeV3zRs+1c5Wm6P2uwcr68sNYf7jMe9eQwN3sdTgmbcnzs3KUo9akojtEnP2+ruFgXywykHtcmrRGizUJd5yfooIgFLKSkXNpiETG2+rozctHEHh6J42x5RTELr4taAWywC6AWwC6cB8PsI+6pIk57C+WAQNH8VIls6V1xprGiSOpIC1e4Ini4Y9xYsDUPlNnJByA0GB7ZtxCt1vpgAyxP5FM0HOXQtbh3kNHw+zU5uj3IzgWjAFpeZDS1vF8m+LkqxR60fWkIkWzD6gdefrAmszOfY7D0TNnMFTMLc6P9jrR39qOXTjnxv2V2MSv3rkfd6/fjHvv3YqV2/dj/R7+wf3YXVvl/r0oU4ncZmACILZGAZThUYG02XVVxxrvbSItG/gaIKryuza2YxSC3t+n7C8mDqv378WDu3die2ONkjxMCW2ROoWpj5SzVarWtBhzsAJPhciZ1gBVaSuIXV9sZrIVU/bTcq6hj3SkcEMy8Wyc+kcDytSo0cLY0oAwBY9mnYkyvNJ4CCC72E77jzrjpoIm6OwCtbVTGDnsb3970YIq4ESQEP5sd+bMmQ/e/8ycL7YPtwGYXDQuM98pQDneXlAD+yALi1QUNkfH0PoSuAloEqpPZa2wY1Dy6swA+aFH02kz7tFE2zGuQYurxJgZzlDO9b2UdJ1uHCJdO+tbsYNSsnrnQTy8eS+WAe3a3eVY5fjwxu3YuPcw9tY20jj80Knp8NdDaMAhYD7Aa7PrMqVpCE4F0oxRm94DJLvLlp5YUXiX9zSJSwspOgEgp4mLhuh729uxfP9+bK6vQVuoYFRyFU5XrtQIKbcqME1cTylELmlDm4MJpN+JrA6pTzQb4Zq81gGBpiv+PzsQ27Q36mXo2FjG00mftnI5+ZOKN+TfBdz0H/58nPO6LazAle6pqPZRXm1xddmHPgDz4zjtQJ4YwGZQekGYPi9/yBmB5IskXK5n06O1WHY5qUxx/KBHIYGqslVI3wK4xW+PqMLgJbzMZsuMS1NDEiuIHWBQabP7yvjUUoIVhjjaxx7IezVAf/9e3H7nRtx88924e+1GrAPeHejE3vo23vls+LXN6GxsRR9Q7sOVD+XIADObfm1tlfoqjaRDf0KL4ELQRy5rmsboBwAcoAFebTjGAeh0jiY2yezjVOY2pDGbG7Qy/Yy/dhct560Beke9skUhD4vCVtrZfBfTcVy2aYKwZhzdA8wWoFLYPHmW7gjqYC9Ds1kFVLyYOHgQWt8PXjzxPe0/6vI5RSzOMhUD2VtERRSIztsrhrkloLwu/3+2ewoJTLJORrMLx8VG7PJy/YNCXhBNgOWizo5s5fRpMjwXJqEcNLBJjotE3T/Zj76e5tR1CxLIJErt2+nnucQRqC7WIDuiIoBwnsvC4ig3TPtSmljne8kn7Xoruq/K+Ux3rw+37cb22m6s3oI23N2M3kovRnulgHFG0wmGY9VolWsxXm0iNQERDH6MVqFEq3ByQNqO7GEl/BxgIY32g+5b42wm7OwphkEdnvVejV/K0A0rkKaLju7ZO9Ga4I3wESlUn8qws7ETXeI2si8VGY3pRjNm7ZmgINuNYiOYMfhwyeFWhQEKsMtYqeQ5zX7aHg+UuQZRdFX5tK21ec+ifzZgFnBORSoqUxZtugTshwBccNZHPJyrw2iciorAtnyKL4RNWidJh/30gjgDwxUGPcWDn1Qhhu6JAVzEyegPAKsz0r6I07TwhzNqFKJUzETRVBSJk6lb5EhWP2S4s4hzHTI9AJcu5HpeANlaWkhh7gMw2ePA70p1165VIiSXEtxETBqhBZXWZq49tr21E2urG3DPh7G7sYcmPx6XzlyON17+anz9q98o7HlfeCVeev6leP7KC/HcxStx6dylOLt4PmYmZmmm24BRCeRInj0DNHFUWJtSZ1TI9XNajiNuZSQJ3kX0GpViqaimNh0AwPV0pyZd24E8QbmjBqddQh9a09/tJO1w/d5xpNGkBjW0KK4n7CDMuCvwjI8nN5Y3O3NivFHY7U7DhWsqehZBFoSuKPjP68qkZbTcACFVyqaQ79nEl6QU/JZLwNgCDJRJ82TgHX21ug/9EGSJEWpBoXQSU+5TqKnr2FukDYe6juDlJ0ItPp/mnhjARXAFhH2JmmXyMF5q5GsUslp52/UOyHAlZmruJD7BS8EXgBwAc+ALsBZeQEoxHBVJWwafSUUP8GrPgADUllcKkV1aNNfuazbenshhY8Owy82dgnZ398i0ciwsno3nX3gpXnnttXjp1Vfjha98heNr8ZXXX49XX309Xnrxlbh69YW4fOlqnD97IZbml2JxdjGBrHljE1DWAHKDgtUL2OHR6zWkft3fkeguZ9pGAo8jQVOaUqnqSGWvt5CgjkI2tLklKQcAeBfaskNF24J7d4ivXYSmQaVJeSa1yGk/VNYWGntjbCTnB5rHdZQs8JAd/y5dXahVn17oj+Msn31aBwdYBJ2cOKWr4CLeQodS5UPF5txKPfS+3VgM/TA2IsY02VIqrFTGcyBImmh5g6ZMd3H7YznDf2JXgBeJmfAFwMaaSFnb1MadMlLM9kfb5qKy2t8FpkqYs4ZPgzcBDO9FuH7gszXEK009t7fCjHN1dLIyLZkcLpbvOiuh3Wqn1LPGdgGv64OpAFaQymfOno+rz78QFy49F0vnL8Ts4lIank/MzcX4zBxN/HSMT+I5aqc7OTmDxJyNuZn5mOU44/XWRNrqTjSRpE3Pnc7TTImrBM61eNMOF2BLHzhvj9VjHOC7Vm8FapHA5loFKV6GMnlEtsOZiTXpUrHLgRnzxwEWOHKuLqSCyDVwC904pLLATcnjNpJ4HNrhwigaExWzVJ6qSL/PObBgL4+c3KlQLuzi3MPUQZQolmmWvjjw//DKx/t0nBTALdZF3tqC0pE+R1OVyiLLYje8Dz2s/wT3lKklRBOhckam2ocreJ30U0PKNuS+KgE09VDUbOp1w7loBWiteQKy8H4/7QVqDt9mQSKR8NmJwb3yTNe8beDT6FtzSqSUyy4Jgq5dZihcSq35hTNx8eLFWDhzNiZnZqM5gfKDr9BEj9Asjzp4APjHGq7Dy2/jU2m22MQ3AOp4ezIW5hZjEe9RUM8B+pmpWRSzwawKwOzkz1RKCFOTT+lMTqqkNcpFB8kyvUqY02iOAcfe1jYUotiLrQoA7djP0USroS0aZzbPNlsWvEpgdqeRp0pglTnXBPa5tMAjjx3iLuBUuGyOP8Z/lnN0U5qW2+0SplOZnMZkmoxj6nXAjRJ6bAC7FS4h545FZfSXEaf9844Sldn4O/NE/SHnC5JuwVn4fFn6j4b5FAAu6ENRT6h95i8ZYkBKiLqJhTo4XdvuH5UtLdDsDHdgQU5LnmST8f2+KKhi+X7AnuAF8FIHrrl0v3PIlLSNqvPCAAogLTJU3tvPHgMZjXbFiwuLuZ/uwtKZmJicGmzvSoEDtBLAAmVEuB7H+CPOT7g2apeXtrjc35iYSgndhJpob5tG6IC9BjVwis8o7y4jVSsOQEAVGkhDjzXCy5XKKXTPVYS0s61T0WwxtC+2OXaAZnNzM9bX1mMN7zSgNIVE+uXC06aNo0AeDv6k51wQqlsgK7KVc96gU67UMD7qLKfTn8dxCo8+nFTpYr+AE0gX52djiqP90wrM06EpyD7kvTbwQyd18IpCTRBPkteTlImGVo9uFq5FxbUfPyux3NmfBu50mE8BYAV94Y2oJx4TwHwRwEoIZ53ab5kTRcgEa3Rmvs9x36NuuMIbgschuFMCI4ld9dx9GawpKgw1mmcnRDqDQZCmomh4WbhSkcOUxs5pO7O0FNPTMyhATTT5ak4GRTuJEQpgBN7s8RhJeYw2XEJxKgHOEhk61h5PqVzhWEljcq4hqUu8S4MjLaVOkKJjALRiHPQ25YQzRrNeRhkbraFMWtA07z5bBcBVfhfUYyi5ele/dOmrjZ3tWFlbjfv37set92/EjXffi3feejuuvf12XL92Ld67fj1uvXcjbt66HbfuPYgHq2uxBb9XQjrQ0UIauxdb1a42QKKydFrSWvwf+vD7Zznz87DXz+n+I7RsdhceOyLa61I+jqYVJZn38jkCkEOvaPPXoR8Czi1pLWdkUXRpUbdpKbt999yz1T1ITjwcmc1WiI9Pf9zAyNA9MYA/lHS+GDnzQ6nnWgMugZS0gagjiJEQ3jSQrpkSQzCDucyFoT9W4qI4qDQ4VWgodQVukSA+cDwBrASuKvkApMPHqRjwfDbR8E01/xkkqHtGlJHYZkz2K/PSIkhrGJIN6TiqIQ2afnVqOmrOtJiYjDGkTEUPgKv4GnSjAlUpAboT0ndImo4QfSXAP0ZcErRIcCdJCtqTSjmXcj1CsHjfiF2KAHqMe1zUL++XuiDxy4ZJlrgaugsHug+Fs6tXHi7H3Tt34vatW3Hzxo24/u71uHbt/Xj/NgBe2UA57SAFR9IoyKWh6gC4BT4KGwnz2LLJDE/AnvaP47JFhOqNAGTJicPrrhLkvnEuelisPewbyFN89iINPc+bpg98ESTxLfNM0SVJMcfGdifWN13B0wmnCDmll+/imdNpGIq9j3NPDGCdD40Ss9FjxHv64mU2K2UKyxUWNVQXqxL0nA2LZCx4LRHCD5AESO0GcyTOWROD0bgBBxbUgjgBjlfa2rfqWgf2Mxt+Nqdkrt1v2Q8MYOTF9krIkSujlUy7y6G6Vq47Dx1wbpbYO+HsC71AH6VSjOax8CW8Ujt/R2Jrq+AeFTV87lmhBOZ6di/RDNpPq9WawBraJzgtv0wcNKwflQsrgQnHZ6UbLSR/04EY0qSmn2kxE6zh5K214Gh/BPCcoJwexi7Neq+3n3pBibTXea+7Cjlv0O0NBJvCQyacpSIQiEd2X3Fa2DPoP8NxS67gwzNSQyIGRbFVlcbZ81HIR8M0tA8PJRdV57RPx7O2YAL4CE/GAfBS9BBWUktDJAcs1EfP4Io3fbx7CgAXnSfIPrRomscTChefIl/g1vGDvkkXiu4DrA4F4kyC42MiPJhUae+C3gI6OaApP0AJwx8dKFGppYD4eJ9n7H0AxIbv7joWtEBJsPBJCU5qD7PQR1IR0CbYmRBlwcO77Lu1AA7R4NN7nkABxoQ/0kMc9JE2igXjaYZyLJRNODz3umZuAVTSB2hdkzjXb5Crct0BCrVzgWNBZ38o6Rs7Ia/0gHi0gsQva3BfcOPs+sNPoVS6/q/Dw64X5qqUVe4vk78jh4jVQ9J8XEfg0ZqgF7j7UW4Di2CoAgBnIbtt16jz/fieShJZa6vlIFIu4q0oJG7Zi3AaHZ/gUok0DTyr5JSO2Mfvqpr2Rds1KhbIlgTbh70XT/m8atZCFchyd6/v4zXYz4W3/Tkrmnf5NADO5wpXoCl//D73xAAugvIDMPgvyTYQu1vc2UazQ9KMI7Lwu6L5FrxeSkpO5ggowafEIQFKXPuFAY5dN8mXbb58xAdJjKA0/Fw/VwCnhBe8eGssuaDUK3aThLPKcQ2B6zaD2bcsFx+M4MmVfY9rnR10OrGPAuXu7K46mcoU5304mguEaH/slHQluOr3iByJOOhHkPg54sirbPaK/MmoFUDx/XjTam45VOrM4iaKoPF0wMI1KZzKnwoeWrjNg/3cmbMZRvHdCqnxkjsCufEgCcqwpU3O5bOVsAVCRBRx4N/pqTmPzj7bmWclyiO7MUerVHpoE3mXi2CjkGfZU3HdnMUoWuSnfRHxoS/+uxmko6s9UNyjzPt4QS00crDEsky+qy+e+yxXvOuJXRExM6OIsJmo+aCDF4VFmE17MZHSIV7uLVBdgC0jSjSJvOC2X1B73WOUErvCjg9QGFLyAUpQoF2FM5XtptJ2wOYrt3YShHolJBnpfbmLJM2z9gRKEV7In9LWcPdpAYr3uIDeEeB1JR59rmSzsxcd+KfetcYSxAL4oBdd57Hx7BES/BhpewzndFHqY8QUZxSAlXSYNr5zfvq7aVGiWz4CU5vfXHEnOT1gRimdaE+STkf/qHxEvWjyBZ2USku8YiekpFSkOdPOdeuSXWwqzIlX3OMC9RMdARSjokfQQioVATvB1fJUGdfZ9fUkC584i8bVQ3OLBSpG7rxkC2GlNI/MLxOY/vHcEwPYF1hkRS2Rtygpj5EcDmAgXZCCKfEorGyiidhwRRbKOxOfXFjJSyK0i8gVcbg1my2+5/aohk2Nt4keTqvX1lbBa6d+WvH3evDDg3zO8O1S8375+YlhCt70nJNxSg6b3dDoB4kqiDXO8fzIJZj6LmWK59z1xVzeVE1fcDpTow+A94nbIZLYyYfO4Djkeh55n4U99B8Ad+AtkzIF5kJ+5sNwN083EnQQxG7BdnOCtE6RjlrmnYqpfLOF0uduSnY31blPjm+/s9RFu91iHQc5rj0QWUyf2w2VvWKhROKIcLK8lLppeKMCzPkTYC2pzBHpNg97CC3tXPQKMvNIRBmcx+JMIVkcP/DmZZ4X7okBXDgDGAIY0OFdQacGiHPRZm+hNukdfEje5TWAUEgWOZnYUYoQeRLgvg8ufQ+ic/ELezS0Q201qqlpN9DY08LN5jq75pCoZK61Ni37CdNfHCgwUfK1fB9xTABzzKXrAZegLQE4zR5L+U41R4AMWEEsfJNwldR4j/v9Dufe5zu55v2E7XPSElcJ+ixNP6UxjwxpkysDSQvUJqRWlXI1l5dydZ6piWJZK9Nm6+YslomJZkxDMyZaEwC9heSmMlMTrNBmcrNRAVgonbyE7Cx0ZNLre5/KEe4IrZ3URJozOzcbk+6/gcKpniHgBDelN3jgs12HyO5SPrt983SPvIPKET/jaijG1JKidDn3v8JR/Qc8DLyzU7TxTozhngrARZSLVwoQVbhC8VCqFID1Z0EkoBJcflepUlO2JhLb7G0g9tnX6+9csx8zNV8qhJuCTGs2WHWWsU2uhS5PLubDKblTmvkcYUpflMACWW5oE5uzHgQvEUrlSlAAYsGrL4CLPxK8fhe8p65zPFJaSzuU3vh83nDwo5yr4JnmD6StuXPqmOeAdSR7FQQwPxBnpXB+7Mkh51yLrFFvxdK8I35zVN4GzymJ3WOZ9JPHovOAprzf7cQBLYWBjdoHXHGKExWDDLH+fH8VejJnlyPRS45vi3JInthaOvTrUL16gfmbAsn8/sjn49whWOhTTir1dpsd8I7MCpKFrl14v+PNPUPRC1K9oB364Ru8/pTOVxS+qCEE5lclkgXMqeDNBdxMEpGVp/pCacSw+XABEZsQCBLPkSEAusJ90hGHL3MRP3LJ9XG1xrLWaiOgxFb6WaByXLmiQ7iOXJk4pZcAN5MFgTU5ZxMQN/s0E6hJHwSpgOW6lCdrlr97H/HhOEo8h4BPW2Cv5XeP3Mf7h0A97U9zYLPKgk0pbKuTFZeY8qrsSbHUUjqbjkbMA+C5mZlsdXIdiVywBNqUywBY4ayUVlykEjW+UtHoxyZeKvGogD+Py6ULyCslrTuK5mIv5En24JC2fEnWFlJ2yn/Sy102QaWyT3508FS/2CcRLlmn5apHs8SsEEqP48yDJ3YGXryg4CjGuTDEJpKURAKayKodqzlbS9OTIWr+ThfK6ewAxmHjNHY3Q3hWTuc0lly9EKmTFAEpICMQjA61DqcYDZUJwZA8G5AX1ME8TLgQrggp4inYs3UQWBYC4RUGKkWF4zXEGxCQDjNGL0CkSJoIWknzSDijeCVwSl/en0rIwJ8G7tD7+sL7O97WR0Dgi/5xm0srOB/S4p7Hc3NzsYB33TKTNZxIWnfoGu+QdGEpRusDP3Zms0Laey2T4oVP58xZt2XoInEdXNnr7GU6VNzM3adxLo6iIRfVLwGbnuASuKQjt5sl7UWpPp7j0Sd3Rv+RL4h9uWo3DkekgBwV0YWnIPNDLGmP1DZzaX+bYwpNEFB6gIjmO5BsIMcBiqqjW9nfC3AqETX43QlhdVHc3NfNTNWOwAKSEyuhtQtWWidYyIJCefOWUQAjZSFjeL+v/KCGkwCBrcmnYcgpbYJBZXp7GfT5hDWQAP0gKLlSZLZLQGVXEmFLEzJQsvWDYfGUsL6FQkPhU+mz4XQKkdP8c1NFIuVU/9yQhgdsWQSg3WwOhbfdXFF7D8LW8Mc3HFBpei4LYONB+EJfITIEr1LYCpdDy4MKJS3g9oz/Z7mUpuStFUQJrLDwe/a2ZA4WeZj5+BjO+6QNDiEbh0PKOoHLuXJIIaSSmKkjTx/XPTGATbsPWQ+VFn43sTldhEIxwSOQ2VKZBFP4drO4OqSrl1hQOVzI0U7yVKrgqEpCn7Wft4aGXam7TgJ8FkmsqWCaC/K74O0ggZN/EY7F5scmOAcZkA4ZH3yiNwuWYgTECaIhwIYlTCbmqJmnxsd06L0w+D2PZCvZm6Cz8AXsEUg54n2H+BxVyrDND+NAXnwI0BaMxY4SqFY7/NmrxpPwEmCkSc4uSKyA0iENgbRzdqKn98h7ezTnGn/vdQ9iF9/p2TVVtDQWQ3re6gjaUCfJ8Dm3ieaNn+lcP3iEfC9lD4cLxjRzI0V5agLPJA+aqqQNuCLehG6SBp/TTpsHK2qfo55GSCgUERrICJVbP4bwOM47n9gZtJHzYX32QggGYlACCUpRDcvtfsmZDEgP78yFpmkq82lKcNifmYnG2d/oGr9quQ5KCEpnd3i02XXO296eu2l2Uqkw5VkhqCS+Q1NCK4yjTwkkz3nv8GP/RFYoPz7jOc8o3XKxPp1lMnh3Dgcb5ukjz3ycG/K/0z5bphx2LZ7PMLgucAXosIfA9HvdymOFSSHgvYDI0UfXjHDkrxjJoiWiAms/YGV2idSO5qO9/cxTRwfbTU0ti7UxrH9FeT1yp88/ydnlRTuQZgDOmND+wcGcfSqYI5lH2WVHGnlBDisbd5/j4/kH/tTbbAEUZEW5DOKRAPaM/EbQlNOTV/72GO5x7/vA5fvyrACw0LT3wT7YXD0dRUvwOg1H6Uc5QRmKlXCyy4yH9QJPEFqQwwmayV9JS3agZ+Fa6II3CsNutW+aILXiouzJwJGij1LQZ3Zl5qj4FQB1ey7N8vTC2j4K1Ty91+Sww75b4+OKlDaXyWOtYBw/VCCnCmvosjBO34MXrMX8PCtS8X0IYL3hFukoQJz/h2HjXZlSiSZgXX7Wyu27lf5y02J1oaMcXNjvotCSx+odGvrndKZ6HclpCou4ZhwH/nFcMifKa7/Tj87ObmxtbOUWC7lVg6ITb6/RmGBLAD6GA7wqcSr2qR9ZvraSPK9wKcrGnizL8PHCfGIA63J4Ei8gzKI6AG7AfaHAKBYEakEQdALVZgNQCAwfKxaf5rrKSxYeQCNBTn5UyhQRN5Eu/tcA2GjhSN7dnW7sbJOBFhSVw0mTdju5pGm9rk0pAM7aPZC8QylM+AWk8VwvsoYPmWaTZTkNwaSSqIZtvOSiyUc5H4IuwfVx7tTv+iFYT/vTvytxfW8ezaRTYXBzgtc8Fhf5K981vyyTPxKnA8CjAjzMV4fhU3pRmTXil3i7Loa9MFIJCzlzlcDS57dPdwqeVGWIRLFwOHHFe03jLb3Kq332KueP49RxisURC+XVnhTjpxC0j9dzW3M7AR7XPZ0EtkCo7eaDL3cAw500SycHZCIpz4IRGEo3TrKGCugiK4dT5r1qbTRDtTQz8wu7AjKI8LUQ85n+YBNt16i14JTurlKuhZcAd8l91+0V9FapTBZgTTDwEvncieq53XBcPqQU3a1IW9xhl5DKZUpDIp6SkfhlV9wAZEPwDd3w3GeGXidYlbz2iHg+vDZ0hmX4wzB1yYO9PoirPJsYQCGQS0heAc3NaXqZs6O5bu4Vw/B4pGJKQS39lJC0dvayFF2IWUzpjUVWYL/gjMMHvPUjzrQnL+V94jN7B4hYMfDEdd5XSN7vf/aTnOlVuhaCRKCSFN5tn7qrOMUJ5Rs9NIU+vxb5+VnuUc4+gTNBZrDNjItQu+9uA/HbdM0ujoUNsKaRZrCFBSA1UkFK5OCFTfMg46QQFnA2tTwnZZA7q8T5jM8K3N3dbtIQiyJ/x9uN1HRJ/lab78XGJ8UM6MILAIF7jNc+V3+MFNDomiJWpYrcR1nJq1Sg0D1PaQw4hsDKgh4A1EI4LVHznOtFWor7fL4IswjrNMiHPqX96XvIh+yhgWMeDCqW2r/9rkLEqfVlaRJ83aIvqr/pBAyktehX5k7yVupjrApfFHIh3cy9x3MGtU84epdydeHrA65nDwLpzIGOfAPvzmyiQg4+n+QKoWULRJmTd860eBQvnzel+sd3Tw5gXgr0shB8mRuJOAs5TQFR3uyKMjFGVlAohYvHrMHwNqUozZ7xlNsNt38SsILB3gz7f5NHA0Yt1HpOQUcCC2apQq1qH6iDFpxrX2tfm+FlRSiUxkKpGy1Gd4iTVpwaoqtB6w9oKfZJSXZjnQJZUgdBBZBygIG0nAbiEKgf8n445vPcNwTm6ec+eAfHD64NvM8mtMhbfSqUxNUGy3MplvRKGlHiPOmFUBC8cMmkZRSH0620lbBVU8qlp4iLTwGufEWWyKc7W4MDKnqPlmqPPOlw7PHWAwI4JDTJCXI//RByw0r9yY5YK9yeoSOLnsxlXuPNGFefcZmjmYlWuI6W9CGnDyXPKZQtMIe3H7YAQjEEeZQJNaOLRUAAI0cBa820T9dCseN7Fw1br/S1oFPCAnydBWK3i1LeHo6U+ITt5NEDJQdHDUdcPCX3UD7h/Zz3jvaje4h3A3DOC8nL82jcmnO6Yo7TaRzxcyE+12NLUGeaClAW3nM9ksWMEYyCkt8yHobL96KvF/AqZQU6R4WAeUOCsqVwbWMrsRXXngeVtjSP5Diq/a3faXWyVSGPLAZFiPnq8q7F0loFBxauWXlslnmHhVxIanwWCBc+w9lX1CX+O6R9m7za5T1uQjkcMTskDt6jTC1ag892w0qblX3ovV78/FTuiQHsAxUyoE4htMdOYmZ8NGamyoD5OKpExTXDQAERRTNG8mmwbF+pTY9Kh4Q/R7DIyJLbr6J3lt1whO9plEOB5jQh7ndvM7eF2tzZjt4h9V/pjurrmr32NWtxdgSwu9CLlZW1uPvgYdxdWYn7GxvxYHszVnjOfdKcMLm6thKbmy4mvRWd7g4VaYdC7gI0wEqcBILddNpZaPcwwnGk14kSR5BNicKRAbh2uBrv5Oihn+T8FCGFnSu5kzYjT3BZibpUqj0qWBeQO4TqDqT75Mk+RzeHkd447QjURgn6NVYFhCpsCWi+0xpxex5tnZS4I1T2Y54VSCdjAKhEJdHQ6MC4IzSgaVYSV75Hz6UCUNV9B5XdVmyI36RA5PXHSc190rPd7ccWvquAIFlOpLEcixGzoh7ofdoKnOumcRy6Qds0+FY4pyIZt3wGL570T+ue+FlfaheU3LdeKcX0ZCOa1XK0yPh2jfNKIy2pbOqdiuPOQZpOus9Dap4kMJtME0xYuSyTUojmyu/D7jRrq9x3LzvtXfga5Y1CrLpe75gS3Z3nO9m9s76yGg/vPYg7t2/HnVu34+b7xRwyV5N/+3tvxrtvvR3X374W1958O8/fu/ZO3Hjvvbh14/24ceNG3Lp9Kx64/OnmZrGehEPVmldyPOQdhz2AjSKZ/dgpoQvvcLhKVPZcUGm1M/aobfMhFcMd893+1uHTHudd0t+3spBS90k7kc/ij6U6CaKBlCQPCj3AqUgqtiqmOiq5ugT3OIqX/J18KjYw72b+OfjhM1KrupNInWmNBC/gZAgC2Ts/3bk6/C5p26X+9hW7gD9HM1NcCnzpgEA8RDE7BhOFPUwx9O51PW/kVUMIF1Tp0XdjMfRP654K/PIp50a1aLYmm24S6IIew1kG43DiCb67XkGVKlcCEDTdbvGkomHs+ScVKiMhKjX4HTw4+0yVvhyz75d7BYkd9DbRBeEv5WROmZ1c0g2+N5C0m1tbKRk1k3QX+N7mduytrMf2g5XYeLgWaw9X4sGdezmz953vvR3f/Z0/iN/7re/Eb//Gb8Xvfed34ne+8534zm/+Znzvu9/LiZRrVIgdJLcjXs4/y1WBqEAID8UPApfioSDTmybioqpzdGxcBW+xZOr+vkvD7qXE15bAlYL0DkA4HJ4DBA5KcJ6DEvjdPZeULdaFS0s9c1uwA6C0oQC0eqVm5hWSNXsMyE9XiXf4WTsKt1hIQ6pBCadCipN2PY7LYWSVaN5f9B7ph3AjLMJTGZNsqFKe/tW66FE3BKvO1PgZ/vYs3FMBWBniBMQWktYVZkaVrj0KsA+1P9GIB0426k7qNZo0FIEOhUobZJdMbkVl04j0rjkdHP7mZii1nKipva89D9T6LoUKNejtuTYByiJ8UPDWqChV1x+rtXJvN4dY7cFQMvYp/EPuP3JPtK296ON31rcA8Gqs3H0Yaw+WY315Ndb5vga4V+4tx32Affvmrdx16d133o533nyL47W4f/tubOZST0pkuTHAQSIVQKYYALMbiR8A8FxRBwnY3xfwe3g4OwDu9eXv27GxtR7rG9KYjVhZXUv/cBmqA+XxfI33rK1vxgOv0RI8hAatc21zG+ADaumNylspJbEVSABReNly2YKpMxQQ+kDKKaFzFI3KRCVJkHvdBz/VDZ8vzr6PXnidH60Q2Zrm5/Hc49/5+O4pAGwNOkl7XY3YT1xMZLsXexvbse2eXztw1f2TqI6gEbuMEvxWCZVWarzNZme0jPTQ/M9d0XOjF74DanmfGaaS55ZSO1twVXsfoCBlwmtAUQRxrhOGtu3EyPGJ8dw5c2J8PKcSORLl7Iyc+VAICLipTbOaOsqNlY2mHxrLd36Glxd9vvBVKoDT2R/efxAry8uxuQ5n3t3Lka5DjVBUJAGwsyVy1SCelVoIEmmO67CpcCplc8GSdQALKO/evRvXoTXvQGvehMro33rn3fRvUlnevnY9rl2HzliR8Ddu34k79+8XYOb5rZ3d6ADCffWLgUvgDMA6hJgreuY2DA77ej/fi644WwjvK+4cPvtJXlcooUr274dI3uG9g8/jO5W24vOs3FNJYIRvrv/g4C25Gl2A1kPabaxuxCrKlLNmtd911ZW5qalclbFS494RmvkSTQ7KX6UKDQG4SmLB6wDGsPNfruwY/+72Xko7QVt3cT182W4jyYQZa97hfabZbsWM5odLizG3tBCzi/OxcPZsnL90Oa5cfR7/QiydORtz8wsxOT3D/ePEqcH70d4FPBUH+kblgddS+C6yt+vWA64RTBqtCEpdR7w8Ko092oq6VEC369atVGSk//ZWJzbWt2MZ+nIPKX/n1r24eetu3JTGKPHv3Y97ghPpe4+W4B6S+CG0ZQUJreTdgALpN8nXDfwulVla0beVIW7Zu2PaU/oWCm9SKn7T1PSQNAhEhYG0LIfoB46qnMdH8Pvwp/iN8KjQWrzxhxtWkVPO4hx8nsQJ3uItz8Y9FYAdKq5XRqEJUAGlF02sy4XubroHhftObMXxfi/X75qbnYizS7PRbtvXexRgBkWM5xtUAKQvQQBGpTMSGQphv2cqbw5c0DzbT1Et2+eLMuNYuhq2UhBJ6nw47YOdIaDEOLZFIF5u79peAsCXzse5y5fiwnPPxdWXXopXXn8j/QsvvxKXrlyJsxcvxBlA7QIoxZ4UAlmAKmEPk1en3bCliER3BoVMvFhwkHgAXMG7D3Xq7B7E7g5a+2Y3Njb2Ym11B0kOVXiwhjRGKnYKAxxNCt1/Ti/P1cSzBG3KilRz3Qm3BatTyFTkBJHGO+SHLZ0cfwDOdEpBvApv0RUoby6ktN1yUovvowC4IfA++UOZSFdULqUrH+tU5PB8iicexz1L6BbuqQCsM8qaIOaiJgBK/uk6ZhbU5oZLha7Afbeo/UfRbFVQLvBtt6lC0cC7ZZWzB+TTNix2S1kY7ki0Y7cZUseWxs55wWUXm828yqCKneug9Xini0UrlXLCpf28hANrjH1oykmV55yhLMdut2N6YT6Wzp+PC4D3yosvxZUXXozLgHtpYTGm3HibFsPF+OyXzuX+U4IV0t5BA8E95vq4AM4eFovOymS6O3uuR9yN9bVtWqGtWAfAAllQH0CpXAxcULgmhN5FUty907V/J2mlpqanoUKzMTU1nRuA+5sGSvZAWDk7GjPtO5cMSkU+pWSl9gvQYgST8PXc7zVpkWAW3OlOYcffP7j/I34I+HxK2uX3x8XnZzijYFDPKLh0Twdgaz6ZqiUXeRdONe84QU8jcH5z5GwL5WlzbQWpvBojh33oRCMXeVZp06gDhsWnj1J/AB+2sgNOlJ6d7S2a7u1UyuxaU7Ou15FOgNieCJUR+zrln72DfnTR+PdQnjY727G2uxmre1v4jdjobsXWPi1Cfy+2ULCWCfcGvPK9u3douh8i2Xpo6mWAMx6L584A5Mtx8dLFmJ+djRlB1HKt4SZAcS+KomWApMdoVgpaA1oLJZQFrORL80Zoz+bqeiqLHnt7/eTf7jKvjXMN2uKu9Utnz8UZ/NkzZ6g8CzEPpZlCIZ1qtaMNuN1fxJXja7zXnhcrib0hu1Zuu+OUtuSzQEjqYxyouD1nTpMXB/i+3YC0IPa5FhK7gI7/LXRtsT/WAzPvEfgF+P3m83h+//6jbnj8dFfEoPDPyj0VgHN4k6ZP0zcj3wPAfVqcI2dQUK4OJ5vhSshDmvcyGlMbaTJeL7rWlEaHJZroEooRABbMyDH44yZSbD3XaUDeAlzB61KqSGGaRKeR1+wfRTI4IOLq7ntUju3+bmx1d2K7h8QDsH0Kcv+E8AD3Br892NmI+9sbHLfi4cYaPPRm/PZv/Gq89bv/PNbWlnM9s0bLVdTHY2l+NmYnkcb1CTh5O0bHWjlDxOFc1zgbqVPb9FXojJ0C1GC3BLMftusq47Qe+7s7MYK01MjJlWxaUhok7OTCmThz8VJcvHI1Ll68HOfPno+F6dmYbLRjnPypkz4HicYAbBUmoB+Fa0tEXVOhI5AJsy9gk8IUvwkJh8X7I4D4wDWGVXyhGt4jTwdoPPIBcJyB4kyNj/OCeOiKQQdo1IDsWyaOgVLEea99vdl68nlcZxwe/+7Pdk8F4AQvIKI4c+TFWiuXBWfRBHCNhiNJSEszA6+lmdPiizluUAUKQ1ngqJJ9leRF9vna8+DkQaVsve5U8vEYpznN5fUHQ6k1eyLgiEbd/tmDrsoLhXUMXzsaib3OAcrPXty9vxJvXns/fue7b8Y/+63fjn/6G78Vv/+9t9D071C5DlIhXH+4Eb//u7+fq0JaIVyYZXp8MqZ4p7scNXPuWYN3okCmRxobj/RIYeNOATqc7ILQDqwo9WzaGzw/PT0V5y+cixdeeCG+9vVvxbd+/Kfj1de+FpcvqVCeR/rPhku1jo251FQTkBXyz/ywJ0bKJBWwOyz3zaNSOHslB3+EErjKJbpEBM8IVpfw2gfYPA5/TdxlOaRP6OQb8AWYPsnbDWc76cDE8BkB7JZhw6UTvDYgG4/pHr33Wbmnk8AkwAJXErqkfls+h/LUQlJNT0xkEzw9M5UjQXaIq6A5NUY+m2OQ0gCUMA2iXb3cJtJNT7bQvN2v2JGoei7QNwmAXELV5aLGi/V9AcbImLMTAHCXcPqlONqL2FzZiXt3luO9927H7/3BW/Fbv/O9+LXf+N34p7/1e4D4nfj9t67FNX67e389rl+7G3dvrkCBatEabcf+Vi+217fj2H5sstdBGtddyG45JOgI9KZcgQrA2yt4KZD00M1s9I6K7SL9tSRrjbdjbn4+FhcX4sLFi/Hc1Stx6dKlmJ2Zj0atTdpHUcYEZhngjwG2kdiEajxYhTdvQ6GcKkTrtdeDHkFLenDe4QIuItSZ0yUAOgo67Sp03becrj+owGnySBqEFT8X2a0cOfV5HDcE/Wk3BN/QP6krCMyzdU8F4BwRoorLv5qA1iX+XcNA79KmroPreri5/i08VRuD4foQ2QRR+gLX6SMOdOxuu6zoHgVwDNd1gQ6UGwDrMlEOVPh9anYupgCB3V8qZi51Wimjrfcj9tDyN1GattZdGmo/jg5UvMZy6FNJJNoqYw2k+Qwc90xcvfJSjLdmY3sDrrjnvm9UMu1cqTy5Ug6SttGqA1YkLM2yYHXVzZr7PjerOZxdrgJ1h7QlQDlRk8pIRR6fgn5MTXCfG6SMxNr6RnzvrbfiN3/rO/Fbv/Hb8dvf+b14661349bte7G8thEdKo1SU+Cub8HZd7u5c3uHVmIIYI3AdcgCAMubkMIqzq6zYc+MZqpOXD10yJ6f+hwJNm0XCvByzBAenX2WE+iFtZzPPBuXffFg5tmF+JQAtmZbOBq2u+atzaVbpbrsqMuGajFlzXfJJdexdcjUWGveV0NitxxyRqq6b8RBZz/6uyocAGkU8Lpwtcv7252keSBNuKurT0ygqaNgjaPwtCYnYoJztwxoNNvZBDfh1y7LND05Da+ci4Wp+TgzNx+Xlhbi4tJSnJd/DrYKmJ2cj7OLF+LM4kUqxwRNsxWnWGW9isLYmmhHc9xtrlDe5PQAdXQMaee0dbvpALaALg0ArKJUhSJNAF4HVuzCstfgwcpK3Lh9K965/i7A/e349V/7tfhnv/qr8Y/+8T+O/88//kfx67/5m/HOe9fj4doq3L0HcMkv+5M5uuRoV4s46IMuuxmhLK5KL+1KiAEGl4QlMuEGLwK3ADD4ppCkyCmJff6Ufzw5qLx8tjIzl6tV8R24YXV6vCr18e6pAUxepZ2tq5G7+HOZAlTJQdQiENCcydyOmrPr2WYHey8NdVJSI6kcoTvsImUAr/2paeEPWlyfN5ftd7gYUE5PzkBH5gAGIIaaTM3NxRza++K5c7F4/lwsnF2KuaX5mEX5mp+bjSV+PwO4Ly2diVcvPxdff/6F+NYrr8RXX3gxrqD5L8I7pycmYw6J/gLXvvWtn4hXXn2dSlKErZ+cm4n6JApnuxqlBpQBoI6QLm2XCxsBJDzUIamEwIJmTExNxcLiIi1EO7u9dvd2kYhH0Ci3F4D2kNMOM+85tLy5Fvce3o2bd9+P67fejRt3b8Z9lMlNR/Go0HvoA4X0RclFEbMHxlnBbr8lLVO6N3hPhdavRF6OVGqxT4sGowpUAiQv0hhAF2rWI8br/ycp8MelG4/rMh5kBNB4Zu6JATwEb1fpirar9nsMP7Sv1dkPeruZ0goKSeGUeEfY5FP2Irj0kxaI2k70djqA152MuG8wo8Is02tVJY2YnJiOtqs2tmmWkdwNjpOATwlcm2xHa6YdU/PTAHgaejAVczTfC5OTcX5mJl5A8r5x6WJ884Xn4+svvhCvwEUvLCzEAr8J9gV46sIZ7vnG1+OVN96IubNnY3LBcFsxAnCjDgg0u3OtC3JqxKN91yTAj4tm8z/XsBinVZghTI+OCk4QhyXCPp8bzCyi0JEGaIl94u1xOH0bxbRWiu5hJ9Z2VmN5YznWtrcBcTfpAwKYFyLtNZRSIUS6T+JrhFFrQ4dmZ0j3fNTROU6QyoJ3l4rjsqWu+qjRee5alE12gZji/zCH/8W7wiZabj248AzcU0ngBDCa9/rudqxsbaRxuBJK6esMCBe6tudgEjDNIRk1ti4MxTXqcRDCZU37qby5OHPRLQY4SJj6tTzY5lzu6wo0Np1Vl42iMlgx6m60ghQaa1YAG7xzRnuIyZjifdOAx72JJ+WjVIIJKsUkFWeSSjJOvNq0EtpwuEukO2gKNvtU6xwb+BIV8Zh0OIPjRJ5b1VjQwZYCrOj3CeDQNtkjkbaHxL7qNvTBSnGVCvPiyy/FIgCe9BpAu3z5fFw4vxhnz0BtzlJ5lmYAvKA0LVReKIqjbA4XCziV3rmFuZhfmI8pN5xB2rpl2KjxIf8PoC2j5IX2xDu0cJsdpLt5TB6C4exdM5wheAtpqi/+f5r/Qbnsw3+W6MU9OYARwRrXqBRvIS02d3ZyCyw3uh4jbmrt2hY4SqdkFYBm4s7eXmwgYbY4yvf6JgaAaQer1mwGu8RTHbA6Rcn91uyNOEKJcjGiA7S1oxIEr8ydgMd+u1oD7msfK5K4PTWe/NPvXq9Q0HJRIedo3Ul/LyoH3ageGk8qHKEew3iOSwcojx10Ivim14iPxoHaXKjQ2f9cTElCcQX4LkjnPQ5iSHUcpFCZomHM/m97KiaRtlPTU9mLYS9BHbq0CMW4fG4pLkF5zsPLz85LdQDoNK2Hq05SWSda7vs2BmBrsbAwHmfOTMfiIlJdQ6U0j4TOkPcO2/cGI38bG7uxvrGVI3SHmnJmbsnM5eZFzuoU6PucO6vC9R78Xvgi/wtfXPvcEDsdwKnzlMCW++C7zupVVLGnc08MYJlU6WSMzBmFQhzHNiDW3DD3zCBmKmp2oGu95WwJpe7W1lYsr67F6uZGbLiRCdf2uT9XttFOxg5MnMPFrnXrOsBKYfmmq+HYE3Aysk9syWbBS4qlJy54bbfVBJJ3EgncmmpFlSa23AD8DjYAJlfQOXBl9eN9gHtIBRlBiRyDjkBt8DAXjlSeCh7JW6zNJWWg+ea8ImeDA9u6hEe7BaFE2i+44tAIvN080bxUdaSYLuTxKAcF7Cp0AUD30JuiYs4T30XpBTRmCSU0Pbx8YQpaMzMRS/MTKJq0KJMNpDeK4QR8V+Wygp6RW7xSoUjOzk4v7t1fzf7ujc2tnO1ip6+tgpXe1sL4JDj4J/U7HPgUGqSr8J4PvbTDvughsB5J8E9z3j8Epa1oyhd8CjSuURKn3PDO4TsK/7TuiQGspLSGo3rFHhm2fXgQHQsJfioo3TrJxeA21zdjDdCu47e3NYvsZee8ksrulPR87KXZR4nLGRcA15173GBlxFnEvCOlitNlLDWUomIN4SMKU5NMgVj0GiiBJ2emYhaFbu7sQswszcUMfHaWJn2WJnwSftqemQbkSGl7GaQMLpcEFam4RRbeLbEOyX2baDUNRxy1D8jNU8x3B2CIcIXv+uzj9xpHW5ucTcGzOS0Kye1eIWUedEPyBhWuaaXjvhaStMHzNe73fKJaj0kowiyK6rmlxTh/9gy0A8kLVRpSB4GkOaXz/Pqkf6OzGw+hb8tbm3BfaFkOL1tCz9IJj8eH1xCMep8c+scP4cndUwDYpggAU2odzneo6Dv2Y/aPY3O3F6trSNvltRyU0PZ2bLSauwV5HEFqI6ezeS6aXUeynJQJRaBgRpFsI6MVQnds3+HTo2I5I1dOP3D1Gd7sMCn3OwfNUT2VKjmo3V925QnQCZQ5exKmHBZehEMKhtnpaCKl65PjUQPANQBsD4H7u7nfW065J6dVejwWNGHQ46D4AqgnSLlcipUWxtHE3LUeUCV/90Pm2IpoVed6xgRJ+vhdaUxcyyDMoeGS+cJ5leeqUAz3VZ5D+ZO/uxr9JMdWbqfgLBUqBp7sSQA7KVX9Y49KDTGKfVqEYyrBIcds/o33D61T/D1b9xQApkjIoz6ltcf3jf5hPHDodmUj1jacMtOl4Cq5JeuZxbMxN+3yoBMUSCstubSn9aNks246KFJMnaG5sqDkmXwr9lJwEMT1ILTo6lEhkPsJ4MFESwrTuVlOSXLp0TF4bx360BpvIpVbcONxzpG0cOMaTfcY52Wua25ZRZNX+g7B69yyYvstspjKY+wcKnewRqMlwZsLhhxQcVAA3CpWMCuR7dmUNglgWxiVziYVqgmNcanYuob7pMsd6d2KV0ncorVp48eRrjO0BGdnZ+PCmcVYsndhAGDnFWZLRb7YI6G3W83l+Z0kqhDpE1EXjpYqZaXDn4aJ50/0ecZK1mlX0MFh+Fa0T/KP754YwDoLeR/64GIXHUjVdvckNrf70dk7SNvdSxefi9dffSOuPvd8LC6giY9PJafN9Rso8GITwwwIWqEmj2QWvEpjuTHSROsqAZw2ADm/rFiV3L0rTrQJ8IhXm/R8BDA5bu9aue5iZHk7zFsaQ4rZPw0fPnFkbXBMwxxtM/gkb0VC2isiUF0yScqQ1nZISvf8UNKmBCbudv15lPdLJWxLnKmhVFZU5uwTyqFWcQ+3Sipn05OtmEbyT1JxtMqbQeLOQXncvnWB1mIRP0eFm6RStalUTghQGRZPSl8aHFocKncfquB7eK+DFdIG7YZ5JTcqEIjHKRB6/kQ+PwXw/f+kgPo0l+BNuTUEql8+yT+ee/w7h473Fu8vMm//sJQ9EqMjtZhqTcdUczJcXdDdd9rNdgJaClHQCCgCmZ42tBqkK3n9js9tYCkwGmX4nNswIYGRwrlajSB2zlnOFoZOyKe7vez5CPwx3/UjRCSX/NdToimLiOcxQNbQ/UQLsjrABcS5oybpSJNB4uP0I9fRFawuYG0Tr3e+X3bKGldAfNTrZ6+L4C6UvHIe7VEzXWknwnulDTQK0WpWY5wWYRLQah+it3txQrBytOtvHGC3GvUYzw0LUS5Bv3FJBSFxRKXmq0ZLLranFVquV8a7HOp1uSfjJz5yzTc/pPupfH4KJ4j9/GCc0EsgfYx/fPfEADZ4Db2LZNJsOQa/T17jJ5tTcWbmDFKpEitOmny4ksbnzlObmZ5B+kwAZLVpwCNuAETO+KWwUqtH6ihZ5MAayNigm41OlykWxXYum4qc3BNJCWBHAJMeEY1EHkhmh1+9h+dsLXJtMQA8guQNAEJzkL0Khi4r1yhGPntid6C+y/M9QApgysRPcGfnByDRqOaI90gd0qaDSjc0ts+tDwjHo7zd9SO0yqtqCMT73Wa2DueWe9cd1IDKNAB3DeC68o5mo+6FoRIobnIipkfzAwQb9ih1aUxyk0RdwlK0AHopj+kplMmn9QWALN8CuubSs3FDyD5L9+QS2IKksLK287ir7qgBd7r7OSdOLugm3EoHJzc6KdIJkO6uc/HCpbh48WJMT01nH6k82C6nEqIqp8CoMHHMyZ0O02Yd8Uhm8s6cfAkwC38Qhw6MIBEL77leSiEQBbvdWQKYZMI73eDbng4XyRsuZeXMBqcN9XZ3o7u9G/vO8uh0CJuKQGUxvZovFlsoFPEQWGmNx7XiOqKWSpASkjjlfmqk2UpqHvlbGpaPQDtoDTTSr9Ia5OLdxscuOjiLywQkVdLzfqdWuSKRg0A9Z6B03AqMCsu7ha6r02s5ZxxITXoBnC0AWffI+33oP3r9I989wTkq6gBT8cszcomZZ+ueGMBGwKnzoycAQu5KgbjS487Bbtxeuxdv3boWq73tGEXCaPqodZrLP1VG4IIocxfOPQeQL8cUSlXRxURGuT1tFekxpokmUrPfQ5pQ2PxuZ5q9F2UoCmoa5wKOQkUi21PhkEQfoLjMvobydvke5XAU4dESlMp1UqnEt5mngLk397cgziNOQYJfpxF8cm0XjS7OISqxW0JZsjOTCpVrWhAbV8HMGRq8qyx94NylAvatyMSwd8Tx0F6DGgVGRT5o4OtI+TIK3FEOoowe7adCV6bijOHtjXAzmf7IYewc92ONyrS2tYNesQdwXZF9jzDc5GU39qgk7jvNBaiSSw4gII75jQ/qLuIA6kJlcbXHR97vQ//R6x/+nrsvUcYpjQFxAetn42zFiq6S/PpM3JNLYBJUNFxCC3pIlmkXsYn0WEby3Fxbi/eW78XWcTcqrtozMxGtmfE4ptXehyhqHNOegvPZC5CSsGhe07oLaaunTuAADAUxnNqS6571bJ4PkEqCzZEneyoKpSZnKCTIyHBbXj3PpFIGR9QIu8y1EvfwUMFlu8B0v5dh5f5v8iCAkctinZCy3JUTaasySIugAY9rWpSRnC4DRSiZB/YXH1tzSJ9xHq48aYvhDdmTwPvNMZPmottKc5W9nLvGvU6h6sDxc/V1h9uJo9LctO5DiTSW38M728QeEwdK3PrW9w21e96W+VZI06f3Ojdp15rQHH1W7nT4z8o9hQSmEIiFVliO3vTJwC5Z1yGkPfwaTfvdrY1Y7WzHAVJ1JO0VGlFuVeK4chI9gL131EmOaxjDtXS1wXUmQzbr9n9m8yUw5H8UDlIzU8/39HwpLNiKCmWcdDbxmecChvMxStXp//a3lgHLqIAGJCp/Q858jBR2oxl7UrMng7DKeUSJE5QClRdolSZ4xxrE1VE+oniUElrQQDmOyAkk4jES8YR0xon7uPUIFwVTLS+dkOAj0K145Jd0odh/rZsSt6iggBqg2verNd8e4N7jHhc8tNrYlWkeZlYUwWZhDr9+XiflyfAN+Bk64/es4qh7YgDrMhIUqHoExR8UV+xyvouU2iTR6zR5D1dXc+8GbwaTKdkObaoBdn9vN0fmBKubcztU6lpeyYEFsEe8M3JLNNOpmtCkFSuwe0xVRYya08kJyW2OgGTgk6fbLAKAMbygPdrbi0Oa5wO47iHc3F6MQ6TwPvF1m9nsjjtyWJzn7QHhu9vOpgKJxEv+6hB0TR5N3Gg1XG/4BCldgm4cQqMOD/YAU59408TTpHt+bFOf0rJQSHPgBiCmcprSV97cS4XXbQNcQ9mK67oMu8RvfXsrNnZ2owM3dnFuN1cZLno9hJdl8oNwzzbcZ1sZdE8FYGu98kQp4MJ0x0jMfQDXI0O7xLGLIrV2fy1cuqm3hWK0Q9MHp9t+uByrt27H+j0oxsYG0saxJJpU+2oH4B3WeJvdBC5R9DxHpDjm6opDD1BtfgWCQJYyZH+TyB58PwYcH3jBKG3gmH3J0IgDAazUwx+gKB3bZQbg7Srb15aZSri9uRF7W1u5AXgfsPd7zh5BmTL38MSCuAD4pCECt5DkVHF+hFoAfiWuBWjqbE2kRTnjwXdxPCQdqagCXm8tVss8hDbAy4mLRlBd7rHFc6An8x5f5Nazd6qCxeepIPKxztRbIfSf7rzD9w7vHmT0B9cexenR2RM4JUnawnLMtX8JRqmhxHBAojRSzYU+br1/L27fuBfL91yLbDXW76/G8q178fDOg9hcBxQUigC0l0GXXTiUiOGnGwC16KMslEa/I368m6RwTkGDFbwFT5OHF8QenQDpELR9xwc0wVpsOWPXHgY38T6SR1PZ+rv7OS2ps9ONzlYndjf2Yss5ag/XY/XeSmw+XIm99fXYWV2LzZWV2F5fi93tzeij8DlS6FpoXSR6ridsBcg4ESmOeW6d4pj0ZuAEsPGxx0GJnIt+g0p5vIM7cvuuvJiK1uGosXtXukGFcMQwdwoSEkXWfVDUz9JleTzjQB8vnt5hGUsjCyr5yA+/F6F49kTOIkhmJGASNAQloMj8UbT8sRG47mg9uhzvAYY3b96Ld+/cj/cfrMTdtfVYoSncRtr17C+l0FRQXHEmBxRwCeZB2VtfBa3Dar7nA19EYgBcPDensidw8bnFLGEOF6Tuo6h1kJoCzXUT/O66YWkxZu/pYTm21wDtCtr/g824d+thXH/rRlz73vW4/uZ7cevtdwHxw9gGvKv37sfG8nLs0IJsb6zHxuoKQF+hRdmh0trVRaU4MF9oTRKQZA2AlO8WklaKIIVQOdtP4FqJi0VIpBgDhZWKIN/tkY6tDq2A/Fj6QQa4nMBQmdcP3eOB4/HcQKY8s/B0lufp+D4L98QA1gngHCIYSBmHVKtISBf0s4ttj7ZtDcn8kMK6RkF/j8K/oz0wzx1o+TU1EY22e5+NCdGkDumUtANtrFDGit9sxizcotIUv3me4DVTBgVfLAMFeAUJhZ9AQWK5Rm92k6UGz3V7GoSA/ahjtZhsz0AbRmN9ZSvu31mJm9dvx1vfezfeBMDf+4Pr8d6b1+Luu+8BYoCrhd2DZYDuapcPY/nuXZ65E+suqbUnj4UKHBHnk3KC+OgQJVThqmTNuBUV137ijDNgzEIl7aaxUOzkyaSB7/Y4uLBfR/pDmp2oSXD5TLGbkQ//d9c9FYAz98jcoltIAKOxw4VlrBaKXWt7J0gOFJdNRNAdpMeNza1Y3uvmtBdUJe5BN98/ib4zD+2/5ZDoNGjaXD/ANL/rrDLAlIL2upxTCsN1LiWVASAfcEsVMECb0g2KcAS3dYTNIWG71RLgck0qm886z6w53oo9QHIbMN65fR8qgeKl7rVHGla78d41JfI1JPK7cf1778T7SOUb7wLu6+/F++/fjLu34fYra7kooSBNYOqJp3TLLq/s+qLyHB8h/fEnxFEz0eFvUniilXYmvZP9XGnH2S6uHVwAmopgZTaf8ZJg6YkVucijwj+ZswYM/Q/WDeP35HH8ZPfEAFbioW7R8CK9kI5jdiGNAowRCwfJgdQboXDKrujCBz08Bxt2+0exRRO7STO9vrIdm3DknZ4L1yl1kCQIRKVqzsAoAU5BDBgFgV1QuWk3v5X4LUY06KT5TUklYH2W8gTAucOPIFHrh56MIBFL3cMYA8hjSLIyQC6rAR1BS0ZqUWk04njsKCYWJmL23HyU6tWcsTBaGos6XL7ikAr3b20doJRuxcNbq3H3/fvx3ts3U0q/996teLi8GhtrcPqdbegLFYV0WwFJSXp7KTzuH9kj4UjaIXSLeJlofrFCymn7pMcxGGRtDko4PLHdR/lFcXTqvMsEnIxqw+FACqUAgDX1TPgN2/zHcrZqj5TkR774/sgRZor4ofe3oT997Umdzz0b9zRv5yF7BniUeAjSQqGjyPC5/VICz2MKau4jc0YdrKimIbnDuHK7vb6rLnazmXQoOemDfxzTSylO+UKqKTkfeSWo4HZQwwokhRiuYp6d8fJgPcDJldSNFHEmAbyjBIDrUdUGd3Exnn/lK/HVH//x+MpXfyyuvPiVOP/c8zE1vRC1SgPlLGJHBQ9lb2dlJx7efhgPbq/G1pq9GiOx3yuhlI1SoUlfuU58BRwVmAf3kaLGL+MojfDcVoDWIOkE8bO/N1eYlELobUmIqzO73WZB0kOKP5R23Yeg8Fi48Ca56Cf7Dwfk+UdB+9Frj++K8J+dMwZP6Gy+kBtkoJlc+IH0BcjZXHKNmCIti4EKwTtWrcfZ8+fj6gtXY2p2JvtQY9QFOJxC3kugD7uVOCmyKYEL+PNIkFIECjUpQ4J50EQnIKAMAMXtsT7kM04EPshzR9NybQfe7/w17SPGGu0Yq7eiPTcfX/n6N+Ob3/7ZeOOnfiKuvv56nLv6QszMLEW90gbE0J5dlMIOcTwgjONyVJCEI66yc+KqllNRr09Fteq+dTXeKYgHeZJxHuadAzRFHgrypAZ6WxOpQrYsGvMfAuA+4EaKq8iSgCLtHwbxkzif+Cz//S5L4xO8bnj8dFeEPawkz8Y9BYCL5hHWlsDV8DzBjAdOWUDDri4nIbrWrYtvjFYrMTEzE1MLi1GuI9GUqGUKlBh091GwAHKxxq3AkxOQ1AFwPRYJz9cXPh2FqGQCILlrkB7QpgQWNJwfQGcOoTMqcFxJapJ2qYPeGPtSVYpGtcFFEremp2L+wvlYunwp5i6ej3lXrFw8FxPjs6SnRhy5X00KClKBYozXxmOqNRdTk0sxN38+mq1p0tyI0UoxMFMoWqSTyuZav06dUsLu6zl3NyABqgTOnopU9jgCbBdHsYXydU6RN57DtJtyPx9ygnpw+snuUTl9nPf5zw7j6VwBtuEbTr/t6WPwxAAugk9UpX/0es9gUDTLw54DNyKUS+aGJfzcdCHpJuBF8ua09VE4HdSht+9SSkhhpZXgywIseO8jSYPP4/DVA6mcb5YnEyt8Ad5CKdJnUcmhrXIaCg1ArGWJdg5WAO8fTXsMIjVGq9EYi8YktGJhNqaX5mP+3NlcEWis1uS5Ms+Xcpbw7OxCXDh3OV5+8ZX4yldejXO0MFIkpXrGOMFrHH2LOuQjAA/tN1yIz/xR4trdpgVdbo4OoLvwdWlWTkzleYXEJ7nMp+Is/3+S81fLa5ATH+MN59PDeFo3VPqLdmgYk9N+eM3j48XhKSTwIHjBWyDpUVT4Kt/NUTRKzgLJdXMP+oi4sWhNTOVqMioqx4BXqaxpo91Z8j0eJmCyT/AqiZMvCmqANqAPBaC9ze/CYpB4wCtYE5CCWEns76Zw1F/4bQDcXJxEACfA1evtE1HpROUcQYVDMa22xmJith0zS9Mxe3Yh5i+eBchL0Z6ejKZrPZxZistXn4tLz12O565ejstXzsX0/HhUm6i3Tv0fSHqLq7ApMJ/sQSh6EcBvAlhpK7D9bn7lipvw4i7cd8dFTtAViq4z85rEmMc4qm/xsQwGznJ4HGessmJ9nB/c84NwBD9s+HC+aeiH7uOufbp7KgAbk3wNT5vojJlucD15K0E7QOEi1PI9100bp3kerdWTdjgXbRJK0QIMTp93UY/cyTy7ueC0Kjg5GDEAsqCmlD+Q0nrCkTooeQsaUXwXvLlbKLREkLqfmr0TDpokTUlq4fscSOhybxcFr0sd2MfbU8D5yH7AAmJyuhlnnjsbr/34V+Mn//DPxLd/4efiZ37+2/HKj30lzj13PubOztGqILVrB9EYVym0YveRllYGMpi0KbE10jdvpFsCNo10iI+mkdKSorVBNmV3IEohaXfDmL5x9jnzGErySCf4MHifxFlmg2r/ff4HCeKij0NsPF28P849HYB1p+KQYB74wqVsyOZIpSOjnYqcm1WPAqiTXGFnem4ml0vyN3fX2bPAUOgEWu6uk4VLKEknlFKF/6C/dyCNdSp0Rbcb1/xNbg6A5cDFqJejfz2a5WL18jTHtLvteD9OAPFhbw8FbSs6uw4Ru9vSeuxtr/O+XtQnGrF0cSlefuOl+OYf+lb8xLd/Il772mtx4eqFmFmYitZkIyamqlEHyKVRexS6SNDdHPGz8ihls39cD1odYdNnTwTXkvMSbytqbk+Ldw1j88Hcg5MluIqekwK4hc+Uf8R/Pvf5Q/hkl8sTfF9X3edzTxySCbRBdG+MMtr3CJr4UYzlJtBmMldi7MReYjwi2jymePJNfquPVqNaquYKM+ON8ZidnI3J1nho/e++xIprZ1xkrwKgVMHRrHBoOui7syfCyBh7CjTPfRMnObGSpli24Gu1H84dNfcBB6DQXqG3txX7vY046m/E4c5u7K/txtbd1Vi9cTdWr9+KBy5/+nvfixvf+f249dt/EPfe+W6s3nwvdh7ei87GMuFsRaVyTKsCz0fiNsZHo1Qn/JMOce3w2kJx7B1p20uloQL1HTbm++GRoLYfG1YLJ3d/aVew12Lu+Lif17tUuu1eJ3bNg0zWMSxL4oEsppUxYUWLM0hk5oD+MeHHbZbLp/nCDcM9HX6BgEf+8R2NUWLATxpugRlDe9qWRPcUAC4+RsLJm87MkNvJJE26TcRw0WXvMYnIwgSkmwKWAXtDEI+WoymNaI/H5DgAJkEu0e8yUL1uB+6M9g14i+1aAbSUId9cuDzKCZ01gHclHZtXP/Jlu6PcqmB7Yyu21rZic3krVu4sx8qtB7GsgdF7t+LO29fi5h+8GTd+7924ib/1B+/Fre++F+//zltx6/evxd033437b12Pe7/33Xj/t74T7/zzfx5v/vqvxe/+s/9f/MY//v/G7/3Gr8ft967lXiC93T0qBXG2R0VDdHxOCxpMXrVFcBBD8PYPewnmXHsYIJYArPuIOErXh8LsumVCnxbBViRzEKDD451BItfX5wpFQwB57QncR8H6UV84y5jwUxIMvZXldIUZXtMN2a3H077AheG2mmOAeFgBizj7f3j+NO6JAVyksIhQ4flvDRrUIuuUnxxg8Ig3iVmYSKEPtkflo7WT2w+4SaG7dVrQuQ9xSsyCQtisJoUgPJvcTGy+qwCzNdkwNYKXipyOi+/c2tyI5fsP4g6AvfZ71+K7v/YH8eavvRnv/Nq1eOefvhNv/fO34q3f/m68DUiv/cHbcR3pe/PG7bh9u9jTzU0H7924E3euvR83374e96/fjAfXb+NvxUPCvP/urbj79k2O92Pj7mbsre5FdxMg70JPOqS+h+TUuGegsH3gzR/TRNqyS410ClaN2d2G1gpAYkkfQoH02PDqH9EHPL+Z/emGx2fobPEeL9zhjQVYP+wHACa+i4uu0DmWMse0mz7veHr4Pg2AP8sV8RoAtwCwEdQYxZ3nBapdTSbCO9xqy2utZisN2OWEDg+7SmMxM4FmVCAnrUBJy9CKdwhmAeyMjpzFAYCzaeJ3pXdnbzd2tpC+q2vR30FRcwBimxZhGS3/Zjd239uNtfeWAeKdlMxr91Zi9cFqLOMdHr57fzluAmT31bgJiG/dvBu3kN53b92L+0jzB/g70I6bAPjmH9xEegPoa/dj9dZabC/v8E74dZ8Y43NjRAUWRWZFcx9iM2Go4GUfCCDWcKe7rzS2a1Dw0qJx1AvkDwEY/4N2RW5/fmdUL5yfj9mZdtSr5Vy/4xG8n959bgALohx4GLhsWLhWNDADKUlkLZjV9fXkPa6J4KxcQey2swKwXq8jUUopeXMfOD3PqMg4O1dAFsPEhki4w3eYArvFyIXsd8Xbw7ALHXEQwGfcovbKpavxE1/9ifj2N74dP/X6T8cbl38snp97MS5Moog1p6M11sqJp255kBsY7p9kRbKPdhuFa5N4bCAZl6kUy7v47e24t7YeDwD68kOONx7ErbduxXtar3333bj3/t3YWdsuZkkfUtGIqDYkbgmgBZzD6q6F4W71w37ePlTCUUklsD0lAtTFEvNDsv9FAPa0K+TjM3KW+3gT34hJFPgWaabEozLwti5JOkkv/xOYiqJP8sOYfX4A4+0CMm+HtTXBlN/5Z4TwctmHKw/hfwe5mqSL8rnonavoKIUFsCv3FDMRUGUEssC1R+KAAuW5HJa1qUVKZ49DfpJRFZXFdw6UOvuXF5aW4sWXX45XX38trly+EhcuXornLj8fr7z0Wnz19a/FN7/2rfjJb/yh+OaP/UR89Ss/Fi9deTnOL16IhakFFMupaFWaOdp2iIK5T23bdzRs6HmZvQpdwN3rEScNk7Y7sba8Fg/u3Ye23I/tzc20QXaI29bBUUl3WNKXAK96g9I3KRb0yGFj576ZR6ZLipDT9i1Q3peFNchkK3DSqR+YIzOfpSOqIwiE5lg1xsnLCQppgsstfmjwLsGMag+Y8eAFUfKp3oF13ecGsMm0mcvhY7+DZCWuLuHFZcElwu8/fBBbO9u5jm+jWUtFpNgSldoIgN0fY9TNWZBYSl73/XUbWfcJfjSHTA+lGPRM2O2k9x0OpPhOJ17aPbd07mycf+65uHT1+VzRfKzZjFKdprs2GqMtqMzsRA5OXLn6Urzx1W/Et77xk/GHvvUz8RNf+8n4+is/Fj/2wuvx0vnnE9RLc2djHmDPjc/FwsRCnJlaxC/FWfzS9HzuyTE1Pom0r6GojMD3+7G9txk7nW0q1n7aPruPR6vZBsg1YunyWaSBvLMHx4qwhXRXAps2MjXzVQ5cSOFCSv2Lds+uiiDOOgeAtxoNCqpBwC3S08Q/OpYG3u/xqZ5STPe5Acy7yGiyNsHDV8Boj4BS0IvHaMgCzPs6nV6sbaznsqbuAUfZpFfSuDKN26u6D5w3W4bZd5oS2AEHZ1AcpyTWK/XtYnMYOrei4tz+U0oc6V6POmCt4RvjE1FHSazwTlfmOawArjL8eLQfnbH96Dh9HulYb7RjZnYhLl24HC8990K8/vxX4usvfzV+4rVvxM+8/q34OejHv4K0/oVv/Wz8sW9+O37hGz8Tv/C1PxR/9Os/Ez//jZ+KH//WN+Nb3/pW/PhPuB/cN+PlV1+IyblxqAGUwIERKqvbBZTxaclHGpUjxrkPTemZRrvGMj+KZtQ8zZ4VTnIaPp9/Uc6ydLrYMwOwAW33YvyYigzsmlxokqZx0jTOe/LILRPcN45vcz4Oij7JD9ccfkoAfzhZSlDlrEVSrO0wCNYS4Kq/SA22u524/t715MhnziwBWBoPbrWXwWdzXzbABznM53yLo3E9mtbc+RNJ7NTz3BCRa66AI1/sDQY/lL6O6rnGRLXhdli11Pbl39pcuEbafgnAlI+iO9KH127Fyu56rG9vxtbuVkp8m/p2y73e5uKM2wVcvhwvX3wuXoNDf/W5F+PrV16KH+P42vkr8dLi+bg0OR+LE9MxPT0BZZmNcxfPx+UXrsTzr7wYVzjOLEyTHNMi0aG1IJ7SKaWsrYmmktvwaVewd9g9pW8Ct2CCgr2ALh/zU9owoA7+P+2fyH304dP+Q+7ZVZrjnb2oUlkVUTWCde1+zxucN0CJ50pXaUWL7x+VukPvfZ9LAss4c+EP5IuGMEPTRX9xpXKXShLEjvUfHMnjakgZ7gaM775/Pe7dvxdzi2dianouXBh6DCltb3KzWuxOVHYMtwSVQKBq/OKySrs79g0LZpQ6R6ksbMIbkVo4AHJ0QNPt+495P6XgVrYnxYDCvhZpqkkq/tAHV1w/HhsJNwfvAOLd/sNY3rwV9zfej4c7t2J9/37snqzHbmkrupXdOGwTRpNK0OCd1V4cjAK22I69EXxlJ3aPCaOzCWXYio3dzdjs7kaP1qLSHEdhnae1mYnR6kns7a/GTm8t9vq7VCo3c+ng9zjfJZ96QIUE07JQv6JeqlDIroJGEZGuI5cUKhEmX60OSuojhIX04xCQF0PVFuene4mIYTqZ6+N9caeTCEadQDDoYz6N79P+8R20EAE2OnKIoBqLVsNtJCpRRbCUaXmqpKNBeuoc3VfH765qP/QNcJW/EznBr4jTGdcncjybvnBFMhwVSsdLlWDVsWLdsULtKPixlEKeuraxGX/w5psJ7pkZeKldYEptfnPNMNcLs5vJ3oZhn2kf4LrXnCu/O5PZKTYuAOKAwZEABuRKpWxqy2r5cFxSmFsTAKSBikf89ETE/nV5OkB2FZPuIVKwuxWrG8vx/s3r8c61N+P9G9fi3t1b6ZdXHsQKCqhKqOcPVx/E2vY6QN1Ggm/Ew63V2NjajNX1NUC8k3bRxVq9tgZVFFWUU+LRO3DlnQ5Sd+h7KYE7OXAj9z3M1ij72+zZOeI7FdO0aRhURL04Jnh4R2FUVeRzkbjh+cf7Qq5/svdjOEbfLLIxdR0KbTGKIYhHR3UO13MuYvTpzvjun3QjKkcxPgOFnBmP+mQNelejtayEO6C6sWQVX0MBd0FId+t3e+Gie5Rq94GXshbvNFWf2znUOQxwuMqOklgjGzOlSKBKSyB9+vHOu9fj2rV3ua+OdJrICHqvIbnUFF8BsIY5WUxZqFIEgSuQXcUmu9gGU9Llw77COIyS64JY7phDzvwmiNPc0sLgqBFSVmEohdsKVOTL7XZyYfebuH3zTrz1+2/ivxvvfu/tuPPOjbh9Df/u+3Hj+o14770b8e5778fb16/HuzduxJ1lgL2xltPeXfXSdYepTTlIMXTOwevRCu11D6ArnVjf2ikWLIE+7LrACvdacQtje45l6ZhrHisJ+Y28yCzCeRxCJs8H34f+WTizHhlDieAJdOgFstc85jl+oL9/qvOWUYhtqUW2j6MHtCt8B7gTgHiK/AfIFXdBbfG93QLY6C5urdbSwg8dBh2logLsBpicuw2FbvR/hcuzx3Rra2vx//qH/zDee+fdBKfsVVNxl2OqUV3nnZ7Dy7d2aVoBmoaKyEgKAypBTosdV8xxo5WL587G4vxMrrNg8+JgRQFUmlYKWbsGu5GsvzzOuZUCSUE4Hq0zqeRQ8C7rn9twUXsFgBJXQVbksNKkkC86vqaz78Jb3G3UpV0dgvZCbzAEvb2+GRsonTub27G+hsRdX49V0u+GNWtI3HV7Dahornipr0+2ozrRRGF088HR2Oc3+a5Wcw5S7Hbg3Ts9QNtJv7m7l3lkPIy3PTGuvSZnli4ULQfSDyQ5kmfcsv+bU8FTCAbBwYffMm/z8/RuemY6/vAf/YW4QcX81V/9Nd5RKHK+XqDqzdJ8SXrKg4uf9taXX/1K/A/+1J+M1btvx+z5i7Fw+WpMnDkX02fP8f1CzOkvXEy/cMnfL3G8jL8Ui5efi6XnrsTZq1fizJXB+fNX441v/0xcePFFKu8Tdia+/c7b8e/90i/Ff/t//wckrZglsE9mj1IMUwDshbmFODe/FNfv3Inb6xvR4S5XbtSeqqKHdzbJ6a+/dCV+4Wftf30xOpurcevatehAD7bgunfvLcfKg1X4LS2OszqQyu45UVFBA4hSjYZr7VLgbkHlNgLjk+O575sbvtTtokOKy/dkfK5snnvR8c3MdmBhOGDiNJ6kOPDoQ9d0QNHobO5EFwB3kJIbAFapr5SToqRU5zjarMfYeDN9hQrg7JMa8ahMNpEwKI9I0O4+4NSkEyA7ELO6TkXY3Is1vFuU7RDuMfy2OeE2t7WYaLWgVgcAeyt2Ok7mdEYGwO/C1btwSKiShk2H5HOfYjskHtRx4nYawJ/PXQEc/7v/+G/GP/lH/yj+07/1n2ZrdewkW9ItUoZoUXjkET/mIE02ax/v/uSf/TPxy/+X/3Ns3L9Jfkg+EHoosIWZAJWTQFPYfOCGqSiO+X94Cafwmpybi/Hp6aeXwO8jgWVN6ta0cWTgMQR7JGYphMnxNpJmOxfkcEay22kZP+Ogd3XG+anxWJiZjCbc5+K5JcA5EhvrqygzauiHOT09R7C4VxKivHH40cSaeUW9G0hi3pvbCSitOc9+6JTSBWC9z4eUwvY7uwl54d1mS6mnYb09IDWkOMoFaZidX8h+5JmlxZhamI/pOfzsbMwvnYnZM4vwOLejnYhys9jdqKwCCpjLVB65dZ+KKmg14imWbT2IlfVdANwBwLsAmFaG684NdJFrNzB0Q3Q3TKw3xuCF0CAEQ4rbE2rjESLAikd4tnqDxqJIGhVU+DzisE/vhhL4we078Zu/+uuEyXvRJTKv+Z/ed+Kpe4Oj7//k9yqB/8Sf+dNQAicDTOOnoj01ExPTs3Dhudx5VUB+v5995N0be+DdpbVqbxXuk6vNEzrSkUlwP2Sb8yEHzmaQt0j2HTI9AlRmhwMTSr7VVZrllZV4wa1gv/JytFz4pGpBwnESrIRA5VCZy9pqiJwLilTsdndjc3MztrbgkrluWS+v28Wmza8AytV6oC0SBvul5b5lwq+3Gzl1qIH0rk/AtZDe1emJqMxNxjFS8WiyHrUzs7H4wpVYosVYfPFKLFy5SLN3Ntpz03Cyeo74Cd5RgFeDu7lPHeI480MCYNztMdne6+UuTps73diEPmxxfkBGWHHsG7Yo7BoUEROTrZhzF8+JRsxMteLM/GxMwQfdjyMHjRLUeI4m5wNg4Z+Va9OqTFHBK7xjFP7gyvDpqTU0LrkHnEf9s3zvk7pnBGBlJB+k3ANowP/jrbfiD5DU7mpZiIii/trVk9o5IB+j4OWvDkrcf3AvVlaX47WvfzX+e3/45+KFF67G7OxM8kLKP8Grkx9/MIRM2J6r0LkS/MbGRmxuAGTAvL1F86/0R8nbdxkpjYJyavtBelfrKVoOCkBq0mgA5maxBRcArk5NRAkQ0aZHbXE2yvOTMX5hKWafuxAT5xZjYmk+phbnkQQzub1sGxqjcX4dCqFUt6oUuyy5rFU/bTK2t6loAHcHIDtV3ilDDmBICXrEzZWDjO/u3k4cHvTQxEdzf41J4nCGd11YWorpyancAclCy54bsnIIYN2zApLhNKmEM1SscV5SQdBUeI/VbOjtbtMXVe9fnnvydw8waTKL/gVneRWSoAfQ3gZEd9Hk15Gwe4DMW3Md3zzyLUHNi5WCgEfF68Hyg/gn/+SfxFvfezM39X75la/kJtlNmlbnlgk+u8sKGwhlelEZslIojQUEnHKLd6+trMUO/LXHd7vZXIG9f9QF/BoGEY4cDNC4uLTxKZbFGo1qDR6q5js1GQ2ozTTUYWZhAW6NpEUTHm22otyCX09wD6BtAfJpFNAZ9zJenInxWYBfL4ezPA4cZIFPZ/+1ituuW/Lupp1z9qRoLsp7AzCSBABrxXT61FH0AbirYlap3DO8d6JOK0GlmKNpn58lLoNeGmlTdlWa8YMcedTBVeTx53HUn2hXS9EcLUed/Knl0mG0rpSkW48NLeQKzaIAksD/JP+Dck8M4CJCBSDV9d0cq1hSlPIg009HNrOSgkoFA+8OQK5KQ5uOVnsU+ydKnj5gLsc6FOCf/rNfi1/7td+kud3P5rjWphmHf+XkTAJxNyC5rJJ9H692bh+wkyH7FPquPQdrG7HxcDU276+kGeUuylA3pxN1s6/V0TY3HHfPN7fQctHrKnFUOTxBpJzUtZOwb9LdlSqAx77pWlqNQa5jxI53SreKdKyP16EfHinWGqAZIW1UFMRunDhqaI8DlGF5y60BulCFESSzMzUAKhWxT7ztD97cWI49FFlnjBx1j6MDVz7e7sdUpRFzTSoNnL5ZH4vxdi1aDSiLmW3TNMSpGQyQC3Hx+cGrqwJeGiZoy2GMU7q0LVElj9yXwz1MCiMssgQiDOtP+4Wh167Ba3oHIZTUPyj3xAAmpwafR25YyxzJmdHaqFaLcbuVqLGwNvIUkCvxyFzv86U2gV632bTDen5+LqXj9777vfjd3/ldKMEmygxSEW5ZaKnyYKXwKY34g9CQP4BBQ/gOkncTIK8J5HVoBRVDTiyNkBcXtAIJOQBz39GwfaTjwV6OhoX7MbsXgctljcKf7Qjkmp2BbpXt9gO5BQHXTyhcZzDrnWHR6fCuzi7eDR83Y319JZZXH2aPgnvVtaiUFj4pISy5vPHdiw48votS53rJLrnaRYHd3dlL6eaGh82aHfsllONmKsgqTf6WwldJzvmzge0jl8IpwXkSk7wj/XEpxjm28a3BcWjD0B54iBcAPknfGBwF8Q/KPQWAP+qGTRmJ5t8Fmr1vX70aX11cikmkl4NdOVIH6IScMlrrKhcDVOEbK6HwIAXtbWg1mtFutbI/WEXN1dvr7hVME3rIteHSTMmDpRLcI5Ll0oJcEDuw0e3Ci7fdr3krtta3YxutX2Dvw5f3bd4BigtVd+Gbez2Uv/5G7HbXo9uHevQBYW+rOD/YQVru8t5d3os/7ABed7ZHAcPvA/g+fjiJc29vC4m6jUK5TgVcje2dDeKyS3NPQTYb0SRtJJ84F1OE4oRKgMQeId62CDnZVDsJ0rgH5XBbLa3bBLA76NWQeq1qI/Muex7snXBExmldgKmo0M/GSftcdajOeyYIeYprU0R5iu9TFOf00UjMHo3G3HE5JilVbRce+RPAXHgBbCX4QblnAGCc6MUJIrdQfWF+Ps6g0bv4n9labDpY+KzZoyMo6mS8Gi7PugaEu1+qYTfgog4jugGM4G254bVtGU7AJgfOoxIZSUZGDxi2WOaaU4+OkYJOJ9qBE6/H8oOVtNNVudtD4evuuv0XwLW/dVdDng1AtwLQV2N3azV2PHJtt7MVuwC839tEMm4Brh1A7Fw9KsB+B5BrNL8b24S1uYXyuMNxcwPpv0p4Gynhi5XcAQNpGqN1UvJqZ+DecXV7W6Qo5JMzNlRIN4jjljsUbWzngoEuxq39QxmJ30AauJ9yG0ojdMXFkMwlkPO8yIvP69yyqzVWL1pSvitN0/DGI+9tnhS0Ypz3tnlfYYBT+PYAxENvqn9QztR+TmfzXrCv4dCt/EyK4IBSrnoDSOVtuew+R7PXPk974VXOnIUs+nKQIgcuxhLgznVzqDmHprme7wC0SmN7JASrSXAdBYRzfteW2BnI2k+kEkVzrHInrRAQbm2wC9C6e0plmnpBvAOwt7ejg/LZgXb0NjejC/Xwmr91AXIPydrj/m5Xvwu4d9OCbJtwNrh3U9CpvK7zLrv0eK8G+cZPM8oxAKwVnpwRFgGAkWz2MrSaALMaNVedJP9UWKU72nq4XOvG6iog3ksAjzfKMT3e4FhJgxcHhwryoOcsM/cZFCnO8nOv5zY8f8zFWhoIigGhLVHxStQql0jQ9BNqj5KHpP3Aa4zkyGzxXWr5g3LPJLVmXzqbcQBmprrr5BioTQmMxJHy+jJBXUXqNAQlifeadxlIbsxiIXPNXYqc8NlG4rTaSHOeKVasKex/tWxzAqhAFdDqNPLBbErxficqcdiDZ6JMbQEspfCKi1I/uB+rKw8BNcqe0lLpjKTeUvG7y7V7NP8P3VJgM3Z5TsVwV4Ajud2FPyuDPBuKsoJf5r6Vhxvx8ME6AAbgHSuP/JY47tvKjEWt3swMkE7UURRbgnGyFVPjrZylIIhNY1FpJ+G602mp16WSuAGN4B1v0Vy3qzE72Yw6CHZPPS3GCnVZXl10MT4L5w6jzRaCpF2KI5nPJDRmthblqVqMTdSjjIJdoiLRXEYFnm7LWXcwqGrriafCKohy08pBC/2DcN8H4Fu3bsUv/dIvxTe/+c34u3/37yan/Cxn9Gy+5WB2Cclha9omoLHauJmpBYAtTGonvylp5b5U0Bwhc0usnPNmBQCAhqmNg4bukw4ykEEWbm6Kgs95dzyjxNVQRh6cuxrZ2T/wqjoOI3tPv7Of9GETCbzy8GHcvX0zbt94P+7euJNLpW7cA7D3N2L77lps3cHfxy8jsQGnkntzjSNgXuf8IdfvP1gr/H0oCuBdW90GvEjmnX3ygGw9qfBu3u8I2tEYcQUIpFceb9eXcwJbLfhtwz2lG/Bbe1SPAU09FhYWY2pyClA0wsXDq4BpYX4yLpydi6vPnYlLFxZiZrpJGKRQpVOruwSwlKrQNT6vG6uisE1XozmFAjlTi+oklYx3VsapaG2+E3d7iWqtBucO4IzHmDNqas081jTEST+ei9j8oNyHALyyshJ//a//9fhbf+tvxW/+5m/GX/pLfykeUtgfdmbOaQ+AQdvwm0OdcjklrzBMhsoPqbzpublBDa3j/S2HWlOCFrxWfpvg5T79GDV4HBrhxthuxWWoAiE9AHZMPRcuQTrLfV0Yr5h2VFQG9UfFcXJmfnfJKS3Z1P4FtF1vO2vwTkC5enc5lm/fx9+LB7fux/2b9+LejXtx5+bduPnejXj/+o24dfNO3LlzN+7ee5gzl1cB+NoafHVjB47dIcwutKNL+AB531GzwhZDg3wzKndaAmO1SjnqSC8r88z0dKatWCoLGELDrJC2KMXRvvajmED6Xrq0FG+88VK8/tqLMT87idQ2zKIcFCKPSuKz/Ke7eqsaU/PjMbM4HdMKEPvs7UJDErkNmRVLkwDX99BkNNBXSijh9pV7PCE9I7Q6o812lPn+g3IfsoUQeL/6q78av/7rv54Z6UyBP//n/3zMzs4O7ihsIf7bf/j/jPffuQaUinp/iFh15oNcp1GiaZxoZOGsrqrNH+cWrC6n6v1N7r0wMxEvXjgTbbvIUHLkcoriAXmgQByK9qjkJsOQvIeA3JkVbvZXLMck94YqqLQd28XFR2Tgs5cC5Cr1eTwBnCFTk6QolrdxsVLlrkCOiDk03dtLftunye72UNLsqYDr5tw8bRc0roHCuHuQ+0Pnsqi2ONrydjo5cKIBvjOZ3WnzUOqkstZEWiFNlY3SFpezmpmBPqjojo1Gs9nKNKxtb2W8K1RaWx5tMyo008OuunKdlgvpZ5NdqbXCLRq2t7WPprKYLsIv/BCgXiu8ynMOOOVVzz7eTc/MpC3EhXMLuQn59NnLMTl/LmbPXYqzz70YZy5djbMXr8Q5jheuvhAXn38hFq48F/PPXY7FK1di8erVWMKf4VyrsXMvPB+v/eRPxgtvvDF4w7N1H7JGEyS/8iu/kpJX8P70T/90/LW/9tdicXFxcEfEO++8Hf8+FOP//ff+fgJhn2Lpw8c0NGkDqMVKPV6lmbtwZim+970b8d7yVmxyH8Ub9fJRLADgbz1/KX4cKWLfpspRiSZQoOVSVMdjSGn4llof17UvltNuoZXfuXsPinMndrZ3bW1RbNCVeVCpUNGOlrA1CoKRpBLiULSGPYatUlghTDn4sFAF+0laUXmPhWoloHgJwIIeuqLAqSg84iqRsnxXjNREUjDnZohdAA/f3j9ysAIqZbCCd7wWC0vzMT67mNZk715/Cw6/E+fPzcXS4jzxHIU3NqiQEW9de4dKvxbj8P4Jmt+F2ZkEehMFanqqGbNn5uKYNG3toAvsV+PWvd349d9+M77z+2/GFhXbiaHmh2lQXAxdkd6hM/7C+XQKHzmt0f76f/I344/98f/+4MoPtzObP3ByzJ/5mZ9J0P6Nv/E34q/+1b8KH1sY/PrImfQPeaTYAAZIF80IkX5jjWi0JhMY+SFjc7aGRiLTMygyNitmLRIQiZozEfjufULGT9G/zLMcnT83OenKLvAswpEDD1eZdAVH55Ppux5prp165LHbhS4goT7YBZPXuAumr8sjb7Nzz3V/R0rOBkHNHqHZP+VTsz+h0AG7zxWzpqFKOcWpeOcecdhDADjK1oMC9LnRzVoMP4MfRQqOHuV0J7nrGJWeV8YoIPc4tziHZDuXy86ube3GPenJ1hacEqXtzJkcwnYE0kGR5XU4+/ZqtCdrcf7ifJw5NwvAW1RS8s7sI7+LSlf4goAUHojzndy1xfsYn1LpC+Q+BGCd9rV/5I/8kfgTf+JPxNLSEgDKHHnkBulL4A68LXcqadZ+AdzX5M+RpwkkostW0CxSMHKmhfn5OHv2XHaN2WNhx33OPKbwfVawFsCV/ylNCkpg5TJuc3NzyYnLaOxGxq47Z/O6dlpuS5WS0d2PkI5IxD2Vt04/tnf7SK5u7PLdnUTTkAapBw6L5xLQFq7SCS9XVSpzJGpIT8LM7jmoDM93CHN3T6pBZeG3Lq1PnwrRJ0tznhqxK/oGoDvET2WrWjlBMUO7b8B/nd5fEkrHaVx0eHIYZfLExbG3iaNby95bXsavANpeml/evHsnbt25Fcur9+Pu/RukZzkmJipx6eIcPLoeE61y6hhqG1lrMi0FgPUFeMlTygq4fsrni+O+D8Cf5QSsSpkVNaUuGWamqaCl9BRALkwCiOq1elo1acQ+dnIQTRSBqxcvxhkoSWVMazQAJJ+E22Z/MBLGzHtUafjuuwwfqeuAhnx8emoqlR53kRcCuTQpHhyiAKnk0cQfAKZ9pGBKy+MErYDb0Ehde9ztDt+1DHOPDvzgmFI146SEVSGlEvgsUnx3z4rQy3B2Oe7xXTvfjqDmHX3S7DpnxWqaw0baeAlgJK+9TkjfWk2TUwFWVGAt1zZ2nFrULcBGep1dvdPpxjvX3ovvvvlmXL9xA9A+iLvQqHX0kB3n5K3d4+5eTKFw1eHITaR5TSUrIfxxJMKjzm/UWCXPx/nBXV8E98QA1hV1XG83mZqpJIGrppuCsyn3fM5ZEhRaY+QgFlq1+JmvvxHf/ubXYm7c5StQSpCqTjUazmlLz79TtPxDzvulEXNIcYdlLWRBbHebppy5cDSVZx+Cuo8I7HPM5aEAce6KhGTb2e4WsyLWd2N1fSfWNwZ+8xGwt+1JANz67V3AClC1KpOKdLv2RQPWA6Wy7+DcisL3oyOk9TEAxIsPK7ojxo5qaRjUqjosXM/+bZU0Jyj6PFGOTWjDzffvxBZxMG/L/KZOsMn3e3cfxO0bt2N9eSN6OyiyxH93YyO2Vh5Gd2MtylQA11oYI6AqtdiRM0e/ilVsbAttV4aefD/l/X7aC4hHwP/hd08J4ML7sHJkKI09et3hzz0yeLI6FovjzZgeK8VzC+PxkyhuFxeQni4Vyo1K1Uq1MPWQ02aY/Mt+XHnnR5yjcU4EnZudi3mohPYFFddYS+5n0wjPo9BTSYGzuq+a4BDQsJTsIZAqHHKtB+g6nQLUe3vOmHCNCekGIAe02zud2NkBxEpcvPYVmkEqYV0Gyq1ye1lZHD0jcrzLKk0jHhVND+HTFUBYp9I59NuuNwBvI1r1FmDWnoF0j1QTXv3+Sdy/b1/zVtpF1ByNhHrZD6w13DES/oDK09vqRmedeGzsRQ+/u7IR2w+W44T4tgirBVxz1RtCRS0EyEdR49y35HQuh7DTa+dQ2PKa+6e9154KFP+S3OcC8NAneAdH6UQJibq7uRp1ON7lpdm4vDgev/DTPx7feOVqNOx4P3QLTLu5SlF1Og+FbJ+tnNiFPYrO+O93SmYN4F13YnFxIc6eP5u8OMFr5VFqoYSVAI+rP3quYpYrQXoOKJQztPQF3dDzL42AALS0wVUxc3X0ftGXnH3HPHVoxYA8SlHsxrOrzMpgj4RVz7ZI8I7xf4zKU+a+Ot9bZYBVruTC3rUxAFlvI4GbUCbicEQ7dFJB+vbi3j2HjGGpVC5NT+uAuG4FGKsCvLEMc38XmgOAj3epovtIaSpmCYpTIaxxwhfEddKkvUIdadLAD6VxleagMvCFbQOtAkfPT3uHHBRKXxT3VAAmj9LnkAOFaoaXOSYP5pcSICxsCbbi1Zeejz/1r/3x+IVv/6GYQmKOANJHhu3ACWk7RuY758sVIdXws483fx/wOLUOzgS5o3Z2iQncMyiZi2eWYtrJfUiqYu8MlD4qgMpT9gdzfMTvCJdrRt6QJT7FslhIbC47CHKQwFWpwwOmBDnnOYom0AU01826IgSB638AhfdYoWUZb9BSzEzHEnRndnomplA8nb3h8lmjVCQVQ/dR7iA9Vx+uRw/Jf4REN9Q0GPdIcySQKxw1iDqAex900BWQ2CNUOEg3oHYt4i7gq8SkFWRUw3MtwASui4O4WAjcmDwsbHQ9R3B45C1DI3Vpjv34qsaZ518Q95StBQXKfxUOZQ4NYoyfcCTjNblp5DX4HtLmlVdfi5/8yZ+OBZr9sRINGc3rMZp2zsigYNxuoDHK3SfUf0eukCYOULhR9ihhlk6Ua76HDAa8Fu4Yz9VQgibg0vMzU0hjFbtx6ATJKSMvRw/iyO1oS84x6yOFtel1CHcwyueHgisRlzKSrYLSp8S0EuYWCcnpTWAB+CPtgE/2qRCaeYJo7tWUMe8lwApxEhByzTHe06yX4OlUsLNzcebcUswtzEVFu4IWz9TsmqOy2nMh117div72bpTgIVbCEmkYxY9VXehFRZgKkZKTd40CbBVC3qO3FiSo9/ZSWZ5uNaArglIpWwC0NVKJcfwE6Z0CuFNcbyPRvZa0g6ODT3XSXPUdpOcpQfEvxT1xXAWA0iEtzCxAgmgAhBZNtBqwc7heeP5K/Ny/8nPxkz/7U3H2uXMUXiVnRRyNAAD48DGc1bUPXIREg5V6pVZ0t5HBSsJ04KSYvFh8taFOQ3YLz+coMA2GJicnkMQLce78mVgAyK12Pcpo47KGkVGqGIWvYYqeMkoJrs3EKDfohWpKY95jZmT3HZ/ivbYEUhptDLS/GNCbQZyswkWNOyyGVSvlHF07e2Y+Llw8A8VZjJn52Vyoo5gFXcrp8/V6LdPmehM7m5tx1OsBUDl+sXxAvQGoWtUYn2jQ0jS5v5KrHVUIo8KN3tPWii0Noow3/Jb0jaMozzXrMcN9k6RzggqpAfo40XTRPL+7rOk4FVBj9DbXit+4PvDOqFAKf1HcUwHYnt2iGeLIBZWCFpl6fnE+fu7bPxV/5s/9yfjjv/ivxvNvXI3RNrKiBgCqyGykSkmiNUYTiDSxF8GFPBwyrTWqaOYOJiRsKBK7ooqpR8MOdgHkrwiTBLFhVGuAeGoiOfGZM2diHmnnypeCRGVQ5TAX4DYI4mmPhcrj0GdPBhVPs8B8OfcU1WRARZJ2KIyHYC6uQzDwtkP4EQcoSrEwPxeXn7sUl69cRvqejamZmRyOdSq/4fIPxbOZtg8qoCnR8cNKZstSR/FtA/JxANpuN6OloU8NWQptyvhzz/T0VLz22ivxxldfjbPnFgE1+d+ucd1dQ6upNE/yyknyZ5L727xasLaId5N0FEqei+cV3uva8LYHv/9Ic2AfUFOtCV6Ogniq0YhXXnwu/oe/+Cfiz/25Px3f/PaPxcSZFjlG4bYo6vJBHFdAgQDOldkEIT5Homjy6mMUgMuh0hAjUqgbCVwHKASSALZnKnsbKBQEBa040tUmFa80biOp5uamAfJ8LCKRnaIkkK0cStTcrovCKWA0dJwBiuF2sHCKIuwEcEIz3+93HvavAHH+UlASgavEnF+aiYuXzwHei3HuwtmYnp3OtQscSRx6+7qdjSIobT0C8PI40lV6gGKlBRgVWRPL6fE2VKSWpon21OQaYdpIkFalsjO3f/7nfy5+9ud+Ol4g72fclHEOSjU/EdMzjZiYrMYEoHZF9AmoRZNwU5JLMchjB5aqevKUS2lfbCuQfNus+YK4J46rYLAZrpGRE41mPHfhXPzxP/YL8e/8O/9m/LF/7Q/HxatnowrXizoFXz0EvP04Abz7J/BR3qbELVdpTiksm3onSLogddV1FZA8ud2rI1RIJWcku6iGR6VuSmSAIyvNawAbIZregnUK0uTkeCwghecXZjnO5BSlYnQPcIrAgfNcn2aZglIpb24MJGWxaF4BcMEn9AvwGgbw5n4nPrZpts+em49LV87H5asXY5Z3arxjxbRCkFkJd4eySQDSDcDbs0Ck1QEaNfSFXK2xEm0NyDm2ODZoWdzFqUmaNIjPPUDwjmBqknn79i3idxQvfuWFeOPHXqUValJp2jF3AX3g0lzU59tRmqIVmiQuk80oQUdKE80okz+8JE6Id+BLUK4xl8PCayY5hjBRMHxR3JNXNtKmZrxAM/jj3/p6/Fv/1v80/s1/+38SX/upr8fkNFJ3FIChyBzp4bxHrlDjhoIUY67/VatnIeTqOdZ2ytlusQqFVqPgnQ3sBMgSoimlMUBJaWxzC2hTGiewARI+FTOONsMuOdXKxbPb2cy6xq/rS7Tb7h6P8gTvFKwJ2BSn+Uf4ytQCzH5c7klJPPR291lxvZdfE5dOi6pS8eYWpuLq1UtxEa4/NTdJ/FVQvdc4Gl/gbrip+KmEki6+y1vHeI9Ti1qk2QVMNFQfJx/q5EedtDSo0Pa46LWBLsPdjbdrXdy6fSN+57d/Ix7eux2XLp0FwI2o0LrNnJ2J+StnozzTjoPaaGyhfO6UjqJHeH3iu4/wEMAldJURjsdSLSp52UkDrXaMQnFGeN8XxT3x0lKdre3YuH0nvvnVr8a/8W/82fjK66+ipFTD+WLHI70YQdoeUHC52jjcU3NJl50qHcF30dyRteEaDpou+rtrljlJUcVKjqcJokvvU8459UZpUMCKyHLB63qdwAUfoMpf8ywLeDj0nEu3ynP5ObfvOthP+2AXyvMRQfkBoHlW2gDOiiMXvGaFMWRuye40r7mMVQuJtXRmNq4gdc+eO5MzR+TkGR53pSctvsUQpNgpwe3VQII6A3lvb9c3Ec/RXOutSqVVGherewL29A7KRKysreWQu9y/AdWSRrhNw+4u5bG5VlAkw0KJW7pwie8jsdtxeNxlXZ1vd5ADMPZj7x9KqUgP93wwxxBvz0irPRlf+/mfT3PIH34X8f8Hh1F1PEwsUXwAAAAASUVORK5CYII=;" parent="1" vertex="1">
          <mxGeometry x="296.81" y="70" width="86.38" height="80" as="geometry" />
        </mxCell>
        <mxCell id="W-q-6n3VgXVyglavIU9t-8" value="Frames" style="text;html=1;align=center;verticalAlign=middle;whiteSpace=wrap;rounded=0;" parent="1" vertex="1">
          <mxGeometry x="310" y="150" width="60" height="30" as="geometry" />
        </mxCell>
        <mxCell id="W-q-6n3VgXVyglavIU9t-14" value="" style="shape=image;verticalLabelPosition=bottom;labelBackgroundColor=default;verticalAlign=top;aspect=fixed;imageAspect=0;image=data:image/jpeg,/9j/4AAQSkZJRgABAQEAAAAAAAD/4QAuRXhpZgAATU0AKgAAAAgAAkAAAAMAAAABADUAAEABAAEAAAABAQAAAAAAAAD/2wBDAAoHBwkHBgoJCAkLCwoMDxkQDw4ODx4WFxIZJCAmJSMgIyIoLTkwKCo2KyIjMkQyNjs9QEBAJjBGS0U+Sjk/QD3/2wBDAQsLCw8NDx0QEB09KSMpPT09PT09PT09PT09PT09PT09PT09PT09PT09PT09PT09PT09PT09PT09PT09PT09PT3/wAARCAFnAdoDASIAAhEBAxEB/8QAHwAAAQUBAQEBAQEAAAAAAAAAAAECAwQFBgcICQoL/8QAtRAAAgEDAwIEAwUFBAQAAAF9AQIDAAQRBRIhMUEGE1FhByJxFDKBkaEII0KxwRVS0fAkM2JyggkKFhcYGRolJicoKSo0NTY3ODk6Q0RFRkdISUpTVFVWV1hZWmNkZWZnaGlqc3R1dnd4eXqDhIWGh4iJipKTlJWWl5iZmqKjpKWmp6ipqrKztLW2t7i5usLDxMXGx8jJytLT1NXW19jZ2uHi4+Tl5ufo6erx8vP09fb3+Pn6/8QAHwEAAwEBAQEBAQEBAQAAAAAAAAECAwQFBgcICQoL/8QAtREAAgECBAQDBAcFBAQAAQJ3AAECAxEEBSExBhJBUQdhcRMiMoEIFEKRobHBCSMzUvAVYnLRChYkNOEl8RcYGRomJygpKjU2Nzg5OkNERUZHSElKU1RVVldYWVpjZGVmZ2hpanN0dXZ3eHl6goOEhYaHiImKkpOUlZaXmJmaoqOkpaanqKmqsrO0tba3uLm6wsPExcbHyMnK0tPU1dbX2Nna4uPk5ebn6Onq8vP09fb3+Pn6/9oADAMBAAIRAxEAPwD0Ilsnmk3n1oPU0lAC7m9aN59aSigBd59aTLetFNoAduNG9vWm0UAO3mje3rTaKAH7jRub1pKKADJoyfWim0AOyaTeaSigBdzUu402jNAAXPrRuNJXN+N/Eo8N6GZIxuu7gmOAA42nH3/oOPxIoAj8XeOLLw9azQxzpLqRUqkS4PlnsX9B3x1PpXhk8rXExkOCzHJ560SlpJC8jguxyWY7iT6nPU1Cfw/AUAIaSlooAUGgcZpB7U7r/OgBU5Vx6j+VITnJ/OlAPH5UY+fAoAQZ4PfNKOEI9etA7e3NGCT+lADe5oxnmn+X6ZxjOaaSCfw4xQAh/Skz+VOwO5/AdqQ+woAQ0cc804Rk/X0FJgDvn2AoAbS4HGM596X6KfxpOfSgC7o+py6Nq9rfw4L28gcAjgjuPxGRXvuk61a63p8d5Zybo37Hqp/un0NfOuR9K3vCfiWfw3qYmUs9rJhbiLPDL6/Udc/hQB71vakLn9ahtbmK7to7i3kWSKRQyuP4galoATJpC555opDQAhLfnTCTTjTTQAmT60oJpKWgAy1GT60UUAGT60uT60lLQAuT603JoNJQAuTQCfWkoxQA7f70mT60mPelAFABlql3t6/pUdSUAaT9TSUr9TSUAFFFFABRRRQA2iiigB1FFFABRRRQAUUUUANop1NoAKKKKAEchASxAVRkk9q8A8ZeIZvEmuyT5ItoyUt1A/gHQ/U9fxr0z4m65JpmgpZ2s2y5vG2nB5EY6/mcD868bk4HzuV56A80AVihHUY+pppHtTnYHoD9SaZQAtGOlH1qQR/kaAGAc1KEz9T+tJsIwalQMOx6UAMKYQHnrzTkT51Y9D1qfy1JA5IIpJE2EqecjgelAFYA7+mMdqMY4/OrCRDDHtnANNeMnLsCA3AAoAYRvx9Og4zTfJ4z196lRAMbjhev1q9bwoYDMykkH5V6AfX1NAGYYSMHjnoB2pmQOF5PrVqUNKSV4XON2MD6D/Go/JUPsBLEct7f/XoAgJ9efam5P/6qlkiIcjG0enpTNp6CgBufpSc1Jt2DJbHsKjJoAKKKKAPRvhl4qeKZdDujmNyTbMT909Sn0PJ+teoV82QyvDMkkTskiEMrA8gjoa958Ja6PEOgQ3jACdf3cyj++O/0PB/GgDYNIafTaAGGmmnmmmgBKKSloAKKWkoAKWkpfyoASkpTRQAUUUUAFLTaWgBak49f0qKpOfWgDTfqaSlPU0lABRRRQAUUUUAFFFFABRRS0AJS0UlAC0n86KWgBKKKKACkJA5PQDJpapaxcLbaPezSHCJA5J9OKAPF/HOrS6n4kunyCqt5ceORsHT656/jXIyEljk5NXrti7M5MYLHlk53fn/9aqBOTQAlKAT0HNOjjLMMc1q2WmtMygKTnjIoAzEhY/wmr1rZS7x8pZW7Y6//AF66rTfDe5x8vy55yK6qy8LxJhSnGcgj1oA4a18PtM4CqSG5II6VcfwrLsIVTlCAcD1//XXplnoKxlSFAZTnp1/zzV8aKuDhRliCSfagDx2Lw3Nsm+TPknO7HXt/jTL3QZntjIqfO0gjU46/T9fzr2j+xIkRsIPmGDgdaiTQ4xszEpCHIBGeaAPE5dHltxHGVyzLuYAdM/40p0meb5ETL4ySf4RXsE/ha2yX8lWdjksR0qjceG4/LKqqomM4BzuPqaAPH7i1aObawJEfBxzQZJJAMoQnQKO//wBavTpfBEkzBiDjODx1qxa+A4jcncucdM8ZoA8kFpcSTbmDfKPlX0pPs0qZCqeOQcZyfWvXZfBsb3DFYwoJxyMf59aqy+Ev3b7EG4kkADH+cYoA8t+zOiBWQlmOSPX/AD0qIQkZZgBk4BHf6e1d/N4Vkd2+U5AwPYf55rFvfDksLsyggA4GB/n/ACKAOTlj5wQS46jpioCnNbraa0Z2bWC9WbqT/hWfc25iyAMAn6/rQBQx60lOIIptAC/jXovwn1YxXl3pMhG2VfOiP+0vUfiOfwrzmtTQL99L1uyvYzjyplJ9xnBH4gmgD6DpppTgEikoAaabTqbQAUUUZFACUUtJigAyKSjApQBQAmKKdSGgAopKWgApaSigBafUeafQBqHqaMUrdTSUAFJS0UAFFFFACUUUUAFLRRQAUUUUAFFFFACUUUUAFYPjW6Sy8JX8j8lk2KucbiTjH863q4D4t6lFbaHb2ZJ82aXeMDPAGD+eRQB47NIzyMWPJPQHOKYASaCST0x7Vas4ldxnrn0oAvaTp3myAsOc13elaUoAwp9z6Vk6Ha5ICgc9a7qwt1iQYGT3zQBNZWCxgcDIGOlbdvGAAMdsVThyD/kVoRGgC3EnSrSIKrxHpVlDQA7YKUIKeKdQAzyx6Ux7eNwQygg1NRigCHyl6YFJ5QzkVPQRQBVeJTn6+lQyW6nBwMirpFROKAMtrGMFmwORjpWbeaVBIDmPnHGB0rdl71TlHWgDgNW0jyydkePXjrXF61ZzB2bygOxwOtew3UKydetczremGSFsDjGRigDx+WNkJyKhNdFqunNE5yPx9KwpoihOfzoAhqe1TzLiJQeS4GPXmoantiVbeAdy8jjPT+X1oA+jjSGmW7mS1hc/eaNWOTnqM0/FADaTFOppoAQ02lNJQAtFFFABRRQKAFpKKSgBaKTNLmgAooooASpKjqSgDUPU0lOb7xpKAEooooAKKKKACiiigApaSloAKKKKACkpaKAEopaKAEryD4waksusWlkpB+zxbmAHILev4AfnXr9eFfFFlbxtd7STtWNTk552j9KAOPrY0i2Msg/ug8471kKMsBXSaNGx2gDCjknNAHZ6LCqbeB6Y6V1tunTHp6YrmNJj2bOCD2B4xXV2wyg96AJ0GDnFXYo2BII6dTVcRng1OHZyCxyfWsajqcy5LW63GrW1LkfGOn51ZjIqpH92rKDNFqq1TT8g0J0NSioASCAeh6GphVwmpp9Gt0DVh1FNkcqhKjJ9+1Lk7M7fm9M1LrRUnHW6V2Fna4tIaRHLoCwwSM8d6QmqhNTipLZg1Z2EJqJyKUkkkDgdz61GcVHPKb9y1u7CyW5FJzVaWMnjFWHNQu5GccVM1WS91q/mNWvqZ0oPSqFzFvQjHFaUkec1VmTGf1roJOF1/TldGIXnqQBXA31uYiwx0PpXqusRgxnoQew7V5zrUeJD1B7EUAc4cZqSF2R/lZQfU02TqaIztcEAH60AfQmhu8mg2DSNudrdCSO/y1erJ8LAjwrpeQV/0dSAe3+RitagBKaadSGgBhpKdSUAFFFFABRRRQAUUtJQAlLRRQAtJmlptABmn0ypKANVuppKH6mkoAKKKKACim0UAOoptOoAKWiigAooooAKKKKACiiigArxT4rWRg8VNOSu2eNWCg8nAxz9a9rryL4vPG2q2oCkOIsEkYzyfzFAHnUYYyAKOp7V12gwsADgE56ntXMWQDSgAnk813GkIEjAHQCgDpLBMFT6CurtrbZHG7MArLkcda5mwGSMfXmuitpG2Bdx2+hNZVIzduV2119Bppbmgm3gKo+p5qUbvb8qhjxxVlMUvYU+quF30HIPp+WKnTj6etRgCphR7K2sHb8gvfckGCMHpT4yeQeo4PvUQ+Tnt3HpUwPSpj707vRrfzG9ELJ/q2+lPbvUch/dt9KfnrT/AOXkvRfqLohsf+rX6Ckk7KOrfpTo/wDVL9BQ5AGewpRV6KV7aasb3ZDgDjoKjPPTp61JjfyenUA96CKI3mvd0j07sNFvuV3BqF8/5FWXqFxV+wp9Y3Fd9yq4Xuv4jiq1zD+5kdTlVGeKvOOtZ9452EZOPSpdKSt7N211T7DunucrqpYq1cBr0LI5bqO4Nd7qvOfrXJ6wm+FsjOBnjmtyThZMEn1zSxEq4OAfrTrjb5hGMc0ttt8wZwQDkqR1oA9/0NMeH7Af9MEOPTj+lXqr6YCNMtgV2/ulwuc44qxQAlJTjTaAENNp1NNABRSZpQaACiiloASilptAC0UlLQAuabS0UAFPplSUAaT9TRQepptADqKKKACm06igBtOptOoAWiiigAooooAKKWkoAKKKKACvIfjGg/tWyfac+Vgt26/z616NDrS300gt32xqcA4znHU1558Ur2S+S1SQqv2UndGD94t/EPbjHtQBwmjxGW6A7DrxXdWKBAPz+lcp4biMkjv6cCuwtxjHtQBvWGBhieAcc9q3La5hCfPIq4ODk9K4+KO8vMqkvlxdOAOalfwvO6fLcs7AY2sSKAO1TUbQYAuY2PswNWoryJ8YdSD3zXlMmnXFq7eejHtjOc0Q6nc6dJuglzHnlSc4oA9ijIOP0qcEV5pYeNmg2+YcJ0Kg5/Kur07xRZX4GyRVdv4ScUAdCHFKHCfQ/pWfBfRzZ2sCVOCM9Kl8/wB6znDms07NbMadi68gKH6VJ5gqgkoPGakEv51H/LyXov1DoiykmEUe1NLhzyeAePeqplxxnpTDchAST2zShDmhHt1Q27Nl7eKaXFU/tS+o6VHNfw26bpJAoxwD3roJLbmoXkArldV8c2dmD5bK7dACev8A9b+dcnfeLr2+yPN2oTjaOBQB6XLfWyZDTICPU4rOub2CU7YZFdiOinOK8/jivr4BRuLMeB1x9avW2h6xaoRDIyFuS2/BP1oA0dTHXt+NcxfjehHHT1rSujqdlj7UqvH3bOc1QlxNkjoeeaAODv4jHcsPfNTaNALrUbeA+XtlkVTv6AE1Z1+EJMp6ZqvoCxHXLRblisJlXzCPTNAH0HgJhRwAMClqJJGmQyqQIjyrf3vf6VTj1VPtgt5CBvOFb39PxoAvmm0ppDQAlJRRQAlFFFAC0lLSGgApKKKAFoxRRQAUUUUALT+Kjp9AGmepooPU0UAFFFFABRRRQA2nUUUALRRRQAUUUtACUUtJQAVBeyGKwuJB1SJ2H4KanqC+QyWFyg/iicAevymgDyDwx4oFlqYtrolY3OAxPf8A+vTfiVJFNPaSrzuDDIFZt9ohe4Plg4Y8GqWqSXBso7a8JMkD4VmP3gf60AXfC8Z8iRvfj2rpgdgB9BmsPwugFmSOct2FdCYt8Zx1xxQA631NYjjoK2LbUhgEN9ATXF3O6OTHcHJqrLrTWvVyMCgD0l7qK4BVwrZ4IIrI1LRLO6BZUAfqCpxXDnxLqGC0cYUKM/OeT+FSReIbhpI/P1e3ijbOSkZfb+HvzQAuo2U1lIyfNtPrzmoLa8libO4g9+f1+tTy3012h8jU7S6cceW6FGPOOPXPH51mPK0U5juY2hkzjnkH8aAOv0rxHLFMMuSSMFvX/wCvXZ6dri3UIbcAehXPSvKogwxgHHXIrX0y+aJwCxHrzQB6lb3gyCTkZ7VL9px3rm9NuWkxg5zWsQxGanlV3Lq1Yd+hYmvsEnoCcisnUta+zwHByTnv0qDUbl4kOfSuO1PUmckbuAacUopJbIG76m3qXil4o9yNyxAxn2/lXI32uXNzM26ZuepzmqlxM8uc8DrzVDzd8m2NWlYHkLwB+NMRqWdlLfSAjLsTnnmuv0jw3DCEkuSC4OQuelchZ6tPZIAbmztuM4JLk/lUj+L9QQ7UltZiehUkY/8A1+lAHqkL29tGFjCr7gYqK4v1AOCMe1eax+NbgPsu12HONwORWjHq7XCblfgjPXpQBuanfJKhX07GsQY59+arSSvI4yScmrMYODxx/OgDnPEgxGh96wLf554xnGXA+nNdN4kj/wBFBx0PWuVTKSKw6qQRQB7N4u8WQ6HpsdrbsHnZQFUHoPU+1cFa+IL69vBubDKd4I7Y5p6aLd6lbTX12WeZhkE8/wCQKuaLo5jmlYjG2LuKAPWEcuivj7wB/Og0INiKp/hUCg80AIaSlptABRSUtABmiiigAooooAKKKKACiiigAp9Mp9AGoeppKc3U0lACUUtFACUtFFACUUUUALRRRQAUtJS0AJRRRQAUcHr0PBoooA4a601Le6YFRuiJHT0PH5iuI8WPFK6BUGc844r0zV42lursoOchRj2H/wBevOdf0yTeWbPByPegBfD6CO1jHTPOBXWWVuswHqRXJaUfLjRfTiu10GNrmQImM4zycVM5qK5pOyQ0r6IwNf0mWH97ErMD1GM5rkdRs5XAk2PuA6EEbff6/WvapLVXBSRRnvzmsjVdIilgkQxrlhgEDpTUlJJp3TFseP2WkXF9ciOR2CHnOc1Hf6RLa3s0G0/u+RnuO3516La6ObN4yi4YH5iwzn+lWdX0mz1F43uUMU6cCWAdRzwQevT9aYHmRkutRjt7eWNVS3TapWPBP1Pfp/k101r4avm0BLydftNtj5lI+ZB0GPUVvReGtL85Ue5uWKtyuwKG79RyAen+c11iXEc1qLeNVhiVdoVF6Dp3oA8usbdrd1AbzbNm2q55MZ/un61s3GkMAJowR3Ix1rpYvBi214lzaMpilBW4jY8Op9R6g85rcOlRizVSM7RgGgDG8NRGRBnt2rqDZ5TPtVDRbMRzMAMDPFdMYwLboKAOD1+HYhwO3HvXGvpE0xLsGx1A9a9J1O2E0wUjjPNEemxeSRt5A4oA8c1O3CSGN2KRKdpx1dv7o+nc1fHhK9l8Oz3q4gjWPdHCn3mHqfau3i8GRRXM17PIHZ1KqhUHapGCOe5yTnrmrQzbRlQ0mMYCk5H/AOqgDxPZcWYbyfuuu0nAP169Op/OkstMluruGDBDOcdOg716ZJoNhcGUG1mTcpYMhyA/sM8D/Gqlnpw04SNDABKw2s8nzHHoPQH2oA4G9sZdOuWCv5iqcAmrNjcPC+1EYA9FY4A/E9q6668Ofb5g8Eb5PBzzgVtab4ViS2WOZVYKMAkdRQBzej28t05kcZUdPetm4t/KTnrXRxaVFaoEjRRzgc4rM16zlsthmCjzAWGDn/PaodSCkotq72Q7O1zitcybYjqM4IPeuZt4h9vhB5HmDIx711OpYeM/p71nadppuLkOoyc4GKsR3OiXUUqGIgYIwB61o2Vkr3McWB88gLAf3V5/XgfjUGh6G0QSQg5FbWkxZvb2U/dR/LT9Cf6D8KANM001JUZoAaaSlNJQAUUUUAFFFLQAlFFFACUYpaKAClpKWgBDT6jp+PegDWb7xpKH6mkoAKOKKKAF4pKKKACiiigBaKKKAClpKKACiiigAooooAzvJR7y6DgZ3Bh9CP8A6xrA8QWcLwyfKMgEg/St/VSbVPtw5SJcSr/sev4dfpmub1y4S4hDW8qyK65G05oA4i3cI+PfFddodw0eQDjcu08fj/SuH3lJpPVW5HpXY+FoTf8AmHzhGIlBHGdxPQD3OD+VZ1ZQhBupsNJ30O4tyLkAn/Wd/wDa/wDr1ObUEYIzWdp0qnADBh2YcA/nW3GcgVnFSpr3FePbqPR77mTLpCyEkKBn0qrNoucdePSumwvcY+tL5YPatI1YT2evYTTRyJ0dg4bByB1xVm205g+WA9q6E24PanJbgdq0EU4bPYCT/wDrouAAmO1XZMAcVnXD8mgBtgAJD9a2H/49s1kWf+sNbEuBZigDDuEzP+NTRL29ajl/1p+tWIe1ACyW+QQKzZrBXyAMZ5xW6gBFIYQaAOZOjkkkEipI9FGfnG7Ix6V0Hk0eVjtRewGXFpscaAbQAOgApXhWMHAFaJAqpcyCMEr97HU9qwddPSCu/wAEO3fQzLnZbDzJgGk6pGf5n29u9chrl68yFHfdhi+SO56/yFb2pTdcnnPJPNc/r+ni3sYbpbhZlkbBUIV25yQeex2n06VHuQmnU1k3ox6tabHKXz4GPauo8N6bFBaxMwyzDca5G+kzJGvvmuz0F2MMTSHbEuFBPFdRJ2dr5cNmzsMKi5NNsofJtVUj5mJdvcnn/wCt+FYMmvR6jq0Gi6c3mqzbrmUdEReSPqcY/GukPJJ9aAEpDSmkNADDSUppKACiiigApaSloASkpaKACiikzQA6ikooAKfxUdS0Aab9TTKe/U0ygB1FFFABRS0UAJRRRQAtFFFABRRRQAUUUUAFFFFACEK4KsAVYYIIyDXl95pR8J6zNGu97KU7olJztU9h9On4V6jXJ+PLJprO2uFOBExVmxnGen6j9aAPPdTSHzzJAcq/JHpU2kX0kJCq7KAwbAOOR0P1FQXluyAN2745qtbyeXJ7Umk1ZgeqaZeJe4cFUuDyy9Fk9x6E+n5eldFbS/wkEEdQeMV5tot5kAE9K7fTrxnQKx3AcDPOKx5Z0/h1XbqVdPc6BCKf5annofbiqsT5HFWUfHUN+WamU6cv4it6gk1sx3lnsx/EZpCGHdfyp4dTwDz9MUyQ4pwpU5awk7eoNtbor3D4BrLlk5NW7yTg81kmXfJj3roJNCy5etif/j1Ws2wjGAa0pubcCgDFl4cn3qSJ+lR3nyE1XhmGRzQBtRHipvm7ED0yKp278CraGonBTVm2vQadhdjf3vyGKaUUdcn6mnF1HWmSSD3rnlGhF2k7v5sact0QykCse+m4OOp4HfNX7mZRnJY/Tiuf1HUnjBEGIuOWXlj+P+GK09o2rU4/ohW7sz9Rkis8y32GcD5bbPJ/3/7o9up9utcXqWpzXVxM0kjMZWBYA4BxwOPQDgegq9qt1y3zcnk5Nc1LISWNVCnZ803d/ggb6InsrZb7UwztiNDzXW30kdzZx2VurJCWAZuhI/xrm9AtmJMmM7jxXSCJhmVwAEXCqO5rURueGNKtrUTXFvEEXHkxn1A5P5nH5Vv1DY2ws7CCDuiAH69T+pNTUANpDSmkNADDSU402gBKMUtFABS0lFABRRRQAlFLRQAc0UUUAFPplPoA1H6mmVJJ1NNoAbTqKKAFpKKKACiiigBaKSloAKKKKACiiigAooooAKgvLWK+tZbacZjlUqfb/wCuOtT0UAeT6/pV3pJMFzGxjzhJgMq4/ofY1zfR6972A8MAVJ5B5zXiGo25ttTuoiMbJXXH/AjQBb025MTj9a7fSb4HAz27V57bkgjtg10ulXBGOee9AHolrcggVpRyAgc1yljc5AG6tm3uc4BoA1t4qKR6hEme9DvkUWAoX5OMdzx61SdFi2kn5ieTUusXH2W1M7dFIANcdqPidIyPMlVADwScYoA9HsMbRWhcDEYridA8RxXMagyKSRkEHOa6I6jGU5kGPc0AU9ScZxnqarSII0VhwcZOO9YuveJbaGcAzIqqcZZgMmqSeKEk2nerA8Ag5zQB2tpPlBzWgkny1k2J/cp2JHPtV3fgZ7UAWHm461UuLkAe9RyzYz6VnXNyRnJosAy9usA8/WuY1O84PNXL68PODXM39wz55zQBk6jcGRzz3rPILsAASScDvmrNxyTV/wAJW32nxRYjGQknmH/gIz/QUAW9FukhhCAFpOgVRk112k6TPczR3V/G0UUZ3Rwt95j2JHYDrjqa6NEUElVVSepAxmnUAIeaYaeabQA2mmnU00AJTadSUAJRRSZoAWlpKWgBKKKKACiiigAopOaWgBKkplPoA1ZPv02nSdTTaACiiigAooooAKKKKAClpKWgAooooAKKSigBaKSigBaKSigAryXxbbmHxPfr0DSbx/wIA/1r1qvO/iHamLWLe5wds8W0n3U/4EUAcpEOa17CQoR/SsuNOeKvQ8EfpQB1VjN0/UVuWcq5G5sL1J61ytlJ09Petq2l6VM1dNJ28wOl8xQcLn/dNTIAR681QLnz2HsP5VehcbAc964Ixk6dL3n5/caXV3oR6lYRajp8ttIuUdcH/PrXkPifwRc28vzyNJHn5Wx0r2rIxVO8to7qMpIoIPrXomZ4Hpj3GhXhilkYQMeG/umt648S/uCDcqwA4APWun8SeEVmtnZEB9CB0ri7XwRePeAOwEeaAMlNNudcujLOzOzHAA7fT2r0Xwd4DS3kjubzLFOUU9B/9etzQ/DUFjGgCD5R1NdNEFjQAcYoAPKVAAFAAHYVDKFCcE5x+dWHcc1UuT8g981zV03OnZta9PRlLZ6EH7oxyGQsSBklf4ecVh3sgG4BsjPDAda03f8Ac3Psn9RXP3kuc80UYtVJttvXZ+gPZaGZeyA555NYtz1JrUuT196yrk5zyK6STLuMZJrpfh5beZrNxcdoYcD6sf8AAGubn6+1d78PbIw6NNcsObiXgn+6vH880AdXRRRQAU006mmgBKaacaaaAEpKKSgApKWigA5paSloAKKWkNACUUUUAFFFFABT6ZT6ANVvvGm05/vmm0AFFLSUAFNp1FADadRRQAUUUUALRSUtACUUf40UAFFFFABRRRQAVznjrTjfeHnlQZktG84Y9Ojfpz+FdHTXRZEZHAZWBVlPcGgDxOJz61ehk6dOai1zTH0PWZrQ58tTuiY/xIen5dPwqKKX36UAdDZSdK14Xxj/ADmudsZRkc1uRuMA596ANq3uSTliSSOSTmtKK444PHWuYS5VO9WBq8UI+dwMfjSskkrbAdUk4NK0qgfMwH41yEni62iQhWyRWRceMkcn5j68c0wPRPttmfkmbg9xzUOdKi+cOCc9AK8xk8Wo8n+tAyehNSf8JAssJIJCgZLZxQB6SdWtT0OB25zT0uo5ACjA/Q14/N4yiR9iyKcdSDmnW3jJ45AyOcZ9c0AeuPcAd6qzXIIwT06c9K4m38apIB5xrSh1iO8j3I2fX2pWTAv3NycFVOAwwcHrWRcOTnNTvIX+tVbkgA0WSAzLl8Z9ayrh+tXbqUDPSsi5k6/1pgRFHuJkihUtI5Cqo7k17Dp1munafb2iY2wxhPqe/wCZya4LwJpJvNTa/kX91bfdyOsh6fkOfyr0b2oAKKKKACmmnUGgBhphp9NNADKKU0lABRRRQAUtJS0AFFFFACUcUUUAFFJmlzQAU+mU/FAGo/U0lK/U0lABRRRQAUUUUANp1FFABRRRQAUUUUAFFFFABRRRQAU2iigB1NoooA57xn4fOtaaJbdM3lsCYwP417r9e4968uRyDg8EHBB4r3M15f8AELToNO1iG4hAT7YGZlHA3jqfxyDQBk29yRW3a3u9MEjI965aOTpz+daFvMRjmgDow6vSzeHl1WElL827KOMLnJ96zbeWSQ4RWdgM4UZ4qYai0Y68dKV1sBn/APCE3jybbjUlAyMgJyP/ANX9avp8NraZAJLqdzjOAf8AD1p51ffjc2GByGrQttbZCDkA45I59qYFaL4SabLGSGnzjOd1C/B6EfK13LsA3GMt2robbX7hISEY4JycGmDVZg5feckcgmgDOT4a6PZ5DWwkIGSWOc/nVS68JaLsK/ZUBHdTite61iRwdz4+prn7nVy5IB5zxzQBBbeCtKkuRuEyx9SokPNa0umWunRiO0BWPHAJ3Y/E1n2167uW3cn0OMVZ86SXdtVm2jLEDOKTaWrAXzRGCT2rPvLrrz+tLcz4yc81j3MxOeeaYDLmbdkZqtbW02pXsdtbrukkbaoP8/oOtMmk+teh+DtAXTbJbucA3VwuR38tDyB9T1P5UAbWk6bFpOnQ2cHKxjlsY3Mep/GrtNFLQAtJRRQAtNNLRQA00ynUhoAbSUtJmgAoopaAEpaAKKAEpaSloASiiigBKWiigBadn2ptPx70AaR6mig9TRQAUUUUAFFFFADaKdRQAUUUUAFFFFABRRRQAUU2igAooooAKKKPWgArzX4vf8wsDsJD/KvSq8t+K83m6rZQA/6qAsf+BN/9agDjrG+Ev7uTiUdD/e/+vWtbyc4rlHBDZ5z6itSw1HzCscxw/QMe/wD9egDuNE1GTTpjLAqmRgFJPB25yQPTPTNWNS02SWQ3KSNNFMcrI/X/AHW9GHT361h2FwA4DH8+1dbp1w0YO0qVYYZGGQ31FYSpWl7SC16+ZSelmcncWMsZP3gKoyzXVqdyhio7CvT4rGzuh90Rk/wtyPwP+P504+GrWTrGBnuBnNUq0W7PR+YrPc8nPi67t8ARA47EGkfx1fSDC26A+vNernwZYyfeiQ/Vc0qeCNPQ58iP8FFaiPJE1jVNSIG1jnsoxWrZaTdy4MwI9q9Pj8NWkONsaj6DFPfSYIhnCoPWolUhDd/IaTZw8WmtEg9f51qpcTaJamDdullOZITyqL/dPu36D3rWuGitgfsy4k6CUjJH09Pr1rmb8rGCc89SfWsZQ9vpNWjv5jTt6mNeSAA9h2rLlOamvLgO5APA61hXt/uzFAfl6Fgev09q6SQvLwO5jQ57MwP6V7lpxzptqfWFMf8AfIrwCMV7zosgl0OwcfxW8Z4/3aAL9FNooAKdTadQAUh70f0pKAENNpxptACGkxTjTaAClFJThQAUUtJQAlFLSUAJRRSUALRSUtAC0+o6lxQBpHqaSlPU0lABRRRQAUUUUAFFFFABRRRQAUU2igAooooAKKKKACiiigAooooAK8a8b3P27xPeODlY2ES/8BGP55r12+ulsbCe5c4WKMvz/nucV4pMGmmd3yWYliT3JoAxJocVVIxW3Nb9eKzbi3IzigC7p2pmIhJ2JUcB/T612Gl6njaCwIPIYHOa86GUNXbK/ltSNhyndT0/+tQB7Da3q4HI/Otm1vAMc8fWvKtP8SJwrP5bdMP/AI10FtrzAAhsj1BzScVLRq4bHo6XKnuKf9oX1rg4/EeO9P8A+Eoxnv2ojFRVkrId77naSXIHQ1nXN0oB5/WuYk8UE988evNZ154gbYSzhR6k4pRhGN7JA22bOo36oCd1cfq2p792WCoOpNU7/wAQIcqhMh9uBXPXN1JcvukbOOijgCqEOur1rjKJlY+/qaqYp2CaeiZoAag5r2fwVci58K2fPMQMZ9sH/DFeQxxGvSPhxc/6Fd2jHlGEij2PH8xQB2dFJS0AFFFFADqaaPSigBKSlooAaabTzTTQAlLSUUAOzRTc04UAFIaWg0ANooooAKMUUUAFTYqKpKANNvvGm05vvGm0AFLSUUALRSUZoAKKKKACiiigBtFFFABRRSUALRSUtABRRRQAUUVFNMlvC8shwiDcTQBzXjm+/wBDjsEPzSHfJj+6On5nn8K4J4fn6e1dFfvJfXklzJ96Q5APYdh+ArPMPJz078UAZMlvweKpXFrkHj866Ewg9qry2oINAHH3FuyH2qvkiuhvLPOeP0rGntzGTxQBGHzxU0czxYKOyfQ4qqcil8w0AaSardpwJmP15p/9rXf/AD1P4AVl+ZQZDQBffUbl+Gmf8Diq7ys/LMSfUnNQbmpOaAJC5NNpBzUkcZJ6UAOjTNWYoSccVPb2pOOK07ezIxxQBVhtenHFdB4TuP7O1yEE4jnHlN+PT9cVXjtccYp72+AGXhlOQR2oA9MoqnpN8NR0+KbI3kYkHow6/wCP41coAKKKKACiikoAWiinUAMNMNPNMNACUUUUAFOptLQAtIaWigBpooooAKKKKACpM1HUlAGrJ1NMqSUcmoaAHUUUUAFFLSUAFFFFABS0lLQAyinU00AJRRRQAU2iigB1FNp1ABWDrVw144toz+6Q5cj+I/4Crl7fEkwWx+Y8M4/h+nvVaK2CJ07c0AYs1t04qjJb8muilhBzxVCSHHBGR2oAyTDx0qN7cEVqPD+VRGI59/egDAubXIPFYl7Z9SBXZSwnGOOaybyzHNAHFS25B6VAUrormxJzxWXLakE8fpQBQ20uKseQab5Z9KAIsUu01L5ZqWO3JI4oAijiJIrSs7MnHH6VNa2Jcg471u2djgAkUAQ2tlgDitGO2xgYqzBbY7Vajtye3HrQBTS3x2p/2bINaAtznp0p3l+3figCLQ7r7Dem3c4imOBns3/1+ldRXK3NnvBPftjitvSr77TCI5D+9QYOf4h60AX6WkzRQAUUUlACilpoNLQAhpppxpDQA2ig0lAC0tNzThQAtJS0UANpKWigAooooAWn02n0Aa8o5NQmpZDyajNACUUUUALSUUUAFFFFABRTaKAHUhpaaaAEpvNFFABRRUMtyEyqDc/T6UASSSLECzEAe9Ubi4luAUjBRDwT3NPFu8p3Odx/lVmO2xxQBUt7MIg45qQxnHFWygHao3HWgCjJFiqkkXPA79K1XTv+dVnjyeg/CgDN+znnjjPSont8E8Vr+UPSopIfbjpQBiS2+c+3pVOa1yDxW9JCRn+dVJIRzmgDmriyznAqhNpwOeP0rqpLcHPH4iqslsCemaAOPl07vioDYHPSuweyHp+FR/YFP8IoA5RLA56VdttNJI4/Sugj05fTvV2GxUHpQBmWunBMZFacVririWwGOKsRw9MD8qAK0dv2x9aspCegFWo4sdRUoiPHGBQBV8kYyRThD/jV3y+KURD/ABxQBT+zgjkVSls3hkEkJKsDkEVuiIUG2VwaAKVtfiTCTgJJ69jV2q0lkp4x14pqedbYHLxjseooAt02kjlWQZU/XtilNABS02jNADqSiigBDSUppKAEpRRS0ALSGlptABRRRQAUUUlADqfUdSUAajnk02lPU0lABRRRQAUUUUAFFFFADaKKKACg0VE8ip1PNAD80ySRYhlj9B60zfJJwg2j1NPjs+dzZJz1POaAISZZuACiH06mpYbUADiraRAYqwIwKAII4QP504oBU4FMkoAquAc1Dg1YeoTQBG4+WotgzU/tQIvSgCLyxzxxSGIEVa2H/Cgx0AZ0kOciqstsfT8q1zH7Ux4Qe3PtQBgyWp9O3bvUBtfwrde26/yqJ7Yc4FAGIbbOeP0pn2b2rZNqPTrSfZh6UAZaW4GOPyqeO39vzq79mxg459qlEOAOKAKoixUkcXT2qykPt+dTpCOKAIEh9vzqbyuKnEVO8v1oArCPil2VYEdBjoAiSOpQgpwTApwFADTCD1FRvbAirYxRigDGmsmBLISrjuKhErRnbMMH+92rdMeaqzWqv1AwaAKOQelGaiktZYTmE/L1KnoaYLlQcOCje/SgCyDS0wH3pwNAAaSlzRQAUUtFABSUtFADaSlNFABRRRQAtP59aZT/AMaANM9TSUp6mkoAKKKWgBKKXFNNACUuaaSBkmozKP4QSfagCQmo3lVO+T6Dmk8uSQ8nA9BUsdsqdf1oAhxJL/sj0FSJbqMVN8o44pfMUUAKkYHapglRCVfUYqQSr6igCQAU7io/NWk80UASk9aikNMMwHeoZLgdjQA56jI703zaQyZoAOtTJ2/KoARUocce9AEwAoIpoc08GgBDHTfL6/5xUwpeP/10AVvLphhHXFXQgoMYoAzjb9cD3pht/Y1p+WKaYxQBm+ST2+tL5NXfL5JpPLFAFZIuRU4jFOCCn0AMEYoKU/IpCRQAzFGBRkUm/wClACGkH/6qQn86A/NAE6DipQKrpKKmEgoAUimlAetLvFNLigCGSIHPFUZrVXz0q+0gqu7igDJNq0R/dsR7daTzXj4dc+4rRfbUflqc8UAV0lV+hpwNJLZB+QMH1HFQfvojhhuUfhQBbFFQJMp9j6Gpc0AOopM0lABRRRQAUUlFAC0+mU+gDVKnOaTYfaiigBwjPtUghPqKKKAGvGR6VWbd2x+NFFADRbF8Fmzn16VYSAD0oooAekf0qQRH2oooADbg+lRPaj1FFFAEL2jdmFRGBx0ccUUUAMKyjo4puZf7woooAQ+aerCk2v6iiigB4De1O2E96KKAHCM+tPEZ9utFFAEwjPtTwpwelFFAD9je1LtPtRRQA9EPtTth9qKKAF2H2ppjPtzRRQA0oQO1MKnnGKKKAI8GmHIoooAZ5hNIS3tRRQAwuaYXIoooATe1J5h79aKKAASHml89gKKKAHfaWAFRvdN/SiigCubps8U3zWJ60UUAOAYnkipo0PtRRQBJtqN4s46daKKAIJLYc9KjERToaKKAHhT6il2GiigBdppNh9qKKADYfajYfaiigBdpp1FFAH//2Q==;" parent="1" vertex="1">
          <mxGeometry x="670" y="70" width="105.63" height="80" as="geometry" />
        </mxCell>
        <mxCell id="W-q-6n3VgXVyglavIU9t-15" value="Face Detection" style="text;html=1;align=center;verticalAlign=middle;whiteSpace=wrap;rounded=0;" parent="1" vertex="1">
          <mxGeometry x="675.63" y="150" width="100" height="30" as="geometry" />
        </mxCell>
        <mxCell id="W-q-6n3VgXVyglavIU9t-17" value="" style="shape=image;verticalLabelPosition=bottom;labelBackgroundColor=default;verticalAlign=top;aspect=fixed;imageAspect=0;image=data:image/jpeg,/9j/4AAQSkZJRgABAQIAVQBVAAD/2wBDAAUDBAQEAwUEBAQFBQUGBwwIBwcHBw8LCwkMEQ8SEhEPERETFhwXExQaFRERGCEYGh0dHx8fExciJCIeJBweHx7/2wBDAQUFBQcGBw4ICA4eFBEUHh4eHh4eHh4eHh4eHh4eHh4eHh4eHh4eHh4eHh4eHh4eHh4eHh4eHh4eHh4eHh4eHh7/wAARCAFAAUADASIAAhEBAxEB/8QAHAAAAQUBAQEAAAAAAAAAAAAAAAIDBAUGBwEI/8QAQxAAAQMCBAQEBAMFBwMDBQAAAQACAwQRBRIhMQZBUWETInGBBzKRoRRCsSNSYsHRCBUkM1NygkOS8BaT8URzorTh/8QAGwEAAQUBAQAAAAAAAAAAAAAAAAECAwQFBgf/xAAyEQACAgEDAgIJAwUBAQAAAAAAAQIDEQQhMRJBBVETImFxgZGxwfAyodEGFCNC4fFS/9oADAMBAAIRAxEAPwD5CQhCBoIQhAAhCEACEIQAIQvQCSABclAoAX2U2npQ3zzWvyb/AFRTRiPXRzz9lKZESbuTJSNHTabu1lg0F23lCeip3u0DU9TxEkBouVc0VKQ27o87h9Alposv/Rx5mo4wqXr8+RXU+GPcAXDKOu6mQ4c0WNiQdr81dU9LUTjK0RxR8yTZWdNhsAAcWmdw2bqG+616qK6ON3+//CCXVb7EUVNQOcCWsu1vzEbD32U+mw5hF3HKL/VX8WHyVBDXsZHG38jVYRUcYAjhYA0cwFM7RVQkZwUsdgGsA5XOt/dQa/CzIbltnEXGm63DcOGYENb76lFTQeILFosPqhWSFlVHByqroHxPd5dlAcw2IGi6ViWCtkN2sAFtSs5X4G9j3BrNtU9TK1ml8jKvaQ3W1+oSS8EWIu3uFZy0bg8se3K8bA7FRJ6Z7NrhOT3K0qpIhSQNcLtKYfG9vzC/RTPM11ja36pUhaRYt0OyrXaWu32MIWSiQmuI3F14/wAORpa9v9U5MxwGmoTDnE62use2idUsSLkbYzjsQqmnMZu3Vqjq1Lsw11HMFQ6mCxzNHskTzyUL9Ol60OCMhCE4pghCEACEIQAIQhAAhCEACEIQAIQhAAhCEACEIQB6Bc2CkxM8MfxHmkRMy6nf9FIjBc4DdIy1TDf2jkEZJFt+qusOw+SYtaxhddOcP4TLWTta1lxcXNl1HAeHYaaBpcwZyNSUyil6qflFcvz9iOirqjpK05byfC+5ksOwB8YzFmd9tdLq7o8HaWDxmuvyBBstlBRwxjKGD6KWylYbfswfVbqSjFRjskVm8vLMvBRU7Bbw9tg1u/upsdM9wtFE1g65dVo20kY0LBbmLJwsjYLtaAB2Q8MFIoqbD7N8ovfclTY6VkY+W5HZSyAwENBAvdGYEAXTW0uB7yyOGG3yWTTo7n5VLk2uD2SRYDdNyOwV/gAkjS1+ahV2HgsuALjb+hV09gvmA9UjKDoRYd0uRcdzGV2DQ1TD5DfmOYKoK/B5Yb3Gcemq6RNRtd8twRzB1CiS4eXjztLx1GhTk2NlFPk5JVUTWnQgE/lcLKIaYi97hdSqsGDiXCncbjW4CpcR4bk1fDGGO18pUikVJ6dPgwEsDm6g3Ch1NO5vnZ7tstTV4XNGS0sOYci2yqZIC1xaQfdEoxsi4y4Ks6ZQeUUHiEHUL0nNupddT2u5oseYUHzDcLHvodUsfIFN9xmoi/M1R1P3FlGnjsbj3USKttf+yGUIQlK4IQhAAhCEACEIQAIQhAAhCEACEIQAJ2Fl/Mdht6pDGlzgApIto0DTYIJa453DX3KuOHMPkrqxkUbCbn7KuhidLIGsbck2XVfh/gjaWlEkjRmdYuJ6dE1QdslXHv8AQ2tDUoN3TWy/d+Re8L4NFRU7XZRm3vb7rQxjtZNMab6WCeF73v8ARbMIRriox4RNKTsk5y5ZIhAtckKbG4aAC/soMZ2JGqkwuI5E+6cMZJu22v3SJAHacgkZiRbMEnyg63J5oBHrjbTlZMbDldLe7Q2Juk2u2xJTWiSLAi4udgFs8P8AhvjM9NSPqK/B8OqKxgfS0dXVZJ5QdrNsbXWLa4sc21jY3sRoVsqb+/8A4i8cx1fhRMmHhGaWJpbFTRMt5iSTbYka6lRzyuBtjkt08IyuLYfV4ZiM+H19OYamB5ZKx27SP163UcjRan4sYvR43x9iWIUDmvpi5sTJG7PyNDS4diQbdrLKOc4EXcTfsljlpZJINyimxVvMLD1XkkeZumnuvb6abr0O0vZSIRkcwncXvzUean6i5U/xARtYhIJa43dqnLAzD7lDX4dHLcuiaVm8U4dilDst2O5HcLeyZDoAfqoNRGCdgQkb8h2MrBymvwiSMlrmWcO26zOJUj4XXDDlvt0XZ66hZISS3kstj+BtdG4gXBUc0rIuEiCzT94nL3AjZB8wsVPxCkdT1Do3j07qC9pabLKaafS+UUrKnD3ESRuV3bkkKVK3MLKMdDZBRnHpZ4hCEEYIQhAAhCEACEIQAIQhAAhCXE3O8DlzQKll4HYm5Y783fonmDT12SXauUmkiL3gnYJreFkv019UlFGi4Ow3x6pr3NvY6Bdbw+EQwNY0bLG8CUeSLxSNtvVbiK+nRXdFT0R63zL6dv5Ni5rauPEfr3/gksOwTjb30UcOta6fZ1zK8RpYH2E3sn2E8xdRWuF9rp+I2tYWHdCEaHXE9bD1SCSDcFelhcCNbJJbZtgBshgkhLjqSXWukF1hYG4XrgTYckgtINjZISIXH4j3tawXc4gNF+Z2XbeJuD+KqXAKfhXhWnpWYaYmvr6n8XGyStmI82a5uGDYD+S4hZeEdhZMnBsjnBzaafBa8Q4RX4BikmGYnHGypja1xayQPFnC41GirNSRca8wk2HLRe3ttunLYlWRTzlFw25XrHEC1rdiUltgNbos0nf6oYuD23M6WXh2Ov3SnPaG6nbkvLNc02KVCDD3Dv2TDnXuAU/LpsQVHeATtcoyOW41KAQQeagVUAfG5pG4Vk5oPqo8wvdMkBzfjDB3OhMjW+dn3CwrwWktcu0YxA18bri45rl/EmHGmq3gDQm4VLUx26/n9v4+RWuq6s45/Pz5lGRoo87bHN9VIku0gpD7OGqrIybI52IqF6RYkFeJSqCEIQICEIQAIQhAAhCEACkQjKy/736JljS5waOakuOoAGgQTVLuet37q5wamMkjQBfVVVOzM8X6rZ8JQN8dtxz+6SNfpbFD5+41tFHoi7H8PebnhyERU7GAaAK/ZoFXYcwRxNAGwViw3bcLYbJ4ocyklOM03XjGnS+qeYBdKhWz2IkO2UphBtcWTFx6FKa4jfW/dPwISHZb2tvzSHDzHTRJzi1jf1Sg4HXc9UjHJCC0gWFvovAzmTf2S3G2xXjnWvrqmDtxDgNdimidSRsnDJcWsm9LJQ4E2JPbmnG6G2yAQGgAXXpsQALoFR7oARyK9Aubi/umJXhhA1KcjOnQpcD2sLI6Q2x7BNnIBawHovHyC1gPsmr33+qH5DD12W3RR5RlcLczunwdLXBXrsgbtdIKnghvB1TT722T8lgTa6bcNExrIrK2qbmabbcwsZxVSCSEvDdQei3MzSNCqLHqYOhfYaEKFwTzGXDEllbrk5HWMyuIUXbbUK2xWExzPYRsVVPBaVnRTj6suUZerglPqXDGZ265vZNKS8XaR1UZOM6xYYIQhBGCEIQAIQhAAhCEAPUzbuJ9gngLu1SYWgRt76qQ6N7I2PLHhjr5XFps4jex52SNlyuHqjlNYSt/Rb/g+nu5h9VgaAZ6lo7rpnB7PmP7tv0VzRwxmfw/n7F+ufUlH4mupmgNtspbB5dDoolOCbG+ilMIHoFbiWOB4Eg9l6JAXAApjxQL6qBU4myJ9geakSQqLhz2D5jqvW1EYFhY+qzE+LtzF5c0dE0MXjIsX/dPQjaNYahpN7XSH1OWxH0ss23EGWzNmHuU9HX5rXP3TZcEkGsmkEt9ykF7s9w4eiqY64nUaqSyoBde+qZhIeticH2Fr6leNeCTry2UYSa311SRLre9koYJRecwCV4tuahmUD1SHztaN7HqkygwS5JW68kkVAJOypqmsy3sVEdXkHR1kmcsd2NFLI17QM5HoURSMNgXXPqs63EWNF3SDtqmJMYY03Dgnb+RG5LGMmqfMwjyusmnVDf3x7lZOTGyb5dfdJhr5Znauy/zSYk+wkZLzNZ4ofzQ92m+iqqOR72C+v8ARS45sxsOW6je3JJyKqG32Op5qFVRiRhabG6nO1smJRdpsmSGnMOLaF0VU5wbosw/LmOYLpXF9L4kD3gatbdc5qmZXlUNSsWZ819PxEFkfU933/GRZLbNbb2USUWee+qsA0vYbfMPuodS22qYmZWog0sjCEISlIEIQgAQhCABetFyB1XiXD89+mqBUsvBe8Ly4DBj1PLxJQV1dhTc3jQUVQ2CV3lOWz3Aga2J01Fwuz/2h5uHqr4J/Cir4UwWXBsKnGJvipJZ/Gka4SRtc5z/AMznFpN+9uS4Kdwuz/FkZv7N3wZv/p4r/wDsBNLvLOUYHHmq2lw72XUuGIDFTNld/wBW/wBtlznhqHPWRt2LnWt2XXaSEMhjaBYAWHZa0I9NMV5/ctadbtk2DRovovZJmsBJICYqZxDC5xNrC6yuJYy+R5bGbhSLC2LCfdlxi2LsgBY0gutrZZerxMNJJJc47dlGllkfcknVPUHD+LYnGZKSglfEBcyOsxn/AHOsD7J2y3Y2c2lngrJ6+U3yusVHNRUn8zitYzgmqa4CoxDD4NDcNc6Ug/8AFtvugcHVDiQ3FKVum7oJNe2l1KlJ7qL+TKTvqXMzLirqRu5+ndTaTGKiM+Y3Cnz8JY9GLxMoqoWvaKoAdz5Py9FU1EM9HP4FfSTUs2+SZhaT6X3THLGzJarIyfqSL2lxvMBmNvRXeH1/i2IddY6ERuGgCv8AAozcaprwaNfVjc0sZeXh3iEN6J8ZiAdz1TdJHcakCyliPMdFGybOURJpHB1/l7qpxCtMbSSdFbVrHAEX+izGNtJBACjbWdxcbECtxgNuGEkqpmxWpeebRySpo2g6hRZnxs3tdTxkkUbep8sRJWVTzcuIHZNmSoJvd/1TtEysr6jwMPop6qTm2Nhdb16e6v6XhLG3a1IoqXT5X1Gd2/Rgd6p6m3silOda/VIz7JqoHdymQ1E1hqWn1Wlj4OfmAOLUvr4MlvupEnBVc2/4etoKgDbzujJ9Mwt90rc1zF/JhC2ntIqsKxWSF7WvebcidvRaegq4ZBcO1dusziGB4phjQ+toZYY3bP8AmjP/ACFx91HifNTkFjnWGwuoXie6NGuXq7PKN60g3CQQASR+bdUOF4wHERzXaeRV4xweAQVFNdhyl3KbiCK9LLcaZSuV4n+zqJG22cuu45HmoJdORXJ8dbavlA2Juqt8OqvPk/z7DLJtLHmQGOsQ4ahN1zQWhwHzBexmxsSvag/syPdU+GU5NSqaZWoXrhZxHQrxSGSCEIQICEIQAJ2EaOPsmlYYLSirrqemcSGyyWcR05pG8LLJqIOyaiuWNM1FgtLjfF+M4xwjw7wrXOpjh2ACcUIZFlkHjPzPzuv5tRpoLLW1nCuHS0FoaVjC1lwWCzvqueYjSPpasxOB8p0uNwqdGshe8I39Z4Pdooqcmn7i94MjDsVpmnc6rrRAEYPRc04CiDsXiO9m3+y6fK3yey6a1dKUfIp6beLZncbllqJDEweUHVVkOGzTVEdPTwGaeR2VjQNSf/OavqlrWk6LQ8G4e2nw1+Jva0z1JcyM82RDQ2/3G9+w7qOEm2orlkt1iph1EHCuGsPwprZapsVdWb3cLwx/7Wn5j3OnQc1MqJZ6p9s7jyuTt6KVUsfK+3Lmo9VI2ENji+da9FMYccnP32ym8yYllHGxuZ72jqSVNxTh7GsPoG4hVYHitPRutaolpHsj121Isl8K4hDgHFGGY3ilE6vhppvFNOHAZyAcup00dY+y6fwFiuN1mK4rxFxRLiUfD1XR1T619dMTSSxv/wAqONrtMwvlAbyupLrJ17pbfX2IqqSbwcUux5Iv9V7Kxs1O6lqY2VNM4WMUozN9uh7ixTTYIzA2SHOHAWe13I//AApbW5GNd+Vw1Us61JYayEJbmP4g4X/BRvxHCBI+kjbmnge7M+Ec3A/mb9xzuNUrh5wc0Gy3NKxzZGOYR/DcXHoQs5X4U3CcdfHAzw6WdvjQN/dB0LfZwI9LLG1FXo3twdB4dqZSfRMuaOMFreqniI2vbSyj4TZwAJVz4TA0HdV+xrZ3KHEI7A6C3VZPG2BrSVusUY0Qny7rDcQXEb2jSyjnu0SJ7GNxCaziGnVX/DHCLamNlfjQkEbwHQ0rTldI07Oed2tPIDU9hu3wZg7MRxt81VEJaWlb4sjHbPdezGnsTqewK6FLmzGSRxfK83N+ZKv6an0kt+Dn/ENRJS6IkeCJkFMymhZHT07dGxRjKwe3P1NynGGHMG3v7JNZDIBGxxOd/RaDgXhmkxbiSOOulezCqCB1bi8psBHEzUtBHN2jRz1PRauI1wzwkYjnl4K6WgaxrPHjngMjA+PxYy0Paebb7juFHdBLARY3HRdE/tDV7cWm4TxWmh/DRVODCVkFtI2l9w32FgubxySwODnguDhuTsEyqUrK1Jr4DupJ4J9DVvYTke5pOhHX1HNQsX4YocRjdLRNjo6vfKNIpT0t+Q9xp1A3T+QvPjRgC52up9ESQL+6q3VRnv3LlFsq3mLOaz4a5kr4pGvimjOVzCLFpHIhW2FuljYGSm9titJxxQiSjhxVgAljIinPNzTow+1svoQs9Tm4WTObi8M6CmxXQ6kSKpniU77c1x/iWMx4i8dHELspF4iOy5TxxB4WKPvzN0j9auS9n03E1C2T9pmT82yU7WMixJXm5ueSvMCwptQWTTttGdmk7rHuujTHqkJo9JZqrOiBlZhZ6QrHiKlNFi1RT5coa85Ra3lOo+xVcpoSUoqS7mNfW6rZQlyngEIQnEIIQhAArDCpjT1dPKD8p/VV6ki7Wj0SNZWCxp5uE1NdjrXDWOx1FA6nllLahgsQPzN6jr0ssPxROJ8Tc8WAJs1t72F01QyytZDUwvLXtsQR1CYqmvfVAv3vdZujoir0jtPEtXK3SLbk2vw6ic6skeNmtAv7rorh5AsT8OGBrZjtottl59V1l27MLTQxBFXWR3Oguttg8d+HsPAIIFOBv3On1WZfT5nF1jqNFpuEJmS0zsMkP7RhL4P4m7ub7HX3KjrfTJSZDr4N15XYjVgc3yxsJPKwTNHQtbM182ruYtstP+Da0l4bqRuquoifDPmb/wCBalduHgxJRUiVhHDL+J+IqPCaergpH1BcGSSgltw0m2nM2V/8IJccdx/FwjiU9TVYO2Oenr8OqbvgZG1rtcrtGWcBYi2/dZmnr3wTRzAPhkjcHMfG4hzXDYhaDGOPcexLDJqOfGpo45o8kzooWMklbbZzwMxFu6W1TmnFcNfL2kPo8PJz+elpqeeeGkPiRmZ4iN73bmIb9rJ18AbE2O2o0U6njo4rGFji7q4p4APdcsb7nZTuxC10tbsj0FKwZWEkknly7qv46iDazDR5fE8OQnTXLmFtfUFaeiaI43E+HGwAlzjoGtG5J6BZSsqDjfEbJGB3gAtihDtwwcz3Op91l623MkvLdmnoYf5OrsiVQYfLA5glnpWOsHFrpRcAi+quRTgxj/E0v/urOyTmbEJZRpneSNOXJWdz4IJFhzKqwrslFNs3FGTSbYvEKQPjP+Jpf/eWNxzC5HU00rJqaVsYu8MlBcBe17LTVbs0BbrsqagHiVklMTpPG6I+pGn3TL4TiurPA/EoxbyNcAUsbKLEczXB4liJPLLZ/wDNXApiKlrnODs2t1Q8MYqMMxgGquKeVhhm0vlHJ3sQD6XW0lii8TVrWkc2m4PcHmCtDQ3dOYswvEqcXN9mQMTpiGxzhtw3QrY4JJwbL8NpcBreIqzBq3EKsTYg+GgdMZWMv4cdxYZRo71VGHwtiyOaXA7qJJRYe8l7Z3s7AXV6TU0k21gyZVNPKN58ZMOwGPhrhMUeL1FTVRYTFFRxOpS0Tw31kcfyn+FYCakZ+GbG4XNrK6xTF24hDQMrKltQMPpRTUxbGG2jGwNt/UqtdOZiW5LdCm1Zrh0t5BV5lkq2QyUrwP8AMjO9uSn04JIIBsVJpqMyBrlYQ0Ia24CZOxMsRio7FPxC0f8ApuvDgbeG0D1ztssXRxuA222W04ymaI48LjcC4OEk9uRA8rfXUk+yzjYctjZY9vrzclwbvh8HGrfvuJDRlt1XNfiPDasc+24C6eASNVhPiTA3ww/nZGyTz5MsXx6o4ObG1x1W64YqoKfCWzVYHhsbcHr/AOaLEFmvdTTJK6khgzHwxqGrn9XD0kUs9y34Tc9PZKWM7EXiyuOI4tLVlmQOyhregAsFTqwxYWlI6NCr1aoSVcUuMHOeItvUzcuW2CEIUpSBCEIAFKdpYdlFUp26Carhl5w4BNFLCdSw5h7q3qsMDW0sjiGNlNw7qe6oOGJ/CxiIOIDZfIb7a7LeYnQg0EZc27mOIAvsLrLm3VrIPs2vqdr4fjU+Gyj3jlfdFl8Pm/4aa42IBWzZpYW0WN4B0bVx2I8wIWxjsb3XWz3MipYWB4N0SoWuY8SNJY5pzNINiCvWa6KUyIEbDvdRofKOUXmH49TzhseIEQzf6ob5HdyBse+3orCeibNH4jSHMOzmkEH3CxssJa8EHTopFJNUwOLqeaSEnQljiLp0ZSh+ngzbfD4yeYPBdvwpx2ckuwoBoLjf0CjsxjE43XfJHL/9yMH7hNzY/XtbZraUHqYr2+6nV8u6Kv8AY3Z7EoYcGuGluyVWCjw6PPWSth0uGu1e70buVQ1mNYrKC38W9jSLERAM+41VQaeSWQuJLiTdzjqSnekk/Z+fnmWIeGyb9d/IlY5jM+Ju/CUrX09CPnBPmlP8RHL+Ee90YSPAbVVRt+yhIaf4naBMsiaxuUNsAprmeHg4af8Ary3I6taP6lU7t1jzf/v7GjGmFcVCKIFP/mAD6q6ZcUwuQVTxNyvA6q3Y4OgA+ysxW25aaGagA07rdNFn8xp65sodfK4OHsVopSPBcLclnqhoM+o5ptscrDHxWU8jPENEG4jOYxa787fQ6/zU/AccNNC2lr2yTUzRaJzfnhHQdW9uXJLxT9rT0dSG/NF4bj3abfpZQTTh/njF7i5HVVtO8RSf41sVp0RtrxNG0poYquITUU7KmPn4Z1Hq3ce4XjqJzjbLqsbDG6GVssTnMeNQ5pyuHur2jxvF4y0ms8dumkzA/wC5F/urvpbI+0y7PDZLeEvmWwwyQC4AOqmQYa8WzWFlCZjte42MdLrrpFb+acfjWJuADJIoj1jiAP1N0Svl5EC8Pu9hew0zYYsznNYwbvcQ1o9yqrFsbhhY6HDjnl28f8rf9o5nufuqeqfUVMrX1E8spaNM7ibLzwQXA2BCrylKWz4LdXh8YvM3krZWuL3Pe4uc45i4m5JSS3RWE8bQNB6qA82fltoomakUM23WL+JLP8Iw23vZbU7myxnxGd/hYG31Lih4jyMtTawjncUV23Jt26p5kYL2jcNbqVPoKeN8wdICdb2BtqlcTNjpA97TbNGLeuq5KWo9JJQXLN2Oh/t4O2fCMliD880rgbi9h6KGpEhu09bKOtqK6UkcBqJuc3J9wQhCUgBCEIAFKf8AMoqk3uQUEtfDFwueyQOjJDhqF1KjqH1+CwzxkOLmAuaQTZ1tdR3XKwTqAdF0T4SVMU0VZhs2rgPEjB76H7qtqYZSl5PJ0fgOoULXS+JL9zQ8Mskp6+UPFg8D6ha+J2m6pS2KJzXBgbcAg2VnE4WBtuugi8rHkK163vJ8RNlMp3i24JVZG8Aap+mfzvqlcSVRyi1axrhfQL0waXUaGY5rDkpjZsw7oUSGcWRZi5oB9iFGe177nLop8sgBNgm4ySLBvJHS2Ci1uRRSXFyvJmNawhoA5Ka45Qb9FEqCLHTVOUUh63IDswsCpWKkslip/wDQiDT6nU/qkUMYnxCGI7F13achqUzVSmeplm5veT7KPGbEvL78fcJfrQhou5bvgbhvCcXwTFcXxrF5sNosPdCzPHB4pc6QkWtvyH1WGjFiOi6Dwhj3D2G8C4hhuLUFTX1FRXRztp2vMUb2sbYZ3jWwJJsNTopptqOIi29XR6vO3BV8W0HC1FSROwDiGqxOZzyJGTUhhDG23BO+vJYSpb+0v1XU+MsHwOu4EpeMMAoX4a38WaKsozMZGNfa4cwnWx0+o6LmFVbNpySReYklEuqHf4/8Ho/2mDSC3mhmD/QOFj9wmaW2bTknsJIe6en38aFzQO4Fx+ii0jiS2+h5qvXhSkvj8/8AuRYf7Is/w7ZBtYoFHYjS9gnqV48MXGqlkiymcRjW5EZGWgNUmO9kPFrOOg7L0PaBcc01RYjQ81lxcpt5DQeyS+oDW8uqhzVGZpcTzTukSMGxU0ml7qC91yRdeyy7hRg42ud1G0TKOEKc7RY7j2OScx5BdrL391r3u0JtyWcxj9pfzNGZwuD2VfUTUapS8k/oNph6S6EfNr6mTwylkMou036WVXx48h8UZGriftp/Mrf4ZRBgMrm2a0XJK5vx1VsqMY8KMaQggnqTquP8Pi7L1JnRf1FONGglDO7wvz4Gef8AIfRMKRLpH7KOujPMbOQQhCCMEIQgAUlmuX0CjKTD8rSglq5PeZV7wRWuoeIqWQOyiR3huPS+33sqIbp6AubIHA2cCCD0TZLKaZd01jrtjNdmd5pzLVROztBextiANE5RvOQB3zN0VNgGJOqaGCuY8gPaM3r/APKt3zRySNeywLm+b1WvW+rD8zYlhcErxARbndPNfZQg6xNkuJ9jqrMYrBOnsWcUo3upDJOYP0VZGdLgp6OQgXTunAriWYcMt+qcabA6fVV7J7Ovf2Tvi5rm9+yY0McX3JD5fKdLEaEBQKiXXayJKgi93aeihzzBzT+qdwhenG5JpZ/Ahq6nLqyLI3Xm42/S6gwSOz35EadkqR9sMp4uc8xee7W6D73XobYg6AKtS+qUpe36bfXIyKTyx9hdfS2q3/C8PDOKcHVGEYjU0mEYw2oE9NiE8bi2RlrGJ7hsNz9Oi59BKwygOI6K2qKmL8O1ke4GpU7jleQ+UepJLY2XFuJYThvw9peEMIxGPFZPxhra6rhYREH2s1jCdTy17d1y2d15DqrZtQDTyMuDmVTMW5rX0TXHpQ+uHo00NU07qWuglvoyQG/a+qeqrQYjPENmyG1um4UeoYHAjqEjEpryU1QTfxoG5v8Ac3yn9FVn6tqfnt+fuI1iafmXVNN5B+qmRPBaG307qjo6gFoAOqnslIAN7q2heknvk/LfXsmXy5T17Jjxri50ITL5rG6XA5QHZZdLbXUeR9m6O5pqWQE7qPJKAkHKI86Q7pIffRMZ8xtsiPV5N7gqGT3I5vYenfliJKrKWndO4ue1vN2qnTPbdoefKTqo1fVxteGRk2ygaLL8UfTpZv2fV4LHhUerVQ9/03I+K1DhQyBzQyGOMlx2zWC4pVzvqaqSokN3yOLj7rp/xBrvwnDj4mkB9QRG3rb832XKwsnwuD6HN9xn9WahO2FEeyy/e/z9xM3yH2TCen0ACZWocVPkEIQgYCEIQAKRTn9me11HT0B0c3rYoJKn6w6zmU6wEi46pptgLbqRALvaDsBdNkXKll4Nr8OsRZ+1wud1mu88frzC3cdO1jDIxx8vLsuMUj3xVLZI3lr26hw3BWywnjQxFkFcy17DxG7H1C1tOlOqMlzx+fAvQ1Ci3CTx5G8aQRe6Be++iahOhb9E5c9bK1EuwkSI5LCx0slsl73uo+nPdKaQNQVJFoni0S2ya7a8k54hFiVBzm3UheOmfbyJJJNDyRPILG/0VdUzG+XryT0j3Zbk36pOFQ/icWgDh5Guzu9G6n9FBZPphl9hs5KMWxzFX+DXxxA+WmibH72ufuVS4nj7aZ1nAlu2iuqiEzmWZ3zSOLvqsnxBhsjZLkHI7nbZRVpwikyOpergs8OxOOsBlglDrbjmFYf3kQMpdZYygwqqpaj8VSyi35m9R0Kk1dVKDcggnkrCXcdXKS/Ua01wbHmablVdRXujJklcGsHMlVVLXSEWIuAq7GGVdbMHvJbENmcgo5ZbbHzm/wDU0tNjMVTIGxnMOqlVDjLg5kH/ANPUEf8AF4v+oWf4eonFwc4WaFrMPpRLDWUgGskJc3/c3UfzVa3ZdXk/z9htjwk/Ii0EwIBVvFLoqCnDo3AAXVpA/wAu9irUH2JdmTc4tfmmnyA8kkv8pN1He8m9nJ+dhUwlefdNE3sSkuJIOqRrmOqjcsA5D4cGn1S49AmRe4Tu3qo5FechFRGZgbZrAjZRTDDGTK4l1ieabxHGaXDQ8TzNZYXIPNc+4i4rqK+N1NSh0UJFnO/M4fyCyfFKpWVqEVy/p+In8P1tWkk7LXwtl3bZD43xYYpihETr09PdkZ/e6n/zoqFovZKftbkhmjb9EyqtVQUY9jnNVfPU3ytnyyPUHzJpLmN3nskKQzZvMmCEIQNBCEIAEuH/ADAOuiQvQbEHogVPDySmqVGMpJ7DVMRAOe0DYlPuOrrJkjUoWF1DgdYghFXycDy0SXa305LyQ3iZvpotDw+e0ofH8/YZrFwzsWC1H4rCKKqH/VhaT621VhyWe+Hk4qOFoG3uYXuj+9x9itC3QLQk8Nmhp59VaZ7c72uEX0vslbnuvC240QmWYyBhNrnqlsPNINgENBPolckSdR7MAdGhS8FcKWSSUwslzsMdn3tY77KMyPzc/UqSwtDQ0KOUVNYZHN9SwTvxFMLg4fT/APe7+qj1L6OVuV2GU7gdwXO/qoz3XvY69Etp0HLRQ+ij7fm/5G4SWfuyNNDRxNcY8Lph/wA3/wBVncYlp2HXC6Zw/wB7/wCq01Ubgi4F9lQ4jS+Jfmnejil3+b/kWOX+MrqGpgf5G4VTNB3Od/8AVW8UNJIwF2GwW/3v/qoVHhzmHNY2VrEA0WJTHFe35skisEumkoomNazC6cAfxP8A6qZBXQwytliw6mDhfUueeVuqrtBqvQ7TdRyrg9nn5sHGMlj7sjTRAPzAWTkJtunCWm46cky/ym1jqplLDHxkSi7y6uBPQJh4AJ+ybu62i9MmnUpVMkyJff8AJb3XoXnK69Fr7oGNi2EJY1KQN06LMjLzyF0x8kE2cn44n8biKude4DwxvsAFnuql4tOaitllJuXyOcfcqHrp9VV1cszUfIxOW5AUknyEdSlv+QkJmQ2YSqqGz2I7jdxK8QhKUgQhCBAQhCABCEIAnURBaDzanz8ovzdqoVG+znM/eGiluIL2i6Y+TUomnWhRO9uiaDruyk7pZPzellGcbO9FLp5+jmpDdS8rB0n4SzgwV1KTq17Xgeot/Jbdw1XLPhpViDiNjC6zaiNzPU7j9F1d4BGYLckuCxopdVeBAS7EjQLxgJTpbZpJOm6jzgt5wxgtJdvqlNcAnGMDhcc9imXjz5bpkpbkuew614B5J+kpamseW0kMkltyPlHqdgp2FYRE+FtXXEiNwzRxg2L+56D7lXTKiNoETAxjG/Kxos0eyztR4kq24VrL/YqW6pR2jyVtNw+QL1dWL2+WFub7nT6AqxpsKw2IWFMZD1leTf2Fgh9XGwEucB7qFUYzFF8pzFZktRqLf9n9Ct12T7l9TUdFGBkpqdmlriJt7J18AyhrCGt/dAACx0mPTuPkdZTsCxTEa6vgoKSB9VVTyCOKJguXuOwCa6XLkcq+7Zp4omxNuXEFQquCnfmHhQvDt80bTf7KZxHwtxbQYbWV5/u6qbRC9bFR1rJpaUdXsGotz3WFix2ojPmdcJPQPsJ0R5TL2qwrD5Qc9DCL82XYfsVV1XDtK9p/DVU0BPJ7Q8D3FinafHGvAD9FNbVRSNu1wR1318Sf1HKyyHDMvWYPiFFH4pjE0bd3xHMB3I3HuFAtmZcuutjLWNjN2vsRsQdVX1tHS4nd8Zjp6r98CzX9nAbeo91ep8RfFq+JPXq3/uZmNwc4svqEsssLpDoJoK98MzHMkYbOadwVMDRZacZJrKL3Vtkikmw0svRt6Jb2EPtbRDBfZPQmRcTTpoo3ENQKPA6ucm2WJ1j3Og/VTWENWT+KNb4OBtpWu1qJBp/CNf1skckllkF0nGLZzJ5zPuSvARmOmi8RyWZJuTbZkp44B21uqjTnQBSHnbsFEkN3m2w0CREFzEoQhKVgQhCABCEIAEIQgD1pLXBw3CnNILwW7W0UBSaV1wRzakZYolv0jzjoUy7Up1x8qaO6ES2Ml4TVPpa+CdhsY5A8exXdqeVk1MyRhu14Dgex1Xz8DY3C638NsU/HYEyB7h4lN+zPW3L7fotbS2ddfS+V9CXRz6ZuPmaxg0P0TwALch5ixTbTbVKDw07qRmk+RTGhvlA0CVhtKyqxNkMgvFq+QXsS0C5Hvsm3OO/NLwyrjp8VifKWtjdeN5P5Q4Wv7GxVTUOSrl084Ys2+l45J2JT1LiQy+miYhosZePE8MWO2Z2q0lNSAOPiNAIKmENAa0BczC3p4RmZ8jHS4diz3gSBrQed7obw/M+5knv6LVvJadbFNukjG/lPZW4XJkkXkzQ4dAjJ8R2Y2y6roP8AZ/4dqGcb1lVTPzVVNhdQ6ludpXBrGnt8xVCaiPm4EDutt8GsWo6Xi4wTVEcArqWSmbI42Ae6xbr3IsrKaHWp9DwipwHgHGsKpsVq+FuOqCuxhtHIzEqSGEkyRE/tA1zwRJrzt6HVc4/9PXgDg92wsu5cBYPinCWN4jjfEFHLQUGH0crHSTaNmcdGtZ+9e3LsuVmcO8oIAHU3Q2kggst9zNvwOoYbslS4cOxMGzSy3UkrQh7C69y5OsGYqtO9ISWEZyTCcQPmdK09mp6jo5oJW+ISQtJYBtyo1QwX7qq7XIYip4opGOpoa5rAZGuETz1ba7b+liPoqVthorriaqbFRQ0hI8SR3ikX2aAQPqSfoqAP5rb0Dl6FZNHTZ9Gsnso1ISWNSybpNwNQr6yTHriGjM46DUrl/wATa0VGMxU4dfwY/MOjna2+ll0PEquOmp3yyuDY4253k9ByXF8Rqn1uIT1Uhu6V5cqGot6rPRx7bv39l9/kRav/AB0ZfMtl7ly/nt8xknRejZIPzL0nyqIxkxEjvLfmoydndrl+qaSlax5YIQhBGCEIQAIQhAAhCEACXE/I8OSEIFTaeUTH2sm15E7NHl5j9F6hFlvO6BX/AAJi391Y6xz3WgmHhyduh9lQL1ps4EKSux1yUkEXhpn0LBI2SPQ3uN0OvYhZ3hOolGC0D53FzZ4QWv79Cr57iW3G60YXQsj1Q4NpxlF4keG4J8xI/RNZC5+p23Tlw7S6Wxlt+SZJdQ+LNFgWMsbCymrn5coDY5jtbk139fqr5zrgG4IIuCDcEdQeawZuLC3on6WuraIFtPLaO+sbhmYfb+iytR4d1+tXs/Iis0qlvE2Trc1Hly6mwsqum4iic0fi6R8buboTmH0P9VKFfh9QPJWRtcdLSXYfv/VZ09PbXzFlSVNkXuiLVRCQktu30UQRVDCS2QhXMcBlAERZKCbDI4Ov9F4KOW1vCkP/ABKYrMCqTW2SslqcTqmsjq6+qnjZ8jZJnODfQE6J+laI9wXFTBQSNb/kv/7SkOo52C+RzQTYE6D7pXan3Dq9o5TtaQCdCpDbC1tlCE9JDpNWU7Dv/mAn6C6akxqgYP2bZ6gjo3I36nX7IjTZN+rFsRVzlwi2+YgDXooWLV9NQsdnyzVP5YQdu7jyHbcqlqcaxCcFkWWmjP8ApfMR0zb/AEsq90Ybtc3V6nw55zY/gWK9K+ZkOtmlqquSpnfnkebk2sPQDkF4xwCVO2x2smmjVayj0rYu8bDxd0TcsmRl+ewHdeuc1jSSdN7qh4ixiPD6R9Q8+a1mM6lRanULT155b4Xm/wA5JKKfSyeXiK3b8l+cGf8AiJjNohhkLruf5pj26e6woPNLqp5aqpfPM4ue9xcSm1Rqg4R3eW937zF12q/ubepbJbJeSR63dePdYE9EJqZ1zl6bqUoylhCCbm68QhBXBCEIAEIQgAQhCABCEIAEIQgD1pLXAjkn9CLjYqOnInW8p2P2QSQljYcQEIQSHb+DqZlZwPQRO507S09CF7TzyRzPpanyzMNj3Tvw9u3hPDbEG8AVjj+F/joRNCQyqjHlPJw6FZFGuelvl3i3uvv7zvXo1qNND/6SWH8CMw66qVGW772WfpK5zXmnqQWTNOUh2hv3VxRzNcNCD2XUVzhbFTg8pmDOMq5dM1hk8R5rW9k6IC4ae6bicNlKY7ax9U5odF5Ew0bXHW5UoUENtWJVOW5gRzUlxtrfslUc7Du5HjpIAf8ALaCNb2S2xtjN2Oewnm1xH6JbjkBIN+4TAldm10SyinySrcelBIs6WRw7vcf5qGYIzIQWhw31T7ZBcjW6be7KSRqbaJFWktkOXkMyUsLbHKBfso80bQfINuSkSSO3f0UeaQ5czAL7bpJLAxrAzcgg2sDySJngA7L0y3eRyA3UOok3JKa2NewmZ4umc4BKi1FS0XJNgN1V1Fc+okEFM1z3OOgHNV9TqIUV9c3/ANH0UTvn0w/8JtZVl8jYogXOOjWj8xWN+JbDB+Bgc7M8hz3nvoLLfYRh4pQZZSHzu3dyHYLnvxUmz45DH+5CPuSucq1M9Vq1OXbJqeK0w0vh0oR74+O6MghCFtHCHj3ZW358kwlPdmN+XJJQQyllghCEDAQhCABCEIAEIQgAQhCABCEIAEIQgB6N2YZTuNu6Uo6ea7M0/vAfVBNGWdjvXALbcK4a020hbf31WjtyKo+EIjDglFEdxAwH/tCv9MtyPVczN5sk/az06iPTVFexFRj2CRYlH4kZ8KqYPLJ17HqFkxV1WG1P4esjcx7dr8x1HULouyquIMMgxCkcyVgJHykbg9QrOl1dmmlmHHddmQanTQ1CxP5kDDq6OaMOBH1VnFIxzTZy57K2rwioIBc9gO/O3dW+HY3FI1ocQ1dNpvEaL++H5P8Akw7dFbR2yvYbKmqDa19QU/JUjQX33ss23EGFt43j6pceINAte55rSjHbJBGSe5fvmIjA3B5JoyWNr9yqb+8Rrmcb8l47EW6eayVLPJJ1YLt0xaSeY2TTqkNFze/6qn/Ht+Yu1TUmIXI1FkxocpLuXMlQXts0jXqVGfJYZc30VW/Eb87AqJU4pFECXvAUUkuRrkW0k2RuhVLieJRxbu9uZVTX45LKDHTA2P5ioNPTvmkzSuL3ErK1fidNG0fWf7fnu+Zao0Nt7y9l+/57/kS2PrMTqBHCMrL6uOwWpwvDoKKH9k27z80jt3f/AM7JvB6EQQhxADiFasabLmdRfZqJdVjOj02mhRHEEN28pHILknxHk8TiiYfuxsH2XW59BYHQLjfHLs/FNb2cB/8AiFY8LWb37v4Mf+pJY0iXnJfRlIm5XX8o25917I+3lB9SmlvnAzl2BCEIIgQhCABCEIAEIQgAQhCABCEIAEIQgAQhCABeg22XiEAdd+G/GtLVQR4biszYawEMjkdo2XYDX97sukkA2ds07+q+WmktILSQRqCDsun8C/Eh7Xsw/iFzfDNmsq9rafn+2v16rK1Ohw+uv5HY+FePKSVWpeH2f8/z8zq5BBA2CQ9pJt1XtPPDV0rKinlZLG4Xa9jrhw7Fe30PULPWTpWzNcQ4eHguaLrDV1O6KUltxruF1aqYJGkEb81kscwwXdYAdChbPImMrDMcKuojN2vuljGath11RXUj4nkWVe9pBK0tPrLqliEsfnkZ99EZPMl+e8sP77kzXczX1Q7GyRqHKrLSkFpV+Pi16W+H8P4wUJaSLe2UW/8AfZtazvqkuxua1mtt6lVORehttSmT8V1D4aXw/nI6Gkgucv8APYTn4hVS6Z8o7JLC9/zOJ9UzGPdSoGEutZZmo1Vtv6pNmhRRCPCH4I7kALR4HRXcJHeygYXSZ5ASFqqKEMjACzpZbyaUI4Q9Ezzb6AbJ7l35LxuiruIcfw7AKN01ZK10xH7OBrvO/wBuQ7nRNjGU3iKyySy2FMOqbwkO4tVU9DRvqaqVsUMY8zz3XEeIK9ldi9VVQhwZLISL72UriviWv4gqQ6ciKnYT4ULNh3PU91Rrd0WjdC6pcs4Lxrxlaxqqr9C+bYIQhaBzwIQhAAhCEACEIQAIQhAH/9k=;" parent="1" vertex="1">
          <mxGeometry x="860" y="70" width="90" height="90" as="geometry" />
        </mxCell>
        <mxCell id="W-q-6n3VgXVyglavIU9t-21" style="edgeStyle=orthogonalEdgeStyle;rounded=0;orthogonalLoop=1;jettySize=auto;html=1;" parent="1" source="W-q-6n3VgXVyglavIU9t-14" edge="1">
          <mxGeometry relative="1" as="geometry">
            <mxPoint x="860" y="110" as="targetPoint" />
          </mxGeometry>
        </mxCell>
        <mxCell id="W-q-6n3VgXVyglavIU9t-27" style="edgeStyle=orthogonalEdgeStyle;rounded=0;orthogonalLoop=1;jettySize=auto;html=1;" parent="1" source="W-q-6n3VgXVyglavIU9t-24" edge="1">
          <mxGeometry relative="1" as="geometry">
            <mxPoint x="910" y="310" as="targetPoint" />
          </mxGeometry>
        </mxCell>
        <mxCell id="W-q-6n3VgXVyglavIU9t-24" value="" style="rounded=0;whiteSpace=wrap;html=1;" parent="1" vertex="1">
          <mxGeometry x="850" y="210" width="120" height="50" as="geometry" />
        </mxCell>
        <mxCell id="W-q-6n3VgXVyglavIU9t-25" value="Convolution Neural Network" style="text;html=1;align=center;verticalAlign=middle;whiteSpace=wrap;rounded=0;" parent="1" vertex="1">
          <mxGeometry x="865" y="220" width="90" height="30" as="geometry" />
        </mxCell>
        <mxCell id="W-q-6n3VgXVyglavIU9t-28" value="" style="rounded=0;whiteSpace=wrap;html=1;" parent="1" vertex="1">
          <mxGeometry x="855" y="310" width="110" height="60" as="geometry" />
        </mxCell>
        <mxCell id="W-q-6n3VgXVyglavIU9t-35" style="edgeStyle=orthogonalEdgeStyle;rounded=0;orthogonalLoop=1;jettySize=auto;html=1;" parent="1" source="W-q-6n3VgXVyglavIU9t-29" edge="1">
          <mxGeometry relative="1" as="geometry">
            <mxPoint x="750" y="340" as="targetPoint" />
          </mxGeometry>
        </mxCell>
        <mxCell id="W-q-6n3VgXVyglavIU9t-29" value="Well-Performed CNN" style="text;html=1;align=center;verticalAlign=middle;whiteSpace=wrap;rounded=0;" parent="1" vertex="1">
          <mxGeometry x="860" y="325" width="95" height="30" as="geometry" />
        </mxCell>
        <mxCell id="W-q-6n3VgXVyglavIU9t-32" style="edgeStyle=orthogonalEdgeStyle;rounded=0;orthogonalLoop=1;jettySize=auto;html=1;entryX=0.453;entryY=-0.333;entryDx=0;entryDy=0;entryPerimeter=0;" parent="1" source="W-q-6n3VgXVyglavIU9t-17" target="W-q-6n3VgXVyglavIU9t-25" edge="1">
          <mxGeometry relative="1" as="geometry" />
        </mxCell>
        <mxCell id="W-q-6n3VgXVyglavIU9t-33" value="Feature Extraction" style="text;html=1;align=center;verticalAlign=middle;whiteSpace=wrap;rounded=0;" parent="1" vertex="1">
          <mxGeometry x="860" y="150" width="110" height="30" as="geometry" />
        </mxCell>
        <mxCell id="W-q-6n3VgXVyglavIU9t-34" value="Training" style="text;html=1;align=center;verticalAlign=middle;whiteSpace=wrap;rounded=0;" parent="1" vertex="1">
          <mxGeometry x="910" y="270" width="60" height="30" as="geometry" />
        </mxCell>
        <mxCell id="W-q-6n3VgXVyglavIU9t-38" style="edgeStyle=orthogonalEdgeStyle;rounded=0;orthogonalLoop=1;jettySize=auto;html=1;" parent="1" source="W-q-6n3VgXVyglavIU9t-36" target="W-q-6n3VgXVyglavIU9t-39" edge="1">
          <mxGeometry relative="1" as="geometry">
            <mxPoint x="540" y="340" as="targetPoint" />
          </mxGeometry>
        </mxCell>
        <mxCell id="W-q-6n3VgXVyglavIU9t-36" value="" style="shape=image;verticalLabelPosition=bottom;labelBackgroundColor=default;verticalAlign=top;aspect=fixed;imageAspect=0;image=data:image/jpeg,/9j/4AAQSkZJRgABAQAAAQABAAD/2wCEAAoHCBUVFRgVFRIYGRgYGBgZGRgZGRgSGBgYGBgaGRgZGRgcIS4lHB4rHxgYJjgmKy8xNTU1GiQ7QDszPy40NTEBDAwMEA8QHhISHDYrJCQ0NDQ0MTExNDQ0NDE0NDUxMTQ0NDQ0MTQ0NDQ0NDQ0MTQ0NDQ0NDQ0NDQxNDQ0NDQ0NP/AABEIALgBEgMBIgACEQEDEQH/xAAcAAABBQEBAQAAAAAAAAAAAAACAAEDBAUGBwj/xAA+EAACAQIEAwQIBAUEAgMBAAABAgADEQQSITEFIkEyUWFxBhNCgZGhsdFSksHwFFNyguEVM7LxI3NDYqIH/8QAGgEBAAMBAQEAAAAAAAAAAAAAAAECAwQFBv/EACoRAAICAQMEAgICAgMAAAAAAAABAhEDEiFRBDFBkRNxImEjUhShFTJC/9oADAMBAAIRAxEAPwCZBJlEBRJVEuQEqyRRBUSRYA4EkUQVEkEAcCGsYCEokAcQwIwkgEkCAhARAQgIA4EICICEIAgI4EcCVcdxCnSHO9idhux8hIbS3YSb7FsCEBMinx+m2yv4XAF/nDbjKg29W+19ht8Zn88OS/xS4NUCFaZVLjlNhcI/wH3lhOL0fxEeYIkrLB9mQ8cl4LoEeBTro3ZYHyIMlAl07K0MBFaGBFaSAQIrQrR7QVBtFaFaK0AG0VoVooABEVodo0kA2jWhRQAbRR7R4BxiiSKIKyRZBYNRDUQVhrACWSLBWGsAICGogiSCAOohARAQgIA4EMRgIYEAcRqtVUUsxAA3JidrC9pzWPqNXfKWsgOgGxPj3zLLkUI2y8IOTotf6w9RstNCq/jO58R3SvieGqDma7E7kkk6+cnQBAFUfbzkrm886eSUu7O6GNR7IzcPTCnQW8L6f4llqvhr3bfCO6AnbfeRjuMwNdNgBgNQLXOv+Ya1VPgb/wDd5WqUyu/+COmsZkI1BuDJ3IaROyqNQLd9txf9Jbo4moDdahI7ibzOR+4/v7eEMVMvXQ7eE0jKS7MzlFPujpsNxFSOYm/j+9JOcelwL7zmade+8soQ2je6dmDNJ7SObJjS7HUKb6wrSLCnkEmtOw5RrRoVorQAbRWhWjWgDRiIVo0kDRoUYiANFHtFAONUSVRI1kqyCwaiGBIK/Zbymbr4yLIo3AIYEwAT3x8x74sk6JRDAnN5j3x1udrxYOmAhgTl7Nrvpvvp590cqwvo2lr76X2vFg6oCFOUKsL3DC2+4t5ywmNNOi7dSwA8OU3PwEWKD41xTmNJDsLu3cD7PnMmljc5yJYgbnUyDHpTTMjO5JJzEIrG/vaWuC4FFF1ZzcX5lCn5Ezgy3KTbf+ztwSikqT9GnhQQLWFu7QycuI1GlY2B+0negZhpfK9m/wAivs/RSeoBIXr28QNddCJaqUxsZXeiO9vgJVxfK9l1OL8P0VDjNLA+4yJMUNQdO8dJZ/05Drc/AfeRVMCoHab3KD+snR+17KuUeH6K9SpY3WMa99xpJfVUz7T/AJR94yYdLnmfx5V+8uofteyjmuH6BWvk8R++k0cNilbUHXqJnYzCjJmQk62IItpYnp5TOwyHdWIIPnNIpxZTacXR0+N9KFogDUnbQXlj0e9L6eIJUHmG46iUaWESohV1BJB1E5H0Vwwp490ufLoNb+/edsJWjinGnR7Kj3jxUlsBDmhmBFCjWgAxWhWitABtGMKCxtJAopF/Er3xQKZyFSoEFzCw1YOLiUuLrenbvlLh1f1aWbykF1G0aOKx6glL76QsFikQNmVjnspsQLIb5t9z2TbTs7zEekS+c+E18IgKsQqswK6MSLLY3IsRfWw8JVlmki/hsVSY8yqtiDcohBTlutidSbNrqdet5BiMYjLlSmqkhRfIoIHtDNmNz42B3hfwdMWu7akAWZNblefwXmOh7t97SHBUrZs5AsDYMp9hSdbdST8PgKmapk+GqBWub2swuNSMylbjUai99+ktUcFTa5DNYWBGZAdchzXI2Gc/l6dBamnrAqgFclwC1wzZMwFxawLWHSATUseisW5zqDaw57IyWc5ut79dyPGSJxJBl1c5S24UZ8xvzcxtl6b38IFKhTzNmC5bi/MeRSjZiuutnFuuw74T0Ut2EB5swDk5SDyW5tc2l/0ggjrY1CmUFyQuXUABrlDmbmNiMtgNdhrMPipORfwhyT3Xy2X9Zs4ukoVyqgWKagm4uhzi2Y25sumtr7zP4gL4apps6bbjUW+f1lZdiQmwod6hO2c27vhLuGp62tJEWxbxZj8Ixq5BcC5+E8/Mq7cnf00vwX0W1oMNenftJS5vYj9Zg4nH121Wk1pBS4s6XDgrf8QP1lIwfB06jcqm5t4SJaeb5/KVaWKDsApvcX/fykr1Sgv+95GhWaqTolQRqi6aETLxnFl2HylH1mJfVaehO+u3SW+NmcpuzUeh1/ZkYXUQUWsNWBHzElW53lNLTJUrJhYofMfQyphsLctaXEFkN+/9JFwxgWJHcbidC7L6ONf+vs0KNO2Umcxg6ITi1QDYqjj+4a2995vVMWBcE7SXhXCQ9YYnrlCflJ+86cb3pHLkW1s7JNh5R4gIjOgwGtEYUaAKNHjSQDI8R2W8jJoLrcW74COT9Ye+Ka54TFINtcTluJ9j3zPoulTKO6W+MuMlv3tM7hGF0LDcDWCElpNHHoFyjyh4TDq+7ZeZFHLm1fNa+osOXx3lDE1yXCnpaaGGZ1VihAAtcnKCDZsuXNrmtm7Oshhqg34ew3KjQE3YC1wN/ewHvg/6e92BsMu9yLagkeexiw+Pdd7MLDRhocost7Wva2l4v49ydX6k7Lub+Hibd0gqBiKRRmTMDY2Nr2NoqKZja9tGJNr6KpY6dTYGBWqFjdjcnr8pJQzZhk7XTbu130ta976WgksUsBmYqH6gJp2iULi+vLpbv3kicNBy5anbvlutr5TZr66fO/hIUqVrva9/asFvex2PfbNt0v0kjtiNe102C739m3jvl98gAtgwFzB73Usoy2uoKg310N2212lTiFYLhnB3Z0AHebg/QGWqzVsrZr5dL9m3s2tb2extp2fCZXEKgZAhW5zhge60rJ0glZs1HOZhfS5FvrIsdWVBmY2VRc+4d8dic7C3tEySrwcuAxsdQSmwPmJw5X+Z39PH+NfRz1X0wYDSnUItcZVsLdOYqbny0lynxhnRWdGCtsKigHx5l294E3HWounqQfl9IHqahBzKEA7tW+e00U40a6ZWZPo65ao90ZVDgJcbjffrrNniji0WApXcADb4SLiJu9ugmEpW7OiMaVM5bE8Q9XUJ9WCq9SDYEmwNvat3CTv6R1AQv8PiWv7QXINgRZAtgNevvmpUoq+huCDcHuI7++aiJU0ICbDUD/M1jONbmMsck9jCTirC3rFcK2l3QoVJ2uRpb4S7Tyi5DaGaGIw5cEOykHcBdCPHXX3ymcOiiyLbw+xmcpJk6Wu4TMCjfvpKPCH5ifA++8u0+yR3sB17jKHCksrX6HL85ovBzJbS+2UsdVbOSPfO+9FubDo39XxzGcJXoXY7+E7n0QYeoyacjEG2mp5j9Z0YX+RhmX4m5FHinScg0aPFAGiiikgaMYUaANaNFFAPPlwRbtS5hcME2kqyRZBNlbE4RbFrdLyvh8SUFgoPMjagHsZtNRpfNuO6aGI7DeRlTBOg7Yvz0zuByjPmvdTcajSQySZeMML8rEkg3Li+hUi9kAuMu+m/gJlBSTckk951J85tJSoZQbqSAM1y6jUp0HXV/DTbvTpQUkG22gBc35VIzdxvfaQSYpSTUDla5FxZlIva4ZSpsbaGxM0wuHsLWud7s4Ckg6WG6jTrfxkIyB0sVAyHXmYB8pClsw15rHQe6BYNPFhTmCaggrzaDKpQX05hlt3aj3SROIBctqfYvlu97ZjzZuXXw2t4yajWphnLZCDY7WzEKQQBl0BbXS3STHEUfaykaZrAXYk+CDQDqLdd+oWUHxSlMoS1lKqS17KSpN+UXN1Oum+0ysfh2NN2Udm2vj4e6bWKrLZgpBzZdABYdWKnKO5R7zJMFSz0Ki95H0lZK0SnTMlnb1r66ZzOnwFcaC05bHXFQADQkse+w/zLOH4jlbfaedk/7s9bp4/xL6OkxuKUGc/xPjCoQii7voB13mfxfjKqCzEd5mNw7AVnY4ljZyGKqdMtxZdOhsYUfJs6SS8nfYEhafTMe0fHuEo49RoR1vOPwtTHKGzKpGbTW5+WkndMW+x9WdyWGYHwFjNNC7GantZp4nFtS1ZQVvv3TcwWKSogdTofkRuJzOHw1V1y1yh/pvrbvv8ASZoqPgql9WoMbHc5T0PlKOCexopeTvWpkqbDQdZQJ1kGH4vdOVrgi+mu8DD1bmU0pFn5ssjb+4fQzMQWzDoW+h3mn7J/qH0MpVKemnX9mbcfRwxV6vtkLjexv4D9TN30ZrGmWW2jAHpuP8TGwyErr00nXej+GvTBYDr9prh3kZ9QqgSHiLk6KZpUWJW5jiivdDtOw88UUeNJAo0eNAFGjxoAooooBxqyRZGsNZBYVfsN5GU8Jhg4OpBzIoHfmzkjzsunw6y3X7DeRmfTpkqzXACkdTqTe1gOuh1MhhFx+GHo4PZ03NnZQu39Y7to/wDpozAB97bqBblRiSSbWu4EiTD1ybAOMob8QsLXIHnbbrBFGsD2XBXTZri+lvC8gkDFUcjZe4LfzKgm3hcxsNTDNY3tZjpucqlrDxNre+NVpOurqwvsWB1tp1ioISwCmx1N72tlFyb+ABPuggv0cArMVuw1UDbkuhfn01ta3TYyROGocvbGfNa5By5TY5uUXv0298qJhajFlDeHaPPcFwB33ALa/UyQ4OqdnDZtuYnPl0O++Xx90ACvQRVJs4JVSuYg6ki6kZRfS5vp075o8CF0ceP6TPq0agUk1Lqebtsc45bsAd7Ejf8ASaHo/wBl/wCofSSiJdjKxeGLFnW3KrA+830ExnpnW283MTWCFlY2BS/ncb/pMzCPr8J5uRfmz2Onl/FH6RmcPw9K/rcS4uW5FbQADrY7k29038NXp30YW+O+0PE00ZToD4EXHzmauHoKb+pW/XltI2fc0p3ZsVai2tmI90qGui7nTpf/ADEmNoWt6tAf6QI38bQ/lr8BL0iUkMcVS/EB++sqYvHUSpBKtfQ21vfwk7sjf/GnvURIiDRUC37gF+kq6Q02ZfC8GM//AI8wpspIvfkdTra/Q328Js06RW1zrL5UKoRB01/7mcxIbWVbthdqLZ7P9w+hkaox0C3F2ub7W2Hn9o7HkP8AUPoYOB4iliA40JBHiDLvavo5sKb1fbDpYZlJv16CdtgaORFXuAv52mPwrCl2FRlso1F/aPT3TfE6sEGt2cvVZFJqK8Dxoop0HIKNFFJAoxiigCiigmAK8eDFAOOWSCRrJFkFhq/YbyMoYeqVvZAdNSQTYEWOl7W16g9Jer9hvIyphKyqGDE2NjlA7RANrm+g11FjcEyGQiZuKuSCVS63C9vlzCxtzdbdbwU4g4ULpYdxddzc3ysL38ZOleloABazksyITezlLAk7Er11tGOLpXACADqciG55rm1/FbDYe6QWKdfEZ7DKosT2b9empOngO8waLlWBAB3FjqCGBUiw7wSJYxtZGChFAtvyhTsNyDzagn3yHC1ArAm4FmFxqRmUqGHiCb+6CCdMa4JIRb6G9m5CAVBGulgba9w6w/49xsijLtytyZjc2ufa8b+ElpY5FYtdjqDaw57IyWfXre/XcyROIoMurtlJvcDnzG/Nzez0390Ap1MU5UqUUADLoGGQGxyi565b63O80vR/sv8A1D6SpXxilMoZycuXUAB7lDmbXQjLYb7CW+Adl/6h9JKIl2JsRw+nVpqHRWsARca+V5xb8lRktsxHuvp+k73DVVCKCw2HUTk/SbCMKwemCwca5BnsRob22uLTDqIWrSN+izKKUW/HJJQe4tJXwgNjKtNWCg+re+3Za/0mhQdipBUg26gicel8HpLLDleyvh8JTa9128x57R6mCpAaIB7yP1kbZ1bRCQRuFPzkpJO6sf7SLSdMuC3y4+V7K38PfQfu0lSiF1Oslw6EXJB8rRnBv2W87GRpfBDzw5XsNqlvvM6o+p1lpg34W020O8p1KT/gfX/6t9pOmXBVZcfK9lhG5P71+hlPh+AVGt2mZgL26k9PjLmFQhDmUjnB1BHsnvk3o3SZ66kjRSW+B/6myW6Rya1Umn5Z3VGnlUKOgAhxRp2nCPFGj3kgUUa8V4Aoo148AUEx4MAe8aNmHfFAOOWSrIVMkBkFiPF1lVTmNriZFLGU2OUOLzn/AEz4k2bIptOTpZgcwY333mcpJG8cEpLY9dOEsM2cW8jMrE8SpobM4lXD4uo+GB6hZxdeoxbn3m2OMZGTi06Z6bw/JWF0qCXxwpvxj4GcN6FVmFUgbaT0n1yjcyJRp0VexRHCW/GPgYQ4O34x8DNJGB2kglaBlf6M34x8DNDh2ENMMCwNzfTTpLAhCKAQpjuHwEyPSuhfDlluGRlYFeU9x285sCVuKOgpOXNlym5332sOpvbSJK4tEQUYyTo83pY1/wAbfmMsrj3GoY/Eyrj8I1N2R1KsDsflICZw7nqJR8Jei9X4ix2c/EyvT4k1yfWH4k/WU2qHuEjYnr0l1ZDrhejepcSY+0fiZbOK03PxM5ijXtaXfX3lXYSi/C9Gi+NJ9o/EyM4hz7bfEyousnpLqB+sq2y+iPCNbDEhRdifM3nbYDAqhzDu+s5PgmFNRwALqnM3u1C+ZOk6zhnE6ddFem11cXHQjvBHQg6EeE3wRdOTOPqWk1FGheKVXxSg26ycNOk5aDivKeJxmSDTxt2APWTaFF6KDePBAoo140AUzuM471SFus0JynpyH9XmUXtqfKUyNqDa7m3TxjLIlLtZzr+kNe55huY85T+JPfFPO1ZOT6L4MH9UdxjeILTGsysP6ToWykzD9J8Yc+WYCVBOyWRp7HjYemjKKcnuzX9MFu4cbGYuHab7J67Dkblf02nOYPtBT+ID5yr/ACVmuOTxy0vweh0QUw2i3NtrXvp3Th61Ku7FjQqeQR/tPR1p2oJ5j6GAs6IScUcM3c2zD9GsO9NczIwJ1N1IPlYyfiOPrtcorjusrGbEEzaGZR7qznyYnJ3dEfopxioxKVkZbdWVkB95nXjFJ/MT8y/ecleEsylLU7ovGNKjrRik/mJ+ZfvCXFp/MT8y/eclb92kbSLJo7QYpP5ifnX7zmOP4s18ZhcOt/UrUWrWfUU+TmRC/Z3Xv3IlNYd4sUdZ6T8Mw+JUMK9NaiiwbOmo/Cwvt9J57iMC6sUYXI6rzqfJhoZrwWMylBS3NoZZRVGEcK175G+BjYnBkqbI1/6TN0GGpkfF+zR9Q+Dj6GFqA/7b/lb7eM0qdB+qN+UzoLxmMPEuSF1DXgxvVt+E/AzR4Vw81HsWVF6s5C2HgCdTJTBvIWFeSX1LrZHcYIYeimRKid5JdSWPedZwnofjWpV8VTZWVPXu1IspVSpdrgMRa2x98kvHBm3ikcztu2dK9dDUzesW2ntCa4xlL+an51+84MxQthR1nE8UhIy1EPkyn9YVGpTLB2qp+dR+s4+Ix5sUegfxtL+an51+8f8Ajqf82n+dfvPPgYrybI0no6uCAQQQdQRqCDsQYpW4b/s0/wD10/8AiJZlioiZQxzowytaNxbFZEJnK1sQ7bTj6rqviailbZtixOW5O3o7hyScq6+UUpeteKcX+a+Edeif9jmfSjhBc503nHPTZTYggzsm4s1/CQYpsPUW7sqHxIHwncskZPYzhNxSUjP9H8TZ8h2bT3yviMEUxSgDRmuJn1MQiPdGLAHQ2t9ZYxnH2ZlZUVSuxPMftLxi0TmyRdNPc9QrJaig8R9DKqicr6K8Xr16rrVqFlWmSF0Cg5lFwB4EzrFE1OQ2OGOEo1H9WjMGWxdFqWGVtgw02lGvWasQBTQHupoqX36KJocKrZKFU5EbmXR1zr2W6SxwSuHrZvVopA0FNfV30N+/oYBj1uD1kBZlXTU5XR7D+lSSIWG4VUdQyqtjtd0Qn3MQZcpcSpJmK0qxLCxzVAQdNyMmm8nShTQJnd2c8yICVC5uYDYjqJAMynw2q7MgS7JuLqttB3nXeVcXhXQ5GtmI9llcf/kkCdTiKpR8Qy6HKuvnlE49nJ3JvreCRKYd5EJIsActBJjsINpIEDDUyOEsAkJmrw1USm9Z0VrEKoYBhc5tbHToJjGa6qWwrW9l+bwW7a/AGAS40JVoetVFRgwVgqhB1OwsNrSvweihLu4uqLcAi4JJAsR136yaimTCNm9t7geFit/lB4UhanWQblQ3wZftAJUKYlHAppTdWW2VVTRyd8oHdLBxNJKoo+pQqAAzFFJJIDXBIv1lf0eGUO7dklBrpfVr/WDisOxxNrHUrlPhkBgE64dKCu7Uw5DlEDAOLC2tmuPa+UT4VK4pOtMJnYq4UBdiRsLd0m402em+UaJUbbu5dYfCDlp0s27Py302LQCKhiaL1fU+pQLsrBFB0BbVgL9JWWmuHp5npo7s9gGVXFgF/FcdTB4ThmGJVbHTNc/2NaWONjPTRlHKGN7a62FvqIBT4xSUqlVFVQ4OYKAozadB75kkTax6ZMPSQ7ks3kCb/rMoiQQu53HDP9mn/wCtP+Alm8x+DcXoVEWmlZGdFCOmYB1ZBlYZTruDNa8uihR4vhs6WnOsgXQideZXfCI26zk6npFmad0bY8unY5X1ixTqP4BPwxTl/wCM/Zt/kLg+euLYolyqmwXTTqeszCe+KKehBJJUYS7jXiiilip1HoF/v1P/AFH/AJpO8AiikgsJimVGQbOQT7gR+sChWZGDISCt7HbcWO3gY0UAv4njjuGAp00LCzMisjEX77+MGjx10UL6umxRbKzqzPbpds3ltFFIBDW4q7F7gc9r2uNrHv8ACZ5WKKCRKsMCPFAFaCVjxSSBgscCPFBIxWXcBj3oliqqwYahrlfgCO+KKAFjuItUKkqoUW5VBCad6kx6fECrioiItt1QFFItbUXiiggLH8VequUoiBTmsgKg9RcXOunzlmlx5woX1aE5bByGLjXo2buiigFbAcSelm0Vw9uV7vc9SbEC+3wjY3iL1GDGy5eyFuAlhbQE6e6KKAWa/HnZWGRELWu6hgxsQd83hIsBxR6SsopowY9hwWF9NbAgdB8IooIIMdimqtma2mgC3AXTUAE+HylYiKKR5JR5RxdiMRWINiK1SxGhHO2xmtwn03x2HsFrl1Hs1P8AyD4nmHxiikg7rg3/APUqD2XE0mpn8Sf+RPeO0PnO4wPEKNdc1Gqjr3owa3mOh84opdFSzeKKKSQf/9k=;" parent="1" vertex="1">
          <mxGeometry x="630" y="300" width="119.13" height="80" as="geometry" />
        </mxCell>
        <mxCell id="W-q-6n3VgXVyglavIU9t-37" value="output probabliity" style="text;html=1;align=center;verticalAlign=middle;whiteSpace=wrap;rounded=0;" parent="1" vertex="1">
          <mxGeometry x="624.5699999999999" y="270" width="130" height="30" as="geometry" />
        </mxCell>
        <mxCell id="W-q-6n3VgXVyglavIU9t-39" value="" style="rounded=1;whiteSpace=wrap;html=1;" parent="1" vertex="1">
          <mxGeometry x="420" y="310" width="120" height="60" as="geometry" />
        </mxCell>
        <mxCell id="W-q-6n3VgXVyglavIU9t-40" value="Final Output&lt;div&gt;&lt;br&gt;&lt;/div&gt;" style="text;html=1;align=center;verticalAlign=middle;whiteSpace=wrap;rounded=0;" parent="1" vertex="1">
          <mxGeometry x="430" y="285" width="90" height="30" as="geometry" />
        </mxCell>
        <mxCell id="W-q-6n3VgXVyglavIU9t-41" value="Happy" style="text;html=1;align=center;verticalAlign=middle;whiteSpace=wrap;rounded=0;" parent="1" vertex="1">
          <mxGeometry x="450" y="325" width="60" height="30" as="geometry" />
        </mxCell>
        <mxCell id="LjHODBpFylGfXqz3O9h_-4" value="" style="shape=parallelogram;perimeter=parallelogramPerimeter;whiteSpace=wrap;html=1;fixedSize=1;" vertex="1" parent="1">
          <mxGeometry x="450" y="80" width="120" height="60" as="geometry" />
        </mxCell>
        <mxCell id="LjHODBpFylGfXqz3O9h_-6" style="edgeStyle=orthogonalEdgeStyle;rounded=0;orthogonalLoop=1;jettySize=auto;html=1;entryX=0;entryY=0.5;entryDx=0;entryDy=0;" edge="1" parent="1" source="LjHODBpFylGfXqz3O9h_-5" target="W-q-6n3VgXVyglavIU9t-14">
          <mxGeometry relative="1" as="geometry" />
        </mxCell>
        <mxCell id="LjHODBpFylGfXqz3O9h_-5" value="Pre Processing" style="text;html=1;align=center;verticalAlign=middle;whiteSpace=wrap;rounded=0;" vertex="1" parent="1">
          <mxGeometry x="465" y="95" width="90" height="30" as="geometry" />
        </mxCell>
      </root>
    </mxGraphModel>
  </diagram>
</mxfile>
